<svg width="224" height="225" viewBox="0 0 224 225" fill="none" xmlns="http://www.w3.org/2000/svg">
<path d="M122.66 198.122L9.25645 196.141L0 83.4734C26.8542 81.1631 47.8575 85.8738 64.2551 94.5153C64.8702 94.8448 65.4703 95.1603 66.0704 95.5056L37.5959 101.041L28.5195 120.455L32.0901 137.722C32.12 137.872 32.1051 138.022 32.03 138.157L24.7539 152.604L91.9794 151.299L95.97 135.847L94.6503 120.23C95.1599 120.875 95.6555 121.519 96.1352 122.179C120.979 155.575 122.66 198.122 122.66 198.122Z" fill="url(#paint0_linear_3_160)"/>
<path d="M89.7748 71.2917C88.4996 72.1019 87.2244 72.912 85.9342 73.7371C85.2291 74.1871 85.8742 75.3274 86.5943 74.8772C87.8695 74.0671 89.1447 73.2571 90.4349 72.4319C91.155 71.9819 90.4949 70.8416 89.7748 71.2917Z" fill="url(#paint1_linear_3_160)"/>
<path d="M92.7726 64.3904L89.6371 61.5999C89.007 61.0449 88.0768 61.96 88.7069 62.5301C89.7571 63.4603 90.7923 64.3904 91.8425 65.3206C92.4726 65.8756 93.4173 64.9455 92.7726 64.3904Z" fill="url(#paint2_linear_3_160)"/>
<path d="M215.627 90.8099L217.728 94.8759L223.999 92.7753L221.433 87.5244L215.627 90.8099Z" fill="url(#paint3_linear_3_160)"/>
<path d="M109.323 103.156C109.203 103.156 109.098 103.126 108.993 103.067C108.678 102.886 108.573 102.481 108.768 102.167C119.63 83.8635 136.612 79.8729 144.774 77.9526C145.118 77.8776 145.479 78.0876 145.568 78.4477C145.659 78.8078 145.434 79.1528 145.074 79.2428C137.093 81.1181 120.47 85.0337 109.893 102.857C109.758 103.037 109.548 103.156 109.323 103.156Z" fill="black"/>
<path d="M116.165 112.608C116.091 112.608 116.03 112.593 115.955 112.578C115.61 112.458 115.43 112.098 115.535 111.753L116.84 107.807C116.961 107.463 117.321 107.282 117.665 107.387C118.011 107.507 118.191 107.868 118.085 108.212L116.78 112.158C116.691 112.428 116.435 112.608 116.165 112.608Z" fill="black"/>
<path d="M51.8968 158.636C51.6118 158.636 51.3418 158.44 51.2667 158.14C51.1766 157.796 51.3867 157.435 51.7318 157.346C51.8218 157.315 60.8382 154.945 63.5686 152.049C63.8237 151.779 64.2288 151.779 64.4988 152.019C64.7688 152.275 64.7689 152.68 64.5288 152.95C61.5283 156.13 52.4519 158.515 52.0618 158.621C52.0018 158.636 51.9418 158.636 51.8968 158.636Z" fill="black"/>
<path d="M31.4912 186.03C28.7908 185.835 26.0754 185.535 23.435 185.099C23.0149 185.43 22.5648 185.835 22.0847 186.18C22.1297 186.195 22.1897 186.225 22.2347 186.225C25.2352 186.749 28.3257 187.11 31.4012 187.334C31.4162 187.334 31.4312 187.334 31.4462 187.334C31.7913 187.334 32.0763 187.065 32.1063 186.719C32.1213 186.375 31.8513 186.06 31.4912 186.03Z" fill="black"/>
<path d="M51.896 186.54C51.566 186.54 51.281 186.3 51.251 185.969C51.2059 185.61 51.461 185.28 51.8211 185.235C75.9298 182.264 83.9111 174.343 85.7864 171.972C86.0114 171.687 86.4315 171.643 86.7166 171.868C87.0016 172.092 87.0466 172.512 86.8216 172.797C84.3311 175.948 75.9298 183.585 52.0011 186.54C51.9561 186.54 51.9261 186.54 51.896 186.54Z" fill="black"/>
<path d="M22.2352 168.642C21.9351 168.642 21.635 168.582 21.335 168.477C19.5197 167.832 17.7345 165.161 15.5441 159.836C14.974 158.426 15.4391 156.175 17.0443 155.08C18.3796 154.18 21.9951 153.79 27.456 158.996C27.711 159.251 27.726 159.656 27.471 159.925C27.2159 160.195 26.8108 160.195 26.5408 159.94C23.0453 156.61 19.4897 155.005 17.7794 156.16C16.6543 156.925 16.4293 158.515 16.7593 159.325C18.7246 164.141 20.3598 166.737 21.7701 167.232C22.1752 167.382 22.5802 167.337 23.0153 167.081C23.4803 166.826 23.1353 164.156 22.0401 161.2C21.9201 160.856 22.0851 160.481 22.4301 160.36C22.7752 160.241 23.1503 160.405 23.2703 160.75C23.9904 162.671 25.4607 167.247 23.6453 168.237C23.1803 168.507 22.7003 168.642 22.2352 168.642Z" fill="black"/>
<path d="M23.841 167.412C23.616 167.412 23.406 167.307 23.2859 167.097C23.0909 166.782 23.196 166.377 23.511 166.196C24.2911 165.717 25.0712 165.446 25.7613 165.416C26.1064 165.386 26.4364 165.687 26.4514 166.046C26.4664 166.406 26.1814 166.722 25.8213 166.737C25.3562 166.752 24.7711 166.962 24.186 167.322C24.066 167.382 23.946 167.412 23.841 167.412Z" fill="black"/>
<path d="M20.7192 174.748C18.9339 174.748 16.2335 174.147 13.4581 171.297C9.78252 167.532 8.4773 165.206 8.94237 163.241C9.39248 161.381 11.3578 160.001 15.7685 158.485C16.1135 158.366 16.4885 158.546 16.6085 158.89C16.7286 159.236 16.5485 159.611 16.2035 159.73C12.393 161.036 10.5477 162.221 10.2326 163.541C9.88752 164.966 11.1778 167.082 14.4033 170.382C16.3536 172.378 18.5289 173.428 20.7192 173.428H20.7342C22.5795 173.428 24.3648 172.677 25.625 171.358C25.88 171.102 26.3001 171.087 26.5552 171.343C26.8102 171.598 26.8252 172.018 26.5701 172.272C25.0699 173.848 22.9395 174.748 20.7192 174.748C20.7342 174.748 20.7342 174.748 20.7192 174.748Z" fill="black"/>
<path d="M25.4164 173.218C25.3413 172.858 24.9963 172.633 24.6362 172.708C24.2762 172.783 24.0512 173.128 24.1261 173.488C24.4412 175.108 23.9611 176.503 22.761 177.433C21.2757 178.574 19.0404 178.754 17.2251 177.854C14.0296 176.293 10.7891 171.418 11.2092 167.457C10.8191 167.142 10.429 166.827 10.114 166.437C10.054 166.512 10.0089 166.602 9.99399 166.707C9.09381 171.373 12.8294 177.163 16.655 179.038C17.6151 179.504 18.6653 179.744 19.7005 179.744C21.1107 179.744 22.4909 179.324 23.5711 178.484C25.1613 177.223 25.8365 175.318 25.4164 173.218Z" fill="black"/>
<path d="M20.3746 183.764C20.0446 183.764 19.6995 183.734 19.3545 183.689C14.4637 182.909 10.7131 176.908 10.338 171.163C10.308 170.802 10.6081 171.552 10.9681 171.522C11.3282 171.492 11.6433 171.762 11.6732 172.122C12.0183 176.143 15.7989 181.784 19.5645 182.384C21.1548 182.639 22.58 182.174 23.5551 181.063C24.5903 179.894 24.9353 178.198 24.4552 176.533C24.3502 176.188 24.5602 175.812 24.9054 175.723C25.2504 175.617 25.6254 175.828 25.7154 176.173C26.3156 178.274 25.8655 180.433 24.5303 181.934C23.4801 183.134 21.9949 183.764 20.3746 183.764Z" fill="black"/>
<path d="M27.906 180.089L25.7757 179.848C25.5806 179.833 25.3856 179.894 25.2356 180.028C25.1005 180.164 25.0256 180.359 25.0405 180.554C25.0706 180.838 25.0856 181.169 25.0856 181.529C25.1005 182.954 23.5403 184.904 21.515 185.249C18.7695 185.729 16.1291 183.33 14.1188 178.603C13.5187 178.049 12.8886 177.523 12.2886 176.983C12.2286 177.133 12.2135 177.298 12.2735 177.464C15.079 185.355 18.7996 186.615 20.8849 186.615C21.215 186.615 21.515 186.585 21.755 186.539C24.5155 186.045 26.4207 183.494 26.4058 181.514C26.4058 181.409 26.4058 181.319 26.4058 181.229L27.771 181.379C28.1311 181.424 28.4611 181.154 28.4911 180.794C28.5211 180.448 28.266 180.119 27.906 180.089Z" fill="black"/>
<path d="M41.3927 190.621C31.2811 190.621 26.6604 185.19 25.4602 171.897C25.2952 170.172 25.1902 168.267 25.1302 166.092C25.1001 165.011 25.0852 163.886 25.0852 162.731C25.0852 162.371 25.3852 162.071 25.7453 162.071C26.1053 162.071 26.4054 162.371 26.4054 162.731C26.4054 163.886 26.4203 164.996 26.4504 166.062C26.5104 168.207 26.6154 170.082 26.7804 171.778C27.9206 184.395 32.0313 189.3 41.4077 189.3C55.9 189.285 56.155 174.147 56.2901 166.016C56.32 164.667 56.3351 163.496 56.4101 162.641C56.4401 162.281 56.7702 162.011 57.1302 162.056C57.4903 162.086 57.7603 162.416 57.7153 162.776C57.6402 163.586 57.6103 164.726 57.5953 166.046C57.4603 174.013 57.1752 190.606 41.3927 190.621Z" fill="black"/>
<path d="M25.9102 166.031H23.8549C23.4948 166.031 23.1948 165.732 23.1948 165.371C23.1948 165.011 23.4948 164.711 23.8549 164.711H25.9102C26.2703 164.711 26.5703 165.011 26.5703 165.371C26.5703 165.732 26.2853 166.031 25.9102 166.031Z" fill="black"/>
<path d="M41.4064 169.767C32.465 169.767 27.6643 168.476 25.864 165.581C25.3389 164.756 25.0689 163.796 25.0838 162.701C25.1289 158.755 32.3 155.665 41.4064 155.665C50.5579 155.665 57.714 158.755 57.714 162.716C57.714 164.111 57.0389 165.341 55.7337 166.391C53.0782 168.537 47.8575 169.767 41.4064 169.767ZM41.4064 156.985C32.465 156.985 26.4341 159.955 26.404 162.716C26.3891 163.556 26.5841 164.261 26.9742 164.877C28.9695 168.086 36.1706 168.447 41.4064 168.447C47.4674 168.447 52.5232 167.292 54.9086 165.341C55.9137 164.546 56.3938 163.691 56.3938 162.701C56.3938 159.94 50.3778 156.985 41.4064 156.985Z" fill="black"/>
<path d="M55.3291 165.866C52.7336 167.967 47.4828 169.106 41.4068 169.106C34.3558 169.106 28.3698 168.357 26.4194 165.236C28.9399 163.076 34.3107 161.59 40.5517 161.59C47.3778 161.59 53.1837 163.391 55.3291 165.866Z" fill="black"/>
<path d="M155.029 16.9534C145.339 16.4583 140.253 19.1138 137.642 22.9244C136.667 24.3646 137.957 26.2999 139.653 25.9098C141.573 25.4598 143.988 25.1447 146.569 25.0097C152.255 29.2104 159.321 30.8906 166.207 29.6904C168.667 32.6609 168.802 38.8719 168.892 45.0678C168.907 46.073 169.522 45.563 170.527 45.5779C171.802 45.5779 172.838 45.5479 174.443 45.833L176.498 45.788C176.498 45.788 176.498 45.788 177.038 35.2863C177.609 24.7846 170.782 17.7635 155.029 16.9534Z" fill="black"/>
<path d="M169.584 46.028C173.469 46.028 176.215 46.7631 177.535 48.1433C178.165 48.8184 178.466 49.6285 178.421 50.5436C178.39 51.1137 178.196 52.194 177.16 53.079C176.02 54.0692 174.22 54.4893 171.955 54.2792C171.579 54.2493 171.279 54.5043 171.234 54.8643L168.924 78.5231C168.894 78.8231 169.074 79.1081 169.374 79.2132C169.419 79.2281 169.914 79.3932 170.769 79.7382C171.069 79.3782 171.369 79.0332 171.684 78.6881C171.084 78.433 170.604 78.253 170.29 78.133L172.494 55.6144C175.42 55.7345 177.1 54.8643 178.031 54.0542C179.066 53.1541 179.681 51.9239 179.741 50.5887C179.785 49.6885 179.605 48.3833 178.495 47.2131C176.905 45.5329 173.904 44.6777 169.584 44.6777C169.224 44.6777 168.924 44.9778 168.924 45.3379C168.939 45.7429 169.224 46.028 169.584 46.028Z" fill="black"/>
<path d="M145.819 51.2784C144.154 51.2784 142.848 50.7983 142.114 49.9282C141.603 49.3281 141.408 48.548 141.544 47.7078C141.858 45.8476 144.469 45.1874 145.684 44.9624V39.5166C145.684 39.1565 145.984 38.8564 146.345 38.8564C146.704 38.8564 147.005 39.1565 147.005 39.5166V45.5325C147.005 45.8625 146.75 46.1476 146.419 46.1926C145.325 46.3127 143.014 46.8977 142.848 47.9328C142.774 48.3979 142.863 48.773 143.119 49.088C143.584 49.6432 144.604 49.9732 145.819 49.9732C146.18 49.9732 146.479 50.2733 146.479 50.6332C146.479 50.9783 146.18 51.2784 145.819 51.2784Z" fill="black"/>
<path d="M140.178 41.8422L140.314 43.1475C140.494 44.8277 137.883 45.1128 137.703 43.4175L137.568 42.1123C137.388 40.432 139.998 40.162 140.178 41.8422Z" fill="black"/>
<path d="M157.898 42.2622L158.032 43.5674C158.212 45.2477 155.602 45.5327 155.421 43.8375L155.287 42.5322C155.107 40.8519 157.717 40.5819 157.898 42.2622Z" fill="black"/>
<path d="M155 36.1862C156.08 36.3061 157.115 36.4862 158.15 36.8013C158.961 37.0562 158.405 38.2415 157.61 38.0014C156.695 37.7164 155.735 37.5964 154.79 37.4914C153.95 37.3864 154.16 36.0811 155 36.1862Z" fill="black"/>
<path d="M136.021 36.6813C136.696 36.2462 137.446 35.9162 138.091 35.4361C138.751 34.926 139.682 35.8712 139.007 36.3813C138.271 36.9514 137.446 37.3265 136.666 37.8365C135.961 38.2866 135.316 37.1464 136.021 36.6813Z" fill="black"/>
<path d="M154.023 57.2197C154.999 57.0697 156.304 56.6197 156.379 55.4495C156.424 54.6093 157.744 54.6093 157.699 55.4495C157.594 57.2348 156.019 58.2249 154.369 58.4799C153.544 58.615 153.183 57.3548 154.023 57.2197Z" fill="black"/>
<path d="M172.583 21.9937C168.743 18.6182 162.847 16.6979 155.061 16.3079C142.129 15.6328 135.213 20.5385 134.523 30.8902C134.373 33.0955 134.223 35.2108 134.073 37.2511C132.663 56.9642 131.822 68.8612 138.633 73.2718C140.299 74.352 142.339 75.1021 144.409 75.6272C144.409 75.6422 144.409 75.6722 144.409 75.6872L144.109 81.4781C144.094 81.6731 144.184 81.8682 144.319 82.0031C144.44 82.1082 144.604 82.1683 144.754 82.1683C144.784 82.1683 144.83 82.1682 144.86 82.1532C145.204 82.0932 153.305 80.773 155.211 76.4073C155.301 76.1973 155.286 75.9722 155.151 75.7772C155.031 75.5972 154.806 75.4622 154.596 75.4772C154.491 75.4622 144.635 75.5672 139.354 72.1467C133.187 68.156 134.027 56.5441 135.393 37.3111C135.543 35.2709 135.693 33.1555 135.843 30.9502C136.488 21.3337 142.774 16.953 155.016 17.5981C162.503 17.9881 168.128 19.7884 171.743 22.9689C175.119 25.9244 176.695 30.065 176.424 35.2408C175.959 44.2573 175.495 45.8325 175.419 46.0426C175.27 46.2975 175.314 46.6426 175.539 46.8527C175.809 47.0927 176.214 47.0777 176.47 46.8226C176.935 46.3126 177.37 42.4419 177.73 35.3158C178 29.72 176.275 25.2343 172.583 21.9937Z" fill="black"/>
<path d="M148.49 102.407C148.444 102.407 148.399 102.407 148.354 102.392C148.129 102.346 147.949 102.182 147.859 101.972C146.539 98.2955 144.213 82.2885 144.109 81.6133C144.049 81.2533 144.304 80.9232 144.664 80.8632C145.023 80.8032 145.354 81.0583 145.413 81.4183C145.428 81.5683 147.469 95.4601 148.774 100.456L169.102 78.1778C169.342 77.9078 169.762 77.8928 170.033 78.1328C170.303 78.3729 170.317 78.7929 170.078 79.063L148.969 102.197C148.834 102.331 148.669 102.407 148.49 102.407Z" fill="black"/>
<path d="M166.042 21.274C162.892 16.1581 156.695 13.3227 150.74 14.5829C148.369 15.078 147.514 14.4929 145.369 13.6227C143.508 12.8726 141.544 12.3926 139.548 12.2425C136.728 12.0325 133.232 12.2876 131.462 14.808C127.127 20.9589 135.572 25.8497 140.418 27.0498C148.04 28.9401 156.141 27.3049 162.561 22.8492C162.606 22.8192 162.637 22.7741 162.667 22.7292C163.732 22.6691 164.797 22.6091 165.862 22.5491C166.642 22.5192 166.703 21.409 166.042 21.274Z" fill="black"/>
<path d="M219.798 135.591C211.247 94.7703 174.971 79.933 170.29 78.1777C169.856 78.4178 169.42 78.6428 168.985 78.8829C169.06 79.0479 169.195 79.1979 169.39 79.2579C169.795 79.3929 209.581 93.18 218.522 135.877C222.903 156.775 220.848 172.917 212.597 182.564C206.866 189.27 198.164 192.691 188.113 192.18C175.631 191.55 163.749 180.959 155.078 173.218C149.692 168.417 145.446 164.621 142.551 164.487C135.529 164.156 134.479 163.286 133.279 160.871C133.114 160.54 132.724 160.421 132.394 160.57C132.064 160.735 131.944 161.126 132.094 161.456C133.595 164.457 135.23 165.446 142.476 165.791C144.907 165.912 149.212 169.752 154.192 174.193C163.014 182.069 175.091 192.841 188.038 193.501C188.713 193.531 189.373 193.546 190.033 193.546C199.664 193.546 207.976 189.99 213.587 183.419C222.108 173.428 224.254 156.895 219.798 135.591Z" fill="black"/>
<path d="M133.878 156.865C130.997 156.865 128.702 156.28 127.007 155.126C125.372 154.015 124.382 152.395 124.051 150.324C123.991 149.964 124.231 149.635 124.592 149.574C124.952 149.514 125.281 149.754 125.342 150.114C125.612 151.809 126.422 153.13 127.742 154.03C130.218 155.726 134.523 155.98 140.179 154.78C140.524 154.705 140.884 154.93 140.959 155.29C141.034 155.65 140.809 155.995 140.449 156.07C138.004 156.61 135.813 156.865 133.878 156.865Z" fill="black"/>
<path d="M138.034 162.101C131.778 162.101 127.773 159.73 127.083 155.455C127.023 155.095 127.263 154.765 127.623 154.704C127.983 154.645 128.313 154.885 128.373 155.245C129.063 159.55 134.028 161.531 141.65 160.541C142.01 160.496 142.34 160.751 142.386 161.111C142.43 161.471 142.176 161.801 141.815 161.845C140.48 162.011 139.22 162.101 138.034 162.101Z" fill="black"/>
<path d="M169.103 154.555C169.493 163.062 165.443 171.102 158.287 175.783C157.581 176.249 158.242 177.388 158.947 176.923C166.208 172.183 170.513 164.156 170.439 155.531C169.958 155.245 169.523 154.915 169.103 154.555Z" fill="black"/>
<path d="M192.972 146.348C189.312 134.482 182.771 126.126 182.711 126.05C182.546 125.84 182.26 125.751 182.006 125.825C181.751 125.901 181.556 126.126 181.541 126.396C180.881 133.146 185.621 147.804 185.831 148.419C185.937 148.764 186.311 148.959 186.656 148.839C187.002 148.719 187.197 148.359 187.076 148.014C187.076 147.984 186.942 147.624 186.747 146.978L188.712 138.908C189.792 141.278 190.842 143.903 191.712 146.753C194.038 154.3 191.937 160.271 188.997 162.612C186.926 164.262 184.391 164.351 181.84 162.896C172.719 157.645 155.092 144.594 151.401 139.073C147.381 133.057 140.419 132.232 140.119 132.202C139.88 132.172 139.624 132.291 139.489 132.501C139.354 132.711 139.354 132.982 139.475 133.192L144.665 142.058C142.925 142.734 138.124 144.443 132.618 145.179C128.597 145.718 126.497 144.594 124.802 143.678C123.601 143.033 122.462 142.433 121.037 142.688C119.596 142.944 119.221 143.784 119.131 144.248C118.711 146.259 121.546 148.959 124.337 150.819C129.003 153.925 138.964 151.824 139.384 151.735C139.744 151.66 139.969 151.315 139.895 150.954C139.819 150.594 139.475 150.369 139.114 150.445C139.009 150.46 129.272 152.53 125.072 149.724C121.801 147.549 120.241 145.419 120.436 144.518C120.496 144.263 120.781 144.083 121.291 143.979C122.267 143.799 123.077 144.233 124.201 144.834C125.957 145.779 128.373 147.069 132.813 146.469C139.895 145.508 145.655 143.078 145.895 142.973C146.075 142.898 146.195 142.749 146.255 142.568C146.315 142.388 146.3 142.193 146.195 142.028L141.365 133.776C143.509 134.317 147.665 135.833 150.306 139.793C154.401 145.943 172.795 159.191 181.181 164.037C182.576 164.847 184.001 165.237 185.367 165.237C186.957 165.237 188.472 164.697 189.807 163.647C193.212 160.916 195.493 154.525 192.972 146.348Z" fill="black"/>
<path d="M181.528 164.112C181.422 164.112 181.303 164.082 181.197 164.022C180.883 163.842 180.777 163.437 180.957 163.121C183.673 158.351 188.278 137.933 188.323 137.723C188.399 137.362 188.759 137.152 189.104 137.227C189.464 137.303 189.674 137.663 189.599 138.007C189.404 138.863 184.904 158.831 182.098 163.766C181.978 163.991 181.753 164.112 181.528 164.112Z" fill="black"/>
<path d="M104.117 87.0895C103.968 86.9095 103.727 86.8345 103.502 86.8794L64.2411 94.5155L37.0119 99.8112C36.8019 99.856 36.6367 99.9914 36.5468 100.186L27.2303 120.109C27.1703 120.245 27.1553 120.38 27.1853 120.529L30.7558 137.798L23.1046 153.01C22.9996 153.22 23.0147 153.46 23.1347 153.655C23.2547 153.85 23.4647 153.955 23.6897 153.955H23.7048L92.5205 152.62C92.8206 152.62 93.0757 152.41 93.1506 152.125L97.2917 136.087C97.3066 136.012 97.3215 135.937 97.3066 135.862L96.1511 122.195L95.5062 114.529L104.267 87.7496C104.327 87.5095 104.267 87.2695 104.117 87.0895ZM94.2005 114.228C94.1706 114.319 94.1557 114.409 94.1706 114.484L94.6513 120.23L95.971 135.847L91.9805 151.3L24.7549 152.605L32.031 138.157C32.091 138.023 32.1211 137.873 32.091 137.722L28.5205 120.455L37.597 101.041L66.0714 95.5058L102.662 88.3797L94.2005 114.228Z" fill="black"/>
<path d="M140.062 133.492C139.821 133.492 139.596 133.357 139.476 133.131L133.28 120.92L112.142 111.244C111.992 111.168 111.856 111.049 111.797 110.884L103.006 87.7797C102.87 87.4347 103.05 87.0595 103.381 86.9246C103.725 86.7895 104.1 86.9696 104.236 87.2996L112.937 110.163L134.045 119.825C134.181 119.885 134.285 119.99 134.36 120.124L140.646 132.547C140.811 132.877 140.677 133.267 140.361 133.432C140.272 133.462 140.166 133.492 140.062 133.492Z" fill="black"/>
<path d="M114.649 214.685C114.439 214.685 114.244 214.58 114.109 214.414C113.989 214.234 113.944 214.009 114.019 213.814L117.125 204.933L86.1296 179.879C85.9796 179.759 85.8896 179.579 85.8896 179.369L85.6346 156.64L80.9538 152.665C80.6838 152.425 80.6388 152.02 80.8788 151.734C81.1188 151.465 81.5239 151.42 81.809 151.66L86.7147 155.83C86.8648 155.95 86.9397 156.13 86.9397 156.326L87.1948 179.054L118.309 204.213C118.519 204.393 118.61 204.678 118.519 204.948L115.579 213.379L167.547 212.629L171.973 197.162L149.23 172.858C149.109 172.738 149.05 172.573 149.05 172.408V169.377C149.05 169.017 149.349 168.717 149.709 168.717C150.07 168.717 150.369 169.017 150.369 169.377V172.153L173.203 196.532C173.354 196.697 173.413 196.937 173.354 197.162L168.703 213.454C168.627 213.74 168.372 213.92 168.088 213.935L114.649 214.685Z" fill="black"/>
<path d="M86.55 180.014C86.2199 180.014 85.9349 179.759 85.8899 179.429C85.8449 179.069 86.1149 178.738 86.475 178.709L149.62 171.718C149.995 171.672 150.31 171.943 150.34 172.302C150.385 172.662 150.115 172.993 149.755 173.023L86.61 180.014C86.595 180.014 86.58 180.014 86.55 180.014Z" fill="black"/>
<path d="M117.904 205.367C117.589 205.367 117.304 205.128 117.259 204.798C117.213 204.438 117.454 204.107 117.814 204.048L172.603 196.292C172.962 196.231 173.293 196.487 173.353 196.846C173.397 197.206 173.157 197.537 172.797 197.596L118.009 205.352C117.964 205.367 117.934 205.367 117.904 205.367Z" fill="black"/>
<path d="M127.087 153.79C126.952 153.7 126.817 153.61 126.667 153.535L86.2506 155.681C85.8905 155.696 85.6055 156.01 85.6355 156.371C85.6505 156.716 85.9506 156.986 86.2956 156.986C86.3105 156.986 86.3256 156.986 86.3256 156.986L127.072 154.825C127.342 154.81 127.567 154.63 127.657 154.39C127.522 154.3 127.387 154.21 127.252 154.105C127.147 154.015 127.102 153.91 127.087 153.79Z" fill="black"/>
<path d="M95.6126 124.431C95.2822 124.431 94.9826 124.175 94.9527 123.831C94.9228 123.47 95.1926 123.155 95.5528 123.125L133.704 119.765C134.079 119.734 134.379 120.005 134.408 120.365C134.439 120.725 134.169 121.04 133.808 121.07L95.6574 124.431C95.6574 124.431 95.6424 124.431 95.6126 124.431Z" fill="black"/>
<path d="M31.446 138.533C31.086 138.533 30.801 138.248 30.786 137.903C30.7709 137.542 31.056 137.243 31.4161 137.228L96.6009 135.262C96.9612 135.262 97.2617 135.532 97.2766 135.892C97.2916 136.252 97.006 136.553 96.6466 136.568L31.461 138.533C31.461 138.533 31.461 138.533 31.446 138.533Z" fill="black"/>
<path d="M95.6117 113.463C95.2813 113.463 94.9966 113.223 94.9667 112.893C94.921 112.534 95.1767 112.203 95.5361 112.158L112.339 109.998C112.714 109.953 113.03 110.208 113.074 110.568C113.119 110.928 112.864 111.258 112.504 111.304L95.7013 113.463C95.6714 113.448 95.6415 113.463 95.6117 113.463Z" fill="black"/>
<path d="M133.778 189.405C133.478 189.405 133.208 189.195 133.132 188.88C133.058 188.521 133.283 188.175 133.643 188.101L142.374 186.255C142.735 186.18 143.079 186.405 143.155 186.765C143.229 187.125 143.004 187.47 142.644 187.545L133.913 189.391C133.868 189.405 133.823 189.405 133.778 189.405Z" fill="black"/>
<path d="M114.695 194.237C114.41 194.237 114.139 194.041 114.065 193.741C113.974 193.396 114.184 193.036 114.529 192.946L121.685 191.086C122.031 190.996 122.391 191.206 122.48 191.55C122.571 191.896 122.361 192.256 122.016 192.346L114.86 194.206C114.799 194.237 114.754 194.237 114.695 194.237Z" fill="black"/>
<path d="M106.671 168.643C106.34 168.643 106.055 168.387 106.011 168.043C105.98 167.683 106.251 167.367 106.61 167.322L119.692 166.137C120.068 166.107 120.367 166.377 120.413 166.737C120.443 167.097 120.172 167.412 119.813 167.458L106.73 168.643C106.7 168.643 106.685 168.643 106.671 168.643Z" fill="black"/>
<path d="M104.012 146.169C103.921 146.169 103.817 146.154 103.726 146.109C103.397 145.944 103.261 145.554 103.426 145.223L111.827 127.971C111.993 127.641 112.383 127.506 112.713 127.671C113.043 127.836 113.178 128.226 113.013 128.556L104.612 145.809C104.491 146.033 104.266 146.169 104.012 146.169Z" fill="black"/>
<path d="M117.469 135.607C117.124 135.607 116.839 135.337 116.809 134.991C116.78 134.632 117.049 134.317 117.424 134.287L130.221 133.356C130.582 133.326 130.896 133.597 130.926 133.971C130.957 134.332 130.686 134.647 130.311 134.677L117.514 135.607C117.499 135.607 117.484 135.607 117.469 135.607Z" fill="black"/>
<path d="M61.3305 131.886C61.2105 131.886 61.0905 131.856 60.9705 131.782C60.6704 131.586 60.5804 131.181 60.7754 130.882L66.6264 121.729C66.8214 121.43 67.2264 121.34 67.5265 121.534C67.8265 121.729 67.9165 122.135 67.7215 122.435L61.8706 131.586C61.7506 131.782 61.5405 131.886 61.3305 131.886Z" fill="black"/>
<path d="M34.5211 128.916C34.1761 128.916 33.891 128.646 33.8611 128.301C33.831 127.941 34.1161 127.626 34.4761 127.61L59.8901 126.006C60.2502 125.99 60.5652 126.261 60.5803 126.621C60.6102 126.98 60.3252 127.296 59.9651 127.311L34.5512 128.916C34.5361 128.916 34.5361 128.916 34.5211 128.916Z" fill="black"/>
<path d="M64.2572 106.097C63.9272 106.097 63.6421 105.857 63.6121 105.512C63.5671 105.153 63.8221 104.822 64.1822 104.777L72.1184 103.847C72.4785 103.802 72.8085 104.057 72.8536 104.417C72.8986 104.777 72.6435 105.107 72.2835 105.153L64.3472 106.082C64.3022 106.097 64.2722 106.097 64.2572 106.097Z" fill="black"/>
<path d="M77.0065 104.237C76.6764 104.237 76.3914 103.983 76.3613 103.653C76.3164 103.293 76.5864 102.962 76.9465 102.933L86.4879 101.853C86.863 101.807 87.178 102.078 87.2081 102.438C87.2531 102.797 86.9831 103.128 86.623 103.158L77.0815 104.237C77.0515 104.237 77.0364 104.237 77.0065 104.237Z" fill="black"/>
<path d="M79.6017 145.059H64.2544C63.8943 145.059 63.5942 144.759 63.5942 144.399C63.5942 144.038 63.8943 143.739 64.2544 143.739H79.6017C79.9618 143.739 80.2619 144.038 80.2619 144.399C80.2619 144.759 79.9618 145.059 79.6017 145.059Z" fill="black"/>
<path d="M86.7434 150.07H80.3524C79.9924 150.07 79.6924 149.769 79.6924 149.41C79.6924 149.049 79.9924 148.749 80.3524 148.749H86.3084L89.2338 141.158H83.3229C82.9629 141.158 82.6628 140.858 82.6628 140.498C82.6628 140.138 82.9629 139.837 83.3229 139.837H90.194C90.4041 139.837 90.6141 139.943 90.7341 140.123C90.8541 140.303 90.8841 140.528 90.8091 140.738L87.3735 149.65C87.2685 149.904 87.0135 150.07 86.7434 150.07Z" fill="black"/>
<path d="M146.873 195.166C146.768 195.166 146.663 195.136 146.573 195.091C146.243 194.926 146.123 194.536 146.288 194.207L151.779 183.525L140.842 180.284C140.496 180.18 140.301 179.819 140.392 179.474C140.497 179.129 140.857 178.934 141.202 179.024L152.889 182.49C153.069 182.549 153.234 182.685 153.309 182.865C153.384 183.045 153.384 183.255 153.294 183.42L147.443 194.807C147.338 195.032 147.113 195.166 146.873 195.166Z" fill="black"/>
<path d="M41.0332 146.95C40.9132 146.95 40.7782 146.919 40.6732 146.844L36.2325 143.919C36.0224 143.784 35.9174 143.544 35.9474 143.289C35.9774 143.048 36.1424 142.838 36.3825 142.749L41.9633 140.738C42.3084 140.618 42.6835 140.798 42.8035 141.128C42.9235 141.474 42.7435 141.849 42.4134 141.968L38.0627 143.529L41.4083 145.719C41.7083 145.914 41.7983 146.32 41.6033 146.634C41.4533 146.844 41.2433 146.95 41.0332 146.95Z" fill="black"/>
<path d="M96.0148 162.402C95.955 162.957 95.8953 163.511 95.8356 164.067C95.745 164.907 97.0508 164.907 97.1553 164.067C97.215 163.511 97.2757 162.957 97.3354 162.402C97.425 161.562 96.1053 161.577 96.0148 162.402Z" fill="black"/>
<path d="M95.8823 167.982L95.5071 169.647C95.3269 170.472 96.5879 170.817 96.768 169.992L97.1423 168.327C97.3373 167.517 96.0624 167.157 95.8823 167.982Z" fill="black"/>
<path d="M27.8311 121.04C27.501 121.04 27.201 120.785 27.171 120.44C27.141 120.079 27.411 119.765 27.7711 119.72L94.7716 113.763C95.1468 113.734 95.4464 114.003 95.4921 114.364C95.522 114.724 95.2513 115.038 94.892 115.084L27.8911 121.04C27.8611 121.04 27.8461 121.04 27.8311 121.04Z" fill="black"/>
<defs>
<linearGradient id="paint0_linear_3_160" x1="4.71766" y1="91.7528" x2="106.186" y2="204.457" gradientUnits="userSpaceOnUse">
<stop offset="0.0572917" stop-color="#F8D2AA"/>
<stop offset="0.257355" stop-color="#F4B6D4"/>
<stop offset="0.455904" stop-color="#C8A2E5"/>
<stop offset="0.670741" stop-color="#B08CF7"/>
<stop offset="0.932292" stop-color="#8EC9F2"/>
</linearGradient>
<linearGradient id="paint1_linear_3_160" x1="85.8264" y1="71.4802" x2="88.9966" y2="75.9436" gradientUnits="userSpaceOnUse">
<stop offset="0.0572917" stop-color="#F8D2AA"/>
<stop offset="0.257355" stop-color="#F4B6D4"/>
<stop offset="0.455904" stop-color="#C8A2E5"/>
<stop offset="0.670741" stop-color="#B08CF7"/>
<stop offset="0.932292" stop-color="#8EC9F2"/>
</linearGradient>
<linearGradient id="paint2_linear_3_160" x1="88.6699" y1="61.7403" x2="92.2313" y2="65.8482" gradientUnits="userSpaceOnUse">
<stop offset="0.0572917" stop-color="#F8D2AA"/>
<stop offset="0.257355" stop-color="#F4B6D4"/>
<stop offset="0.455904" stop-color="#C8A2E5"/>
<stop offset="0.670741" stop-color="#B08CF7"/>
<stop offset="0.932292" stop-color="#8EC9F2"/>
</linearGradient>
<linearGradient id="paint3_linear_3_160" x1="215.949" y1="88.0899" x2="222.363" y2="95.7103" gradientUnits="userSpaceOnUse">
<stop offset="0.0572917" stop-color="#F8D2AA"/>
<stop offset="0.257355" stop-color="#F4B6D4"/>
<stop offset="0.455904" stop-color="#C8A2E5"/>
<stop offset="0.670741" stop-color="#B08CF7"/>
<stop offset="0.932292" stop-color="#8EC9F2"/>
</linearGradient>
</defs>
</svg>
