<svg width="49" height="49" viewBox="0 0 49 49" fill="none" xmlns="http://www.w3.org/2000/svg">
<path d="M35.4637 11.8991H33.3023V8.67081C33.3023 8.13276 32.7619 7.59473 32.2215 7.59473C31.6136 7.59473 31.1408 8.13276 31.1408 8.67081V11.8991H18.1718V8.67081C18.1718 8.13276 17.6315 7.59473 17.0911 7.59473C16.4832 7.59473 16.0104 8.13276 16.0104 8.67081V11.8991H13.8489C11.4172 11.8991 9.52588 13.8494 9.52588 16.2034V37.7252C9.52588 40.1463 11.4172 42.0295 13.8489 42.0295H35.4637C37.8279 42.0295 39.7867 40.1463 39.7867 37.7252V16.2034C39.7867 13.8494 37.8279 11.8991 35.4637 11.8991ZM37.6253 37.7252C37.6253 38.9358 36.6121 39.8773 35.4637 39.8773H13.8489C12.633 39.8773 11.6873 38.9358 11.6873 37.7252V20.5078H37.6253V37.7252ZM37.6253 18.3556H11.6873V16.2034C11.6873 15.0601 12.633 14.0512 13.8489 14.0512H35.4637C36.6121 14.0512 37.6253 15.0601 37.6253 16.2034V18.3556ZM21.6843 35.304C21.8869 35.5057 22.1571 35.573 22.4949 35.573C22.765 35.573 23.0352 35.5057 23.2378 35.304L31.8838 26.6953C32.289 26.2918 32.289 25.5519 31.8838 25.1484C31.4785 24.7448 30.7355 24.7448 30.3302 25.1484L22.4949 33.0173L18.9149 29.4528C18.5096 29.0492 17.7665 29.0492 17.3613 29.4528C16.956 29.8563 16.956 30.5961 17.3613 30.9996L21.6843 35.304Z" fill="black"/>
</svg>
