<svg width="49" height="49" viewBox="0 0 49 49" fill="none" xmlns="http://www.w3.org/2000/svg">
<g opacity="0.75" clip-path="url(#clip0_3_51)">
<path d="M6.74184 12.0719C6.74184 9.76652 8.58121 7.89795 10.8505 7.89795C13.1177 7.89795 14.9592 9.76652 14.9592 12.0719C14.9592 14.3749 13.1177 16.2458 10.8505 16.2458C8.58121 16.2458 6.74184 14.3749 6.74184 12.0719ZM10.8505 13.8607C11.8264 13.8607 12.6114 13.0632 12.6114 12.0719C12.6114 11.0843 11.8264 10.283 10.8505 10.283C9.87471 10.283 9.08966 11.0843 9.08966 12.0719C9.08966 13.0632 9.87471 13.8607 10.8505 13.8607ZM1.45923 26.3824C1.45923 22.1042 4.87532 18.6309 9.08966 18.6309H12.6114C13.5873 18.6309 14.5264 18.8172 15.3848 19.1601C15.9937 19.3985 16.2873 20.0917 16.0525 20.7029C15.8177 21.3216 15.1353 21.6197 14.5337 21.3811C13.9394 21.1427 13.2937 21.0159 12.6114 21.0159H9.08966C8.89157 21.0159 8.69567 21.0234 8.50271 21.0458V36.5191H13.1984V34.134C13.1984 33.4781 13.7266 32.9414 14.3723 32.9414C15.0179 32.9414 15.5462 33.4781 15.5462 34.134V37.1153C15.5462 38.1066 14.7612 38.9042 13.7853 38.9042H7.91575C6.9436 38.9042 6.15488 38.1066 6.15488 37.1153V33.5377C3.39912 32.3749 1.45923 29.6097 1.45923 26.3824ZM6.15488 30.8471V21.9178C4.73885 22.8793 3.80705 24.5191 3.80705 26.3824C3.80705 28.2384 4.73812 29.8184 6.15488 30.8471ZM39.0244 16.2458C36.7573 16.2458 34.9157 14.3749 34.9157 12.0719C34.9157 9.76652 36.7573 7.89795 39.0244 7.89795C41.2916 7.89795 43.1331 9.76652 43.1331 12.0719C43.1331 14.3749 41.2916 16.2458 39.0244 16.2458ZM40.7853 12.0719C40.7853 11.0843 40.0003 10.283 39.0244 10.283C38.0486 10.283 37.2636 11.0843 37.2636 12.0719C37.2636 13.0632 38.0486 13.8607 39.0244 13.8607C40.0003 13.8607 40.7853 13.0632 40.7853 12.0719ZM43.7201 33.5377V37.1153C43.7201 38.1066 42.9351 38.9042 41.9592 38.9042H36.0897C35.1138 38.9042 34.3288 38.1066 34.3288 37.1153V34.134C34.3288 33.4781 34.857 32.9414 35.5027 32.9414C36.1483 32.9414 36.6766 33.4781 36.6766 34.134V36.5191H41.3723V21.0458C41.1815 21.0234 40.9834 21.0159 40.7853 21.0159H37.2636C36.5812 21.0159 35.9355 21.1427 35.3413 21.3811C34.7396 21.6197 34.0573 21.3216 33.8225 20.7029C33.5877 20.0917 33.8225 19.3985 34.4902 19.1601C35.3486 18.8172 36.2877 18.5638 37.2636 18.5638H40.7853C44.9967 18.5638 48.4157 22.1042 48.4157 26.3153C48.4157 29.6097 46.4787 32.3749 43.7201 33.5377ZM46.0679 26.3824C46.0679 24.5191 45.1361 22.8793 43.7201 21.9178V30.8471C45.1361 29.8184 46.0679 28.2384 46.0679 26.3824ZM29.6331 12.6681C29.6331 15.2992 27.5274 17.4384 24.9375 17.4384C22.3476 17.4384 20.2418 15.2992 20.2418 12.6681C20.2418 10.0334 22.3476 7.89795 24.9375 7.89795C27.5274 7.89795 29.6331 10.0334 29.6331 12.6681ZM24.9375 10.283C23.6389 10.283 22.5897 11.3511 22.5897 12.6681C22.5897 13.9874 23.6389 15.0532 24.9375 15.0532C26.2361 15.0532 27.2853 13.9874 27.2853 12.6681C27.2853 11.3511 26.2361 10.283 24.9375 10.283ZM26.1114 19.8234C30.3228 19.8234 33.7418 23.2967 33.7418 27.5749C33.7418 30.5638 32.0763 33.1575 29.6331 34.4545V39.5004C29.6331 40.4917 28.8481 41.2893 27.8723 41.2893H22.0027C21.0268 41.2893 20.2418 40.4917 20.2418 39.5004V34.4545C17.7986 33.1575 16.1331 30.5638 16.1331 27.5749C16.1331 23.2967 19.5522 19.8234 23.7636 19.8234H26.1114ZM18.481 27.5749C18.481 29.1626 19.1633 30.5936 20.2418 31.5775V23.5725C19.1633 24.5563 18.481 25.9874 18.481 27.5749ZM27.2853 38.9042V22.3427C26.9111 22.2532 26.5149 22.2085 26.1114 22.2085H23.7636C23.3601 22.2085 22.9639 22.2532 22.5897 22.3427V38.9042H27.2853ZM31.394 27.5749C31.394 25.9874 30.7117 24.5563 29.6331 23.5725V31.5775C30.7117 30.5936 31.394 29.1626 31.394 27.5749Z" fill="black"/>
</g>
<defs>
<clipPath id="clip0_3_51">
<rect width="48" height="48" fill="white" transform="translate(0.9375 0.59375)"/>
</clipPath>
</defs>
</svg>
