<svg width="48" height="49" viewBox="0 0 48 49" fill="none" xmlns="http://www.w3.org/2000/svg">
<path d="M12.913 36.0554C13.4674 36.0554 14.0217 35.5846 14.0217 34.9792C14.0217 34.4412 13.4674 33.9032 12.913 33.9032C12.2894 33.9032 11.8043 34.4412 11.8043 34.9792C11.8043 35.5846 12.2894 36.0554 12.913 36.0554ZM39.5217 28.5227H28.9198L36.4035 21.3264C37.2351 20.452 37.2351 19.107 36.4035 18.2999L30.0979 12.1797C29.682 11.7761 29.1278 11.5743 28.5734 11.5743C28.0191 11.5743 27.3954 11.7761 26.9796 12.1797L19.5652 19.4432V9.15315C19.5652 8.00981 18.5258 7.00098 17.3478 7.00098H8.47826C7.23098 7.00098 6.26086 8.00981 6.26086 9.15315V34.9792C6.26086 38.5438 9.24049 41.4358 12.913 41.4358H39.5217C40.6997 41.4358 41.7391 40.4942 41.7391 39.2836V30.6749C41.7391 29.5316 40.6997 28.5227 39.5217 28.5227ZM17.3478 34.9792C17.3478 37.4004 15.3383 39.2836 12.913 39.2836C10.4185 39.2836 8.47826 37.4004 8.47826 34.9792V26.3705H17.3478V34.9792ZM17.3478 24.2184H8.47826V17.7618H17.3478V24.2184ZM17.3478 15.6097H8.47826V9.15315H17.3478V15.6097ZM19.5652 22.4697L28.5734 13.7265L34.8098 19.7795L19.5652 34.6429V22.4697ZM39.5217 39.2836H17.8328L26.7024 30.6749H39.5217V39.2836Z" fill="black"/>
</svg>
