<svg width="49" height="49" viewBox="0 0 49 49" fill="none" xmlns="http://www.w3.org/2000/svg">
<path d="M34.8301 21.7322C29.4677 21.7322 25.1779 26.1039 25.1779 31.417C25.1779 36.7974 29.4677 41.1018 34.8301 41.1018C40.1254 41.1018 44.4822 36.7974 44.4822 31.417C44.4822 26.1039 40.1254 21.7322 34.8301 21.7322ZM34.8301 38.9496C30.6743 38.9496 27.3229 35.5868 27.3229 31.417C27.3229 27.3144 30.6743 23.8844 34.8301 23.8844C38.9188 23.8844 42.3373 27.3144 42.3373 31.417C42.3373 35.5868 38.9188 38.9496 34.8301 38.9496ZM38.0474 30.3409H35.9025V27.1127C35.9025 26.5746 35.3663 26.0366 34.8301 26.0366C34.2268 26.0366 33.7576 26.5746 33.7576 27.1127V31.417C33.7576 32.0223 34.2268 32.4931 34.8301 32.4931H38.0474C38.5837 32.4931 39.1199 32.0223 39.1199 31.417C39.1199 30.8789 38.5837 30.3409 38.0474 30.3409ZM25.9822 39.3531C25.7811 39.0841 25.513 38.9496 25.2449 38.9496H10.1634C8.95687 38.9496 8.01847 38.0081 8.01847 36.7974V19.58H34.8301C35.3663 19.58 35.9025 19.1092 35.9025 18.504V15.2757C35.9025 12.9217 33.9586 10.9713 31.6127 10.9713H29.4677V7.74308C29.4677 7.20504 28.9315 6.66699 28.3952 6.66699C27.792 6.66699 27.3229 7.20504 27.3229 7.74308V10.9713H14.4532V7.74308C14.4532 7.20504 13.917 6.66699 13.3807 6.66699C12.7775 6.66699 12.3084 7.20504 12.3084 7.74308V10.9713H10.1634C7.75035 10.9713 5.87354 12.9217 5.87354 15.2757V36.7974C5.87354 39.2186 7.75035 41.1018 10.1634 41.1018H25.2449C26.1833 41.1018 26.6525 40.0257 26.0493 39.3531H25.9822ZM8.01847 15.2757C8.01847 14.1323 8.95687 13.1235 10.1634 13.1235H31.6127C32.7522 13.1235 33.7576 14.1323 33.7576 15.2757V17.4279H8.01847V15.2757Z" fill="black"/>
</svg>
