<svg width="49" height="49" viewBox="0 0 49 49" fill="none" xmlns="http://www.w3.org/2000/svg">
<g clip-path="url(#clip0_3_543)">
<path d="M6.13246 12.1036C6.13246 9.79825 7.97183 7.92969 10.2412 7.92969C12.5083 7.92969 14.3499 9.79825 14.3499 12.1036C14.3499 14.4067 12.5083 16.2775 10.2412 16.2775C7.97183 16.2775 6.13246 14.4067 6.13246 12.1036ZM10.2412 13.8924C11.217 13.8924 12.002 13.0949 12.002 12.1036C12.002 11.1161 11.217 10.3148 10.2412 10.3148C9.26534 10.3148 8.48029 11.1161 8.48029 12.1036C8.48029 13.0949 9.26534 13.8924 10.2412 13.8924ZM0.849854 26.4142C0.849854 22.1359 4.26594 18.6626 8.48029 18.6626H12.002C12.9779 18.6626 13.917 18.849 14.7754 19.1918C15.3844 19.4303 15.6779 20.1235 15.4431 20.7346C15.2083 21.3533 14.5259 21.6514 13.9243 21.4129C13.3301 21.1745 12.6844 21.0477 12.002 21.0477H8.48029C8.28219 21.0477 8.08629 21.0552 7.89333 21.0775V36.5508H12.589V34.1658C12.589 33.5098 13.1172 32.9732 13.7629 32.9732C14.4085 32.9732 14.9368 33.5098 14.9368 34.1658V37.1471C14.9368 38.1384 14.1518 38.9359 13.1759 38.9359H7.30638C6.33423 38.9359 5.54551 38.1384 5.54551 37.1471V33.5694C2.78974 32.4067 0.849854 29.6414 0.849854 26.4142ZM5.54551 30.8788V21.9495C4.12947 22.911 3.19768 24.5508 3.19768 26.4142C3.19768 28.2701 4.12874 29.8501 5.54551 30.8788ZM38.4151 16.2775C36.1479 16.2775 34.3064 14.4067 34.3064 12.1036C34.3064 9.79825 36.1479 7.92969 38.4151 7.92969C40.6822 7.92969 42.5238 9.79825 42.5238 12.1036C42.5238 14.4067 40.6822 16.2775 38.4151 16.2775ZM40.1759 12.1036C40.1759 11.1161 39.3909 10.3148 38.4151 10.3148C37.4392 10.3148 36.6542 11.1161 36.6542 12.1036C36.6542 13.0949 37.4392 13.8924 38.4151 13.8924C39.3909 13.8924 40.1759 13.0949 40.1759 12.1036ZM43.1107 33.5694V37.1471C43.1107 38.1384 42.3257 38.9359 41.3499 38.9359H35.4803C34.5044 38.9359 33.7194 38.1384 33.7194 37.1471V34.1658C33.7194 33.5098 34.2476 32.9732 34.8933 32.9732C35.5389 32.9732 36.0672 33.5098 36.0672 34.1658V36.5508H40.7629V21.0775C40.5721 21.0552 40.374 21.0477 40.1759 21.0477H36.6542C35.9719 21.0477 35.3262 21.1745 34.7319 21.4129C34.1302 21.6514 33.4479 21.3533 33.2131 20.7346C32.9783 20.1235 33.2131 19.4303 33.8808 19.1918C34.7392 18.849 35.6783 18.5955 36.6542 18.5955H40.1759C44.3873 18.5955 47.8064 22.1359 47.8064 26.3471C47.8064 29.6414 45.8694 32.4067 43.1107 33.5694ZM45.4585 26.4142C45.4585 24.5508 44.5267 22.911 43.1107 21.9495V30.8788C44.5267 29.8501 45.4585 28.2701 45.4585 26.4142ZM29.0238 12.6998C29.0238 15.331 26.918 17.4701 24.3281 17.4701C21.7382 17.4701 19.6325 15.331 19.6325 12.6998C19.6325 10.0651 21.7382 7.92969 24.3281 7.92969C26.918 7.92969 29.0238 10.0651 29.0238 12.6998ZM24.3281 10.3148C23.0295 10.3148 21.9803 11.3829 21.9803 12.6998C21.9803 14.0191 23.0295 15.0849 24.3281 15.0849C25.6267 15.0849 26.6759 14.0191 26.6759 12.6998C26.6759 11.3829 25.6267 10.3148 24.3281 10.3148ZM25.502 19.8552C29.7134 19.8552 33.1325 23.3284 33.1325 27.6067C33.1325 30.5955 31.467 33.1893 29.0238 34.4862V39.5322C29.0238 40.5235 28.2388 41.321 27.2629 41.321H21.3933C20.4175 41.321 19.6325 40.5235 19.6325 39.5322V34.4862C17.1893 33.1893 15.5238 30.5955 15.5238 27.6067C15.5238 23.3284 18.9428 19.8552 23.1542 19.8552H25.502ZM17.8716 27.6067C17.8716 29.1943 18.5539 30.6253 19.6325 31.6092V23.6042C18.5539 24.5881 17.8716 26.0191 17.8716 27.6067ZM26.6759 38.9359V22.3745C26.3017 22.2849 25.9055 22.2403 25.502 22.2403H23.1542C22.7507 22.2403 22.3545 22.2849 21.9803 22.3745V38.9359H26.6759ZM30.7846 27.6067C30.7846 26.0191 30.1023 24.5881 29.0238 23.6042V31.6092C30.1023 30.6253 30.7846 29.1943 30.7846 27.6067Z" fill="black"/>
</g>
<defs>
<clipPath id="clip0_3_543">
<rect width="48" height="48" fill="white" transform="translate(0.328125 0.625)"/>
</clipPath>
</defs>
</svg>
