<svg width="49" height="49" viewBox="0 0 49 49" fill="none" xmlns="http://www.w3.org/2000/svg">
<path d="M22.6504 7.14545C23.3489 5.63294 25.3484 5.6815 26.0127 7.15426L27.3754 10.1008L30.3953 10.5674C31.9018 10.8176 32.5524 12.8155 31.4429 14.0055L31.4293 14.0202L29.2448 16.2799L29.7652 19.5083C29.998 21.1297 28.4299 22.3843 27.0399 21.6359L27.0193 21.6213L24.3418 20.1172L21.6163 21.6579C20.2263 22.4063 18.658 21.1517 18.8909 19.5376L18.8977 19.5156L19.4113 16.2359L17.2132 14.0055C16.1038 12.8155 16.7544 10.8176 18.2609 10.5674L18.2747 10.5659L21.2808 10.1008L22.6504 7.14838V7.14545ZM22.7394 12.2484L19.1922 12.7957L21.767 15.4802L21.1576 19.2661L24.3418 17.4613L27.4986 19.2442L26.8892 15.4509L29.4571 12.7957L25.9168 12.2484L24.2664 8.80287L22.7394 12.2484ZM15.5629 33.0303V40.0738C15.5629 42.0181 14.0906 43.5955 12.2759 43.5955H5.702C3.88664 43.5955 2.41504 42.0181 2.41504 40.0738V33.0303C2.41504 31.086 3.88664 29.5085 5.702 29.5085H12.2759C14.0906 29.5085 15.5629 31.086 15.5629 33.0303ZM4.60634 40.0738C4.60634 40.7194 5.09664 41.2477 5.702 41.2477H12.2759C12.8785 41.2477 13.3716 40.7194 13.3716 40.0738V33.0303C13.3716 32.3846 12.8785 31.8564 12.2759 31.8564H5.702C5.09664 31.8564 4.60634 32.3846 4.60634 33.0303V40.0738ZM30.902 40.0738C30.902 42.0181 29.4298 43.5955 27.615 43.5955H21.0411C19.2264 43.5955 17.7542 42.0181 17.7542 40.0738V28.3346C17.7542 26.3903 19.2264 24.8129 21.0411 24.8129H27.615C29.4298 24.8129 30.902 26.3903 30.902 28.3346V40.0738ZM19.9455 40.0738C19.9455 40.7194 20.4385 41.2477 21.0411 41.2477H27.615C28.2176 41.2477 28.7107 40.7194 28.7107 40.0738V28.3346C28.7107 27.6889 28.2176 27.1607 27.615 27.1607H21.0411C20.4385 27.1607 19.9455 27.6889 19.9455 28.3346V40.0738ZM42.9542 34.2042C44.7689 34.2042 46.2411 35.7816 46.2411 37.7259V40.0738C46.2411 42.0181 44.7689 43.5955 42.9542 43.5955H36.3803C34.5655 43.5955 33.0933 42.0181 33.0933 40.0738V37.7259C33.0933 35.7816 34.5655 34.2042 36.3803 34.2042H42.9542ZM35.2846 40.0738C35.2846 40.7194 35.7776 41.2477 36.3803 41.2477H42.9542C43.5568 41.2477 44.0498 40.7194 44.0498 40.0738V37.7259C44.0498 37.0802 43.5568 36.552 42.9542 36.552H36.3803C35.7776 36.552 35.2846 37.0802 35.2846 37.7259V40.0738Z" fill="black"/>
</svg>
