<svg width="49" height="49" viewBox="0 0 49 49" fill="none" xmlns="http://www.w3.org/2000/svg">
<path d="M39.3427 7.52344H9.31366C6.90061 7.52344 5.0238 9.47384 5.0238 11.8278V31.1974C5.0238 33.6185 6.90061 35.5017 9.31366 35.5017H19.301L18.0274 39.806H14.676C14.0727 39.806 13.6035 40.3441 13.6035 40.8822C13.6035 41.4874 14.0727 41.9582 14.676 41.9582H33.9803C34.5166 41.9582 35.0528 41.4874 35.0528 40.8822C35.0528 40.3441 34.5166 39.806 33.9803 39.806H30.5619L29.2883 35.5017H39.3427C41.6887 35.5017 43.6325 33.6185 43.6325 31.1974V11.8278C43.6325 9.47384 41.6887 7.52344 39.3427 7.52344ZM20.2394 39.806L21.5799 35.5017H27.0093L28.3499 39.806H20.2394ZM41.4875 31.1974C41.4875 32.408 40.4821 33.3495 39.3427 33.3495H9.31366C8.10714 33.3495 7.16874 32.408 7.16874 31.1974V11.8278C7.16874 10.6844 8.10714 9.67561 9.31366 9.67561H39.3427C40.4821 9.67561 41.4875 10.6844 41.4875 11.8278V31.1974ZM20.7756 16.4684C20.3735 16.0648 19.6362 16.0648 19.234 16.4684L14.944 20.7728C14.5419 21.1763 14.5419 21.9161 14.944 22.3196L19.234 26.624C19.4351 26.8257 19.7031 26.893 20.0383 26.893C20.3064 26.893 20.5746 26.8257 20.7756 26.624C21.1778 26.2205 21.1778 25.4807 20.7756 25.0771L17.2231 21.5126L20.7756 18.0153C21.1778 17.6118 21.1778 16.872 20.7756 16.4684ZM29.3553 16.4684C28.9532 16.0648 28.2158 16.0648 27.8137 16.4684C27.4115 16.872 27.4115 17.6118 27.8137 18.0153L31.3662 21.5126L27.8137 25.0771C27.4115 25.4807 27.4115 26.2205 27.8137 26.624C28.0148 26.8257 28.2828 26.893 28.618 26.893C28.8862 26.893 29.1542 26.8257 29.3553 26.624L33.6452 22.3196C34.0473 21.9161 34.0473 21.1763 33.6452 20.7728L29.3553 16.4684Z" fill="black"/>
</svg>
