<svg width="49" height="49" viewBox="0 0 49 49" fill="none" xmlns="http://www.w3.org/2000/svg">
<g opacity="0.75">
<path d="M13.8975 36.4309C14.4519 36.4309 15.0062 35.96 15.0062 35.3547C15.0062 34.8167 14.4519 34.2787 13.8975 34.2787C13.2738 34.2787 12.7888 34.8167 12.7888 35.3547C12.7888 35.96 13.2738 36.4309 13.8975 36.4309ZM40.5062 28.8982H29.9043L37.388 21.7019C38.2196 20.8275 38.2196 19.4825 37.388 18.6754L31.0824 12.5551C30.6665 12.1516 30.1122 11.9498 29.5578 11.9498C29.0036 11.9498 28.3799 12.1516 27.9641 12.5551L20.5497 19.8187V9.52864C20.5497 8.3853 19.5103 7.37646 18.3323 7.37646H9.46275C8.21547 7.37646 7.24536 8.3853 7.24536 9.52864V35.3547C7.24536 38.9192 10.225 41.8112 13.8975 41.8112H40.5062C41.6842 41.8112 42.7236 40.8697 42.7236 39.6591V31.0504C42.7236 29.907 41.6842 28.8982 40.5062 28.8982ZM18.3323 35.3547C18.3323 37.7759 16.3228 39.6591 13.8975 39.6591C11.403 39.6591 9.46275 37.7759 9.46275 35.3547V26.746H18.3323V35.3547ZM18.3323 24.5939H9.46275V18.1373H18.3323V24.5939ZM18.3323 15.9852H9.46275V9.52864H18.3323V15.9852ZM20.5497 22.8452L29.5578 14.102L35.7943 20.155L20.5497 35.0184V22.8452ZM40.5062 39.6591H18.8173L27.6869 31.0504H40.5062V39.6591Z" fill="black"/>
</g>
</svg>
