<svg width="49" height="49" viewBox="0 0 49 49" fill="none" xmlns="http://www.w3.org/2000/svg">
<g opacity="0.75">
<path d="M43.1557 11.017C40.7462 9.9362 38.3369 9.46338 35.9275 9.46338C28.2862 9.46338 20.6449 13.7188 13.0035 13.7188C11.076 13.7188 9.21731 13.4486 7.28977 12.7732C7.08325 12.7056 6.87673 12.6381 6.6702 12.6381C5.56876 12.6381 4.67383 13.5838 4.67383 14.7995V36.2794C4.67383 37.0899 5.08687 37.9005 5.77528 38.2382C8.18469 39.319 10.5941 39.7242 13.0035 39.7242C20.6449 39.7242 28.2862 35.5364 35.9275 35.5364C37.855 35.5364 39.7137 35.8065 41.6412 36.4821C41.8477 36.5496 42.0542 36.5496 42.2608 36.5496C43.3622 36.5496 44.326 35.6715 44.326 34.4556V12.9758C44.326 12.1653 43.8441 11.3547 43.1557 11.017ZM6.87673 14.9346C8.25354 15.4074 9.69919 15.6777 11.2137 15.8127C11.0071 17.9742 9.14846 19.663 6.87673 19.663V14.9346ZM6.87673 36.3469C6.87673 36.2794 6.87673 36.2794 6.87673 36.2794V33.7126C9.07962 33.7126 10.8695 35.4012 11.2137 37.4952C9.63035 37.2925 8.25354 36.9549 6.87673 36.3469ZM42.0542 34.3205C40.6775 33.8477 39.2318 33.645 37.7173 33.4424C37.855 31.2133 39.7825 29.3896 42.0542 29.3896V34.3205ZM42.0542 27.2282C38.5434 27.2282 35.721 29.9976 35.5145 33.4424C31.5217 33.5099 27.6666 34.5231 23.8803 35.6039C20.2318 36.5496 16.7898 37.4952 13.4166 37.5628C13.1412 34.253 10.3188 31.5511 6.80789 31.5511L6.87673 21.8244C10.3188 21.8244 13.1412 19.1901 13.4166 15.8127C17.4094 15.8127 21.2644 14.732 25.0507 13.6513C28.6992 12.7056 32.1412 11.76 35.5145 11.6925C35.5832 15.2048 38.4746 18.0418 42.1231 18.0418L42.0542 27.2282ZM42.0542 15.8804C39.6449 15.8804 37.7173 14.0566 37.6485 11.76C39.163 11.8951 40.6086 12.3003 41.9854 12.9082C42.0542 12.9758 42.1231 12.9758 42.1231 12.9758L42.0542 15.8804ZM24.4999 17.0286C20.8514 17.0286 17.8913 20.4734 17.8913 24.5938C17.8913 28.7817 20.8514 32.159 24.4999 32.159C28.0797 32.159 31.1086 28.7817 31.1086 24.5938C31.1086 20.4734 28.0797 17.0286 24.4999 17.0286ZM24.4999 29.9976C22.0217 29.9976 20.0941 27.6334 20.0941 24.5938C20.0941 21.6218 22.0217 19.1901 24.4999 19.1901C26.9093 19.1901 28.8368 21.6218 28.8368 24.5938C28.8368 27.6334 26.9093 29.9976 24.4999 29.9976Z" fill="black"/>
</g>
</svg>
