<svg width="49" height="49" viewBox="0 0 49 49" fill="none" xmlns="http://www.w3.org/2000/svg">
<path d="M43.312 10.6415C40.9025 9.56071 38.4931 9.08789 36.0837 9.08789C28.4424 9.08789 20.8011 13.3433 13.1597 13.3433C11.2322 13.3433 9.37356 13.0731 7.44602 12.3977C7.2395 12.3301 7.03298 12.2626 6.82645 12.2626C5.72501 12.2626 4.83008 13.2083 4.83008 14.424V35.9039C4.83008 36.7144 5.24312 37.525 5.93153 37.8627C8.34094 38.9435 10.7504 39.3488 13.1597 39.3488C20.8011 39.3488 28.4424 35.1609 36.0837 35.1609C38.0112 35.1609 39.87 35.431 41.7975 36.1066C42.004 36.1741 42.2105 36.1741 42.417 36.1741C43.5185 36.1741 44.4823 35.296 44.4823 34.0801V12.6003C44.4823 11.7898 44.0004 10.9792 43.312 10.6415ZM7.03298 14.5592C8.40979 15.032 9.85544 15.3022 11.37 15.4372C11.1634 17.5987 9.30471 19.2875 7.03298 19.2875V14.5592ZM7.03298 35.9714C7.03298 35.9039 7.03298 35.9039 7.03298 35.9039V33.3371C9.23587 33.3371 11.0257 35.0257 11.37 37.1197C9.7866 36.917 8.40979 36.5794 7.03298 35.9714ZM42.2105 33.945C40.8337 33.4722 39.3881 33.2696 37.8736 33.0669C38.0112 30.8378 39.9387 29.0142 42.2105 29.0142V33.945ZM42.2105 26.8527C38.6996 26.8527 35.8772 29.6221 35.6707 33.0669C31.6779 33.1344 27.8228 34.1476 24.0365 35.2284C20.388 36.1741 16.946 37.1197 13.5729 37.1873C13.2975 33.8775 10.475 31.1756 6.96414 31.1756L7.03298 21.4489C10.475 21.4489 13.2975 18.8146 13.5729 15.4372C17.5656 15.4372 21.4207 14.3565 25.2069 13.2758C28.8554 12.3301 32.2975 11.3845 35.6707 11.317C35.7395 14.8293 38.6308 17.6663 42.2794 17.6663L42.2105 26.8527ZM42.2105 15.5049C39.8011 15.5049 37.8736 13.6811 37.8047 11.3845C39.3192 11.5196 40.7649 11.9248 42.1416 12.5327C42.2105 12.6003 42.2794 12.6003 42.2794 12.6003L42.2105 15.5049ZM24.6562 16.6531C21.0076 16.6531 18.0475 20.0979 18.0475 24.2183C18.0475 28.4062 21.0076 31.7835 24.6562 31.7835C28.2359 31.7835 31.2648 28.4062 31.2648 24.2183C31.2648 20.0979 28.2359 16.6531 24.6562 16.6531ZM24.6562 29.6221C22.1779 29.6221 20.2504 27.2579 20.2504 24.2183C20.2504 21.2463 22.1779 18.8146 24.6562 18.8146C27.0656 18.8146 28.9931 21.2463 28.9931 24.2183C28.9931 27.2579 27.0656 29.6221 24.6562 29.6221Z" fill="black"/>
</svg>
