<svg width="48" height="49" viewBox="0 0 48 49" fill="none" xmlns="http://www.w3.org/2000/svg">
<path d="M28.8172 36.0846H20.1581C19.5444 36.0846 19.0672 36.5561 19.0672 37.1624V38.712C19.0672 39.1161 19.1354 39.5203 19.4081 39.8572L20.5672 41.6088C20.9081 42.1477 21.7262 42.552 22.4081 42.552H26.5672C27.249 42.552 28.0672 42.1477 28.4081 41.6088L29.5672 39.8572C29.7718 39.5878 29.9081 39.0488 29.9081 38.712V37.1624C29.9081 36.6235 29.4308 36.0846 28.8172 36.0846ZM27.7262 38.712L26.6354 40.3288C26.6354 40.3961 26.5672 40.3961 26.5672 40.3961L22.4763 40.4636C22.4763 40.3961 22.4081 40.3961 22.4081 40.3961L21.249 38.712V38.2403H27.7945V38.6446C27.7263 38.6446 27.7262 38.712 27.7262 38.712ZM32.9081 11.5622C30.6581 9.33907 27.5899 7.9917 24.4536 8.12643C17.8399 8.12643 12.5217 13.4486 12.5217 20.0507C12.5217 22.9476 13.5444 25.7097 15.4536 27.8655C16.3399 28.9434 17.9081 31.234 18.4536 33.053C18.5217 33.5919 19.0672 33.9961 19.6127 33.9288C20.2262 33.8614 20.6354 33.3224 20.6354 32.7834L20.5672 32.514C19.8853 30.1561 18.1127 27.5961 17.0899 26.5182C15.5217 24.6992 14.7035 22.4087 14.7035 20.0507C14.7035 14.5938 18.999 10.2822 24.4536 10.2822H24.5217C27.1127 10.2822 29.5672 11.2254 31.4081 13.1117C33.249 14.9307 34.3399 17.4233 34.3399 20.0507C34.3399 22.4087 33.4536 24.6992 31.8853 26.5182C30.8626 27.5961 29.0899 30.1561 28.4081 32.514L28.3399 32.7834C28.2718 33.3224 28.6808 33.9288 29.2945 33.9961C29.3626 33.9961 29.4308 33.9961 29.4308 33.9961C29.9763 33.9961 30.4536 33.6592 30.5217 33.1203C31.0672 31.234 32.6354 28.9434 33.5217 27.9329C35.4308 25.7097 36.5217 22.9476 36.5217 20.0507C36.5217 16.817 35.2262 13.7855 32.9081 11.5622ZM25.6127 13.5159C25.6127 12.9097 25.0672 12.438 24.5217 12.438C20.2945 12.438 16.8853 15.8065 16.8853 19.916C16.8853 20.5224 17.3626 20.9939 17.9763 20.9939C18.5217 20.9939 19.0672 20.5224 19.0672 19.916C19.0672 16.9518 21.4536 14.5938 24.5217 14.5938C25.0672 14.5938 25.6127 14.0549 25.6127 13.5159Z" fill="black"/>
</svg>
