<svg width="49" height="49" viewBox="0 0 49 49" fill="none" xmlns="http://www.w3.org/2000/svg">
<g opacity="0.75">
<path d="M39.7644 7.89795H9.73541C7.32237 7.89795 5.44556 9.84836 5.44556 12.2023V31.5719C5.44556 33.993 7.32237 35.8762 9.73541 35.8762H19.7227L18.4492 40.1806H15.0977C14.4945 40.1806 14.0252 40.7186 14.0252 41.2567C14.0252 41.8619 14.4945 42.3327 15.0977 42.3327H34.4021C34.9383 42.3327 35.4746 41.8619 35.4746 41.2567C35.4746 40.7186 34.9383 40.1806 34.4021 40.1806H30.9836L29.7101 35.8762H39.7644C42.1105 35.8762 44.0543 33.993 44.0543 31.5719V12.2023C44.0543 9.84836 42.1105 7.89795 39.7644 7.89795ZM20.6611 40.1806L22.0017 35.8762H27.431L28.7717 40.1806H20.6611ZM41.9093 31.5719C41.9093 32.7825 40.9039 33.724 39.7644 33.724H9.73541C8.52889 33.724 7.59049 32.7825 7.59049 31.5719V12.2023C7.59049 11.059 8.52889 10.0501 9.73541 10.0501H39.7644C40.9039 10.0501 41.9093 11.059 41.9093 12.2023V31.5719ZM21.1974 16.843C20.7952 16.4393 20.0579 16.4393 19.6557 16.843L15.3658 21.1473C14.9636 21.5508 14.9636 22.2906 15.3658 22.6942L19.6557 26.9985C19.8568 27.2002 20.1249 27.2675 20.4601 27.2675C20.7281 27.2675 20.9963 27.2002 21.1974 26.9985C21.5995 26.595 21.5995 25.8552 21.1974 25.4517L17.6449 21.8871L21.1974 18.3898C21.5995 17.9863 21.5995 17.2465 21.1974 16.843ZM29.7771 16.843C29.3749 16.4393 28.6376 16.4393 28.2354 16.843C27.8333 17.2465 27.8333 17.9863 28.2354 18.3898L31.788 21.8871L28.2354 25.4517C27.8333 25.8552 27.8333 26.595 28.2354 26.9985C28.4365 27.2002 28.7046 27.2675 29.0397 27.2675C29.3079 27.2675 29.576 27.2002 29.7771 26.9985L34.0669 22.6942C34.4691 22.2906 34.4691 21.5508 34.0669 21.1473L29.7771 16.843Z" fill="black"/>
</g>
</svg>
