<svg width="48" height="48" viewBox="0 0 48 48" fill="none" xmlns="http://www.w3.org/2000/svg">
<path d="M36.913 8.86914H11.0869C8.66575 8.86914 6.78259 10.828 6.78259 13.1922V34.807C6.78259 37.2387 8.66575 39.13 11.0869 39.13H36.913C39.267 39.13 41.2174 37.2387 41.2174 34.807V13.1922C41.2174 10.828 39.267 8.86914 36.913 8.86914ZM35.9042 11.0306L29.4477 17.5151H22.2513L28.7078 11.0306H35.9042ZM25.6813 11.0306L19.2248 17.5151H12.0285L18.485 11.0306H25.6813ZM8.93477 13.1922C8.93477 12.0438 9.87634 11.0306 11.0869 11.0306H15.4586L9.00202 17.5151H8.93477V13.1922ZM39.0652 34.807C39.0652 36.0228 38.0564 36.9685 36.913 36.9685H11.0869C9.87634 36.9685 8.93477 36.0228 8.93477 34.807V19.6765H39.0652V34.807ZM39.0652 17.5151H32.4742L38.3254 11.6385C38.7962 12.0438 39.0652 12.5842 39.0652 13.1922V17.5151ZM20.57 34.6043C20.839 34.7395 21.1753 34.807 21.4443 34.807C21.7805 34.807 22.1168 34.7395 22.4531 34.5368L29.5822 29.8761C30.1202 29.5384 30.4565 28.998 30.4565 28.3226C30.4565 27.6471 30.1202 27.1067 29.5822 26.769L22.4531 22.1758C21.8478 21.7705 21.1753 21.7705 20.57 22.1083C20.0319 22.446 19.6956 23.0539 19.6956 23.6618V32.9833C19.6956 33.6587 20.0319 34.2667 20.57 34.6043ZM21.8478 24.3373L27.968 28.3226L21.8478 32.3754V24.3373Z" fill="black"/>
</svg>
