<svg width="49" height="49" viewBox="0 0 49 49" fill="none" xmlns="http://www.w3.org/2000/svg">
<mask id="mask0_3_521" style="mask-type:luminance" maskUnits="userSpaceOnUse" x="4" y="4" width="41" height="40">
<path d="M44.1542 4.20508H4.50208V43.8573H44.1542V4.20508Z" fill="white"/>
</mask>
<g mask="url(#mask0_3_521)">
<path d="M33.7843 5.49996C35.7746 3.46693 39.1977 4.82998 39.1977 7.63049V37.9558C39.1977 40.7516 35.7746 42.1147 33.7843 40.0857L32.003 38.134C28.6496 34.5947 24.181 32.3411 19.3716 31.7293V39.5203C19.3716 41.9133 17.4277 43.8572 15.0347 43.8572H13.7955C11.4002 43.8572 9.4586 41.9133 9.4586 39.5203V31.4659C6.7209 31.4659 4.50208 29.2432 4.50208 26.4397V19.0049C4.50208 16.3408 6.7209 14.0484 9.4586 14.0484H15.6233L17.8847 13.9942C23.2517 13.6922 28.3088 11.3517 32.003 7.44695L33.7843 5.49996ZM36.7195 7.63049C36.7195 7.00086 36.038 6.79794 35.6507 7.20454L33.8075 9.15152C30.5625 12.5692 26.3959 14.9236 21.8499 15.9381V29.646C26.3959 30.6605 30.5625 32.9452 33.8075 36.4302L35.6507 38.3818C36.038 38.7846 36.7195 38.5135 36.7195 37.9558V7.63049ZM19.3716 29.2278V16.3563C18.9224 16.4028 18.4733 16.4415 18.0164 16.4647L15.6852 16.5267H9.4586C8.09013 16.5267 6.98034 17.7038 6.98034 19.0049V26.4397C6.98034 27.8802 8.09013 28.918 9.4586 28.918H15.6852L18.0164 29.1194C18.4733 29.0729 18.9224 29.1813 19.3716 29.2278ZM11.9369 31.4659V39.5203C11.9369 40.5503 12.7655 41.379 13.7955 41.379H15.0347C16.0648 41.379 16.8934 40.5503 16.8934 39.5203V31.5356L15.6233 31.4659H11.9369ZM42.9151 19.0049C43.5966 19.0049 44.1542 19.6323 44.1542 20.244V25.2006C44.1542 25.9518 43.5966 26.4397 42.9151 26.4397C42.2336 26.4397 41.676 25.9518 41.676 25.2006V20.244C41.676 19.6323 42.2336 19.0049 42.9151 19.0049Z" fill="black"/>
</g>
</svg>
