<svg width="49" height="49" viewBox="0 0 49 49" fill="none" xmlns="http://www.w3.org/2000/svg">
<path d="M8.18823 34.9464C8.18823 36.955 9.81712 38.5846 11.8265 38.5846H43.3584C44.0254 38.5846 44.5712 39.1304 44.5712 39.7974C44.5712 40.4644 44.0254 41.0102 43.3584 41.0102H11.8265C8.47778 41.0102 5.7627 38.2966 5.7627 34.9464V8.2655C5.7627 7.59545 6.30571 7.05273 6.97546 7.05273C7.64551 7.05273 8.18823 7.59545 8.18823 8.2655V34.9464ZM31.2308 14.3293H40.9329C41.5999 14.3293 42.1457 14.8751 42.1457 15.5421V25.2442C42.1457 25.9112 41.5999 26.457 40.9329 26.457C40.2659 26.457 39.7201 25.9112 39.7201 25.2442V18.4678L30.8746 27.3135C30.4046 27.791 29.6315 27.791 29.1615 27.3135L22.6732 20.8934L15.1086 28.5263C14.6386 29.0037 13.8655 29.0037 13.3955 28.5263C12.921 28.0563 12.921 27.2832 13.3955 26.8132L21.8849 18.3238C22.3549 17.8463 23.128 17.8463 23.598 18.3238L30.018 24.744L38.0072 16.7549H31.2308C30.5638 16.7549 30.018 16.2091 30.018 15.5421C30.018 14.8751 30.5638 14.3293 31.2308 14.3293Z" fill="black"/>
</svg>
