<svg width="48" height="49" viewBox="0 0 48 49" fill="none" xmlns="http://www.w3.org/2000/svg">
<path d="M25.3789 17.5115H14.3479C13.5895 17.5115 12.969 16.891 12.969 16.1326C12.969 15.3742 13.5895 14.7537 14.3479 14.7537H25.3789C26.1373 14.7537 26.7578 15.3742 26.7578 16.1326C26.7578 16.891 26.1373 17.5115 25.3789 17.5115ZM33.6522 23.0271C34.4106 23.0271 35.0311 23.6475 35.0311 24.4059C35.0311 25.1643 34.4106 25.7848 33.6522 25.7848H14.3479C13.5895 25.7848 12.969 25.1643 12.969 24.4059C12.969 23.6475 13.5895 23.0271 14.3479 23.0271H33.6522ZM19.8634 34.0581H14.3479C13.5895 34.0581 12.969 33.4376 12.969 32.6792C12.969 31.9208 13.5895 31.3003 14.3479 31.3003H19.8634C20.6218 31.3003 21.2422 31.9208 21.2422 32.6792C21.2422 33.4376 20.6218 34.0581 19.8634 34.0581ZM37.7889 5.10156C40.831 5.10156 43.3044 7.57062 43.3044 10.6171V38.1947C43.3044 41.2369 40.831 43.7103 37.7889 43.7103H10.2112C7.16474 43.7103 4.69568 41.2369 4.69568 38.1947V10.6171C4.69568 7.57062 7.16474 5.10156 10.2112 5.10156H37.7889ZM37.7889 7.85933H10.2112C8.6884 7.85933 7.45345 9.09429 7.45345 10.6171V38.1947C7.45345 39.7201 8.6884 40.9525 10.2112 40.9525H37.7889C39.3142 40.9525 40.5466 39.7201 40.5466 38.1947V10.6171C40.5466 9.09429 39.3142 7.85933 37.7889 7.85933Z" fill="black"/>
</svg>
