<svg width="49" height="49" viewBox="0 0 49 49" fill="none" xmlns="http://www.w3.org/2000/svg">
<g opacity="0.75">
<path d="M37.696 22.7897C36.9381 23.5401 35.8086 24.1616 34.5201 24.6619C31.9354 25.6624 28.4487 26.2536 24.583 26.2536C20.8537 26.2536 17.3671 25.6624 14.7823 24.6619C13.4938 24.1616 12.3659 23.5401 11.5412 22.7897C10.7158 22.0317 10.0298 21.0539 10.0298 19.8866C10.0298 18.7194 10.7158 17.7415 11.5412 16.9835C12.3659 16.2332 13.4938 15.6116 14.7823 15.0431C17.3671 14.1109 20.8537 13.5195 24.583 13.5195C28.4487 13.5195 31.9354 14.1109 34.5201 15.0431C35.8086 15.6116 36.9381 16.2332 37.696 16.9835C38.5828 17.7415 39.2044 18.7194 39.2044 19.8866C39.2044 21.0539 38.5828 22.0317 37.696 22.7897ZM15.654 17.3702C14.5322 17.8097 13.706 18.2948 13.1754 18.7724C12.6524 19.2575 12.5235 19.6289 12.5235 19.8866C12.5235 20.1443 12.6524 20.5157 13.1754 21.0008C13.706 21.4101 14.5322 21.9634 15.654 22.4031C17.8976 23.2672 21.0811 23.8281 24.6512 23.8281C28.2213 23.8281 31.4048 23.2672 33.6484 22.4031C34.7702 21.9634 35.5964 21.4101 36.127 21.0008C36.65 20.5157 36.7789 20.1443 36.7789 19.8866C36.7789 19.6289 36.65 19.2575 36.127 18.7724C35.5964 18.2948 34.7702 17.8097 33.6484 17.3702C31.4048 16.5061 28.2213 15.9451 24.6512 15.9451C21.0811 15.9451 17.8976 16.5061 15.654 17.3702ZM5.24695 20.1898C5.24695 14.1639 13.9334 9.2749 24.6512 9.2749C35.369 9.2749 44.0555 14.1639 44.0555 20.1898V28.6792C44.0555 34.0381 35.369 38.3813 24.6512 38.3813C13.9334 38.3813 5.24695 34.0381 5.24695 28.6792V20.1898ZM37.1806 25.7913C40.3414 24.0175 41.6299 21.9408 41.6299 20.1898C41.6299 18.4388 40.3414 16.3621 37.1806 14.5883C34.0957 12.8525 29.669 11.6322 24.6512 11.6322C19.6334 11.6322 15.2067 12.8525 12.1195 14.5883C8.95801 16.3621 7.67248 18.4388 7.67248 20.1216C7.67248 21.9408 8.95801 24.0175 12.1195 25.7913C15.2067 27.5271 19.6334 28.6109 24.6512 28.6109C29.669 28.6109 34.0957 27.5271 37.1806 25.7913ZM18.5874 35.4403C20.1034 35.7056 21.733 35.8118 23.4384 35.933V31.0819C21.7557 30.9607 20.126 30.847 18.5874 30.5589V35.4403ZM16.1618 30.0056C14.8581 29.6494 13.6453 29.2174 12.5235 28.7095V33.6136C13.5999 34.1139 14.8202 34.5459 16.1618 34.9022V30.0056ZM7.67248 28.6792C7.67248 29.6569 8.31752 30.9455 10.098 32.2265V27.4057C9.17177 26.8221 8.35694 26.1703 7.67248 25.4805V28.6792ZM25.864 31.0819V35.933C27.5694 35.8118 29.1308 35.7056 30.715 35.4403V30.5589C29.1764 30.847 27.5467 30.9607 25.864 31.0819ZM41.6299 25.4805C40.8795 26.1703 40.1292 26.8221 39.2044 27.4057V32.2265C40.9856 30.9455 41.6299 29.6569 41.6299 28.6792V25.4805ZM33.1406 34.9022C34.4822 34.5459 35.7025 34.1139 36.7789 33.6136V28.7095C35.6647 29.2174 34.4443 29.6494 33.1406 30.0056V34.9022Z" fill="black"/>
</g>
</svg>
