<svg width="49" height="49" viewBox="0 0 49 49" fill="none" xmlns="http://www.w3.org/2000/svg">
<mask id="mask0_3_597" style="mask-type:luminance" maskUnits="userSpaceOnUse" x="4" y="5" width="41" height="40">
<path d="M44.1542 5.10156H4.50208V44.7537H44.1542V5.10156Z" fill="white"/>
</mask>
<g mask="url(#mask0_3_597)">
<path d="M40.6304 11.583L25.7609 5.38656C25.304 5.19357 24.8161 5.10156 24.3359 5.10156C23.8558 5.10156 23.3601 5.19357 22.9032 5.38718L8.0336 11.5836C6.64887 12.1545 5.74121 13.5122 5.74121 14.9449C5.74121 34.9491 20.4094 44.7537 24.2585 44.7537C28.1385 44.7537 42.9151 35.0962 42.9151 14.9449C42.9151 13.5122 42.009 12.1545 40.6304 11.583ZM40.4291 15.0379C40.4291 32.4863 27.5576 42.2755 24.3359 42.2755C21.0213 42.2058 8.21947 32.3779 8.21947 15.0146C8.21947 14.5112 8.51958 14.0659 8.97456 13.8723L23.8441 7.67663C23.997 7.61255 24.1624 7.57858 24.3288 7.57858C24.4892 7.57858 24.6505 7.61012 24.8025 7.67663L39.6721 13.8723C40.3826 14.1704 40.4291 14.8442 40.4291 15.0379ZM24.3282 16.8732C21.9366 16.8732 19.9913 18.8187 19.9913 21.2103C19.9913 23.168 21.304 24.8076 23.089 25.345V31.1233C23.089 31.8082 23.6432 32.3624 24.3282 32.3624C25.0131 32.3624 25.5673 31.8082 25.5673 31.1233V25.3459C27.3485 24.8115 28.6651 23.1696 28.6651 21.2103C28.6651 18.8171 26.7213 16.8732 24.3282 16.8732ZM24.3282 23.069C23.3043 23.069 22.4695 22.2341 22.4695 21.2103C22.4695 20.1864 23.3059 19.3515 24.3282 19.3515C25.3505 19.3515 26.1868 20.1864 26.1868 21.2103C26.1868 22.2341 25.3505 23.069 24.3282 23.069Z" fill="black"/>
</g>
</svg>
