<svg width="49" height="49" viewBox="0 0 49 49" fill="none" xmlns="http://www.w3.org/2000/svg">
<g opacity="0.75">
<path d="M8.50061 35.5089C8.50061 37.5175 10.1295 39.1471 12.1389 39.1471H43.6708C44.3378 39.1471 44.8836 39.6929 44.8836 40.3599C44.8836 41.0269 44.3378 41.5727 43.6708 41.5727H12.1389C8.79016 41.5727 6.07507 38.8591 6.07507 35.5089V8.828C6.07507 8.15795 6.61809 7.61523 7.28784 7.61523C7.95789 7.61523 8.50061 8.15795 8.50061 8.828V35.5089ZM31.5432 14.8918H41.2453C41.9123 14.8918 42.4581 15.4376 42.4581 16.1046V25.8067C42.4581 26.4737 41.9123 27.0195 41.2453 27.0195C40.5783 27.0195 40.0325 26.4737 40.0325 25.8067V19.0303L31.1869 27.876C30.7169 28.3535 29.9438 28.3535 29.4738 27.876L22.9856 21.4559L15.421 29.0888C14.951 29.5662 14.1779 29.5662 13.7079 29.0888C13.2334 28.6188 13.2334 27.8457 13.7079 27.3757L22.1973 18.8863C22.6672 18.4088 23.4403 18.4088 23.9103 18.8863L30.3304 25.3065L38.3195 17.3174H31.5432C30.8762 17.3174 30.3304 16.7716 30.3304 16.1046C30.3304 15.4376 30.8762 14.8918 31.5432 14.8918Z" fill="black"/>
</g>
</svg>
