<svg width="49" height="49" viewBox="0 0 49 49" fill="none" xmlns="http://www.w3.org/2000/svg">
<path d="M38.2117 22.8204C37.4538 23.5709 36.3244 24.1924 35.0359 24.6926C32.4511 25.6932 28.9645 26.2844 25.0987 26.2844C21.3694 26.2844 17.8828 25.6932 15.298 24.6926C14.0095 24.1924 12.8816 23.5709 12.0569 22.8204C11.2315 22.0624 10.5455 21.0847 10.5455 19.9173C10.5455 18.7501 11.2315 17.7723 12.0569 17.0143C12.8816 16.2639 14.0095 15.6424 15.298 15.0738C17.8828 14.1416 21.3694 13.5503 25.0987 13.5503C28.9645 13.5503 32.4511 14.1416 35.0359 15.0738C36.3244 15.6424 37.4538 16.2639 38.2117 17.0143C39.0986 17.7723 39.7201 18.7501 39.7201 19.9173C39.7201 21.0847 39.0986 22.0624 38.2117 22.8204ZM16.1697 17.4009C15.0479 17.8405 14.2217 18.3256 13.6912 18.8031C13.1682 19.2882 13.0393 19.6597 13.0393 19.9173C13.0393 20.1751 13.1682 20.5464 13.6912 21.0316C14.2217 21.4409 15.0479 21.9942 16.1697 22.4339C18.4134 23.298 21.5969 23.8589 25.167 23.8589C28.737 23.8589 31.9205 23.298 34.1642 22.4339C35.286 21.9942 36.1122 21.4409 36.6427 21.0316C37.1657 20.5464 37.2946 20.1751 37.2946 19.9173C37.2946 19.6597 37.1657 19.2882 36.6427 18.8031C36.1122 18.3256 35.286 17.8405 34.1642 17.4009C31.9205 16.5368 28.737 15.9758 25.167 15.9758C21.5969 15.9758 18.4134 16.5368 16.1697 17.4009ZM5.7627 20.2206C5.7627 14.1946 14.4492 9.30566 25.167 9.30566C35.8847 9.30566 44.5712 14.1946 44.5712 20.2206V28.7099C44.5712 34.0689 35.8847 38.412 25.167 38.412C14.4492 38.412 5.7627 34.0689 5.7627 28.7099V20.2206ZM37.6964 25.8221C40.8571 24.0483 42.1457 21.9715 42.1457 20.2206C42.1457 18.4696 40.8571 16.3928 37.6964 14.6191C34.6114 12.8833 30.1848 11.663 25.167 11.663C20.1491 11.663 15.7225 12.8833 12.6353 14.6191C9.47376 16.3928 8.18823 18.4696 8.18823 20.1523C8.18823 21.9715 9.47376 24.0483 12.6353 25.8221C15.7225 27.5578 20.1491 28.6417 25.167 28.6417C30.1848 28.6417 34.6114 27.5578 37.6964 25.8221ZM19.1031 35.4711C20.6191 35.7364 22.2488 35.8425 23.9542 35.9637V31.1127C22.2714 30.9915 20.6418 30.8778 19.1031 30.5897V35.4711ZM16.6776 30.0364C15.3738 29.6801 14.1611 29.2481 13.0393 28.7403V33.6443C14.1156 34.1446 15.3359 34.5766 16.6776 34.933V30.0364ZM8.18823 28.7099C8.18823 29.6877 8.83327 30.9762 10.6138 32.2572V27.4365C9.68751 26.8528 8.87269 26.2011 8.18823 25.5113V28.7099ZM26.3797 31.1127V35.9637C28.0851 35.8425 29.6466 35.7364 31.2308 35.4711V30.5897C29.6921 30.8778 28.0625 30.9915 26.3797 31.1127ZM42.1457 25.5113C41.3952 26.2011 40.6449 26.8528 39.7201 27.4365V32.2572C41.5014 30.9762 42.1457 29.6877 42.1457 28.7099V25.5113ZM33.6563 34.933C34.998 34.5766 36.2183 34.1446 37.2946 33.6443V28.7403C36.1804 29.2481 34.9601 29.6801 33.6563 30.0364V34.933Z" fill="black"/>
</svg>
