<svg width="49" height="49" viewBox="0 0 49 49" fill="none" xmlns="http://www.w3.org/2000/svg">
<g opacity="0.75">
<path d="M42.3158 26.811L28.2268 26.8803C27.1594 26.8803 26.6613 28.0583 27.3729 28.7513L36.6944 37.8287C37.0502 38.1058 37.6906 38.3137 38.2598 37.8287C41.0349 35.3341 42.885 31.9388 43.4543 28.0583C43.5966 27.4347 43.0273 26.811 42.3158 26.811ZM37.4771 35.4727L30.9307 29.0284H40.9638C40.3945 31.4537 39.1848 33.6018 37.4771 35.4727ZM20.7552 26.811V10.3885C20.7552 9.76482 20.186 9.27976 19.6168 9.27976C19.5456 9.27976 19.4745 9.27976 19.4745 9.27976C11.0068 10.4577 4.46037 17.595 4.88731 26.326C5.10077 35.1263 12.8568 42.3328 21.8938 42.3328C21.9649 42.3328 21.9649 42.3328 22.0361 42.3328C25.6651 42.3328 28.9383 41.2241 31.7134 39.2838C32.2826 38.9374 32.2826 38.1058 31.7846 37.6208L20.7552 26.811ZM22.0361 40.1154C13.7819 40.1154 7.30663 33.5325 7.09317 26.2567C6.80854 19.3273 11.6472 13.2988 18.4783 11.705V26.811C18.4783 27.4347 18.6918 27.989 19.1186 28.4047L29.223 38.2444C27.017 39.4917 24.5977 40.1154 22.0361 40.1154ZM41.1773 22.3762C40.5369 14.061 33.777 7.54742 25.2381 6.85449C24.5266 6.85449 24.0997 7.47814 24.0997 8.03249V22.3762C24.0997 22.9999 24.5977 23.4849 25.2381 23.4849H39.9677C40.6792 23.4849 41.2484 22.9999 41.1773 22.3762ZM26.3767 21.2675V9.21047C32.7808 10.1806 37.8329 15.1004 38.8291 21.2675H26.3767Z" fill="black"/>
</g>
</svg>
