<svg width="48" height="49" viewBox="0 0 48 49" fill="none" xmlns="http://www.w3.org/2000/svg">
<path d="M42.1439 26.8423L28.0549 26.9116C26.9875 26.9116 26.4895 28.0895 27.201 28.7825L36.5225 37.8599C36.8783 38.1371 37.5187 38.3449 38.0879 37.8599C40.8631 35.3654 42.7131 31.97 43.2825 28.0895C43.4247 27.4659 42.8555 26.8423 42.1439 26.8423ZM37.3052 35.504L30.7588 29.0597H40.7919C40.2227 31.4849 39.013 33.633 37.3052 35.504ZM20.5834 26.8423V10.4197C20.5834 9.79607 20.0141 9.31101 19.4449 9.31101C19.3738 9.31101 19.3026 9.31101 19.3026 9.31101C10.8349 10.489 4.28849 17.6263 4.71543 26.3573C4.92889 35.1575 12.685 42.364 21.7219 42.364C21.7931 42.364 21.7931 42.364 21.8642 42.364C25.4932 42.364 28.7664 41.2553 31.5416 39.3151C32.1108 38.9686 32.1108 38.1371 31.6127 37.6521L20.5834 26.8423ZM21.8642 40.1466C13.61 40.1466 7.13476 33.5637 6.92129 26.288C6.63666 19.3585 11.4754 13.3301 18.3064 11.7362V26.8423C18.3064 27.466 18.5199 28.0202 18.9468 28.436L29.0511 38.2757C26.8452 39.5229 24.4259 40.1466 21.8642 40.1466ZM41.0054 22.4075C40.365 14.0922 33.6051 7.57867 25.0662 6.88574C24.3547 6.88574 23.9278 7.50939 23.9278 8.06374V22.4075C23.9278 23.0312 24.4259 23.5162 25.0662 23.5162H39.7958C40.5073 23.5162 41.0765 23.0312 41.0054 22.4075ZM26.2048 21.2988V9.24172C32.6089 10.2118 37.661 15.1316 38.6572 21.2988H26.2048Z" fill="black"/>
</svg>
