<svg width="49" height="49" viewBox="0 0 49 49" fill="none" xmlns="http://www.w3.org/2000/svg">
<g opacity="0.75">
<mask id="mask0_3_29" style="mask-type:luminance" maskUnits="userSpaceOnUse" x="5" y="4" width="40" height="41">
<path d="M44.7011 4.76758H5.04895V44.4198H44.7011V4.76758Z" fill="white"/>
</mask>
<g mask="url(#mask0_3_29)">
<path d="M34.3311 6.06246C36.3215 4.02943 39.7446 5.39248 39.7446 8.19299V38.5183C39.7446 41.3141 36.3215 42.6772 34.3311 40.6482L32.5499 38.6965C29.1965 35.1572 24.7279 32.9036 19.9185 32.2918V40.0828C19.9185 42.4758 17.9746 44.4197 15.5816 44.4197H14.3424C11.9471 44.4197 10.0055 42.4758 10.0055 40.0828V32.0284C7.26777 32.0284 5.04895 29.8057 5.04895 27.0022V19.5674C5.04895 16.9033 7.26777 14.6109 10.0055 14.6109H16.1701L18.4316 14.5567C23.7986 14.2547 28.8557 11.9142 32.5499 8.00945L34.3311 6.06246ZM37.2663 8.19299C37.2663 7.56336 36.5848 7.36044 36.1976 7.76704L34.3544 9.71402C31.1094 13.1317 26.9428 15.4861 22.3968 16.5006V30.2085C26.9428 31.223 31.1094 33.5077 34.3544 36.9927L36.1976 38.9443C36.5848 39.3471 37.2663 39.076 37.2663 38.5183V8.19299ZM19.9185 29.7903V16.9188C19.4693 16.9653 19.0202 17.004 18.5632 17.0272L16.2321 17.0892H10.0055C8.637 17.0892 7.52721 18.2663 7.52721 19.5674V27.0022C7.52721 28.4427 8.637 29.4805 10.0055 29.4805H16.2321L18.5632 29.6819C19.0202 29.6354 19.4693 29.7438 19.9185 29.7903ZM12.4837 32.0284V40.0828C12.4837 41.1128 13.3124 41.9415 14.3424 41.9415H15.5816C16.6116 41.9415 17.4403 41.1128 17.4403 40.0828V32.0981L16.1701 32.0284H12.4837ZM43.462 19.5674C44.1435 19.5674 44.7011 20.1948 44.7011 20.8065V25.7631C44.7011 26.5143 44.1435 27.0022 43.462 27.0022C42.7805 27.0022 42.2229 26.5143 42.2229 25.7631V20.8065C42.2229 20.1948 42.7805 19.5674 43.462 19.5674Z" fill="black"/>
</g>
</g>
</svg>
