<svg width="291" height="392" viewBox="0 0 291 392" fill="none" xmlns="http://www.w3.org/2000/svg">
<g filter="url(#filter0_d_3_353)">
<g clip-path="url(#clip0_3_353)">
<mask id="mask0_3_353" style="mask-type:luminance" maskUnits="userSpaceOnUse" x="7" y="7" width="243" height="344">
<path d="M249.528 7.64062H7.45618V350.203H249.528V7.64062Z" fill="white"/>
</mask>
<g mask="url(#mask0_3_353)">
<path d="M249.528 7.64062H7.45618V350.203H249.528V7.64062Z" fill="url(#paint0_linear_3_353)"/>
<path d="M40.8581 49.4644C45.0893 49.4644 46.554 51.051 46.554 53.7769C46.554 56.34 44.8452 58.1301 41.1023 58.1301H33.6977V49.4644H40.8581ZM40.5327 38.5609C43.9502 38.5609 45.3334 39.9442 45.3334 42.7107C45.3334 45.9655 43.2178 47.1453 40.2886 47.1453H33.6977V38.5609H40.5327ZM30.7684 60.5305H41.2243C47.0829 60.5305 49.4832 57.8047 49.4832 53.9396C49.4832 50.5628 47.4897 48.8134 43.5026 48.3659V47.9997C46.4319 47.3081 48.222 45.4773 48.222 42.3446C48.222 38.2355 45.7403 36.1199 40.3699 36.1199H30.7684V60.5305ZM60.7317 43.4837C64.678 43.4837 66.4682 45.7621 66.6309 49.7085H54.3849C54.7917 45.5587 57.0701 43.4837 60.7317 43.4837ZM60.8944 60.978C65.6545 60.978 68.1769 58.6997 69.1126 54.9567L66.6309 54.2244C65.9393 56.6248 64.6374 58.5777 60.8944 58.5777C56.826 58.5777 54.5883 56.0959 54.3442 51.8647H69.1533C69.2347 51.1324 69.2347 50.3187 69.2347 49.8712C69.2347 44.6636 66.3868 41.1647 60.813 41.1647C55.2393 41.1647 51.537 44.867 51.537 51.1324C51.537 57.3164 55.0358 60.978 60.8944 60.978ZM79.8883 61.0187C85.0145 61.0187 87.2115 58.7404 87.2115 55.445C87.2115 52.3936 85.1773 50.6849 79.9697 49.8305C76.1453 49.2202 74.9655 48.0811 74.9655 46.413C74.9655 44.5009 76.3894 43.4024 79.156 43.4024C81.8005 43.4024 83.3058 44.4195 83.9974 47.3081L86.6012 46.6978C85.7469 43.321 83.9567 41.1647 79.1967 41.1647C74.5993 41.1647 72.2396 43.3617 72.2396 46.5351C72.2396 49.4644 74.0704 51.2138 78.8712 52.0275C83.021 52.7191 84.445 53.5328 84.445 55.5263C84.445 57.6012 82.9396 58.7404 79.929 58.7404C75.9419 58.7404 74.4773 56.7469 73.8263 54.1431L71.2225 54.672C72.0769 58.537 74.2332 61.0187 79.8883 61.0187ZM91.8544 54.9974C91.8544 58.4963 93.5631 60.978 97.3468 60.978C98.9335 60.978 99.9913 60.7746 101.252 60.3678L100.846 57.886C99.7065 58.2115 98.8928 58.3742 97.835 58.3742C95.5567 58.3742 94.6209 57.1537 94.6209 54.794V44.0126H101.049V41.6123H94.6209V36.1606H91.8544V41.6123H88.7624V44.0126H91.8544V54.9974ZM109.588 38.8457H117.806V60.5305H120.735V38.8457H128.954V36.1199H109.588V38.8457ZM137.464 60.978C143.404 60.978 146.821 57.1537 146.821 51.0104C146.821 44.8263 143.078 41.1647 137.464 41.1647C131.849 41.1647 128.106 44.8263 128.106 51.0104C128.106 57.1537 131.483 60.978 137.464 60.978ZM137.464 43.6465C141.695 43.6465 144.014 46.413 144.014 50.9697C144.014 55.5263 141.817 58.4963 137.423 58.4963C133.029 58.4963 130.913 55.5263 130.913 50.9697C130.913 46.413 133.232 43.6465 137.464 43.6465ZM158.427 60.978C164.367 60.978 167.784 57.1537 167.784 51.0104C167.784 44.8263 164.042 41.1647 158.427 41.1647C152.813 41.1647 149.07 44.8263 149.07 51.0104C149.07 57.1537 152.446 60.978 158.427 60.978ZM158.427 43.6465C162.658 43.6465 164.977 46.413 164.977 50.9697C164.977 55.5263 162.78 58.4963 158.386 58.4963C153.992 58.4963 151.877 55.5263 151.877 50.9697C151.877 46.413 154.196 43.6465 158.427 43.6465ZM174.305 34.4111H171.538V60.5305H174.305V34.4111ZM186.426 61.0187C191.552 61.0187 193.749 58.7404 193.749 55.445C193.749 52.3936 191.715 50.6849 186.507 49.8305C182.683 49.2202 181.503 48.0811 181.503 46.413C181.503 44.5009 182.927 43.4024 185.693 43.4024C188.338 43.4024 189.843 44.4195 190.535 47.3081L193.139 46.6978C192.284 43.321 190.494 41.1647 185.734 41.1647C181.137 41.1647 178.777 43.3617 178.777 46.5351C178.777 49.4644 180.608 51.2138 185.409 52.0275C189.558 52.7191 190.982 53.5328 190.982 55.5263C190.982 57.6012 189.477 58.7404 186.466 58.7404C182.479 58.7404 181.015 56.7469 180.364 54.1431L177.76 54.672C178.614 58.537 180.771 61.0187 186.426 61.0187ZM35.081 76.5602C35.081 73.9157 36.0574 72.4103 38.6612 72.4103C39.5562 72.4103 40.3699 72.5324 41.3057 72.6951L41.4684 70.4982C40.6954 70.3354 39.719 70.132 38.3357 70.132C34.308 70.132 32.3144 72.6545 32.3144 76.5195V77.8214H28.6528V80.2217H32.3144V96.7396H35.081V80.2217H41.3464V77.8214H35.081V76.5602ZM51.5972 97.1871C57.5371 97.1871 60.9546 93.3628 60.9546 87.2195C60.9546 81.0354 57.2116 77.3738 51.5972 77.3738C45.9828 77.3738 42.2398 81.0354 42.2398 87.2195C42.2398 93.3628 45.6166 97.1871 51.5972 97.1871ZM51.5972 79.8556C55.8284 79.8556 58.1474 82.6221 58.1474 87.1788C58.1474 91.7354 55.9504 94.7054 51.5565 94.7054C47.1626 94.7054 45.0471 91.7354 45.0471 87.1788C45.0471 82.6221 47.3661 79.8556 51.5972 79.8556ZM67.2717 96.7396V87.016C67.2717 82.4594 69.1432 80.6693 73.3336 80.6693H74.2287V77.6179H73.4557C70.4044 77.6179 68.3702 79.2453 67.4344 82.9069H67.1903V77.8214H64.4644V96.7396H67.2717ZM94.1425 74.4039C98.0482 74.4039 99.7163 76.2754 99.7163 78.9605C99.7163 81.9712 97.7227 83.5985 92.0676 85.3073C86.1277 87.1381 83.5239 89.335 83.5239 94.8681C83.5239 95.5191 83.5239 96.1293 83.5645 96.7396H103.012V94.1765H94.59C91.9048 94.1765 88.406 94.3392 86.087 94.502C86.2497 90.5556 87.7957 89.1723 93.5322 87.3415C99.0653 85.7141 102.605 83.6392 102.605 79.0419C102.605 74.3632 99.5942 71.8814 94.1018 71.8814C88.1619 71.8814 85.1105 75.421 84.2969 81.2389L87.0634 81.6457C87.7144 76.7229 89.952 74.4039 94.1425 74.4039ZM115.604 74.4853C120.608 74.4853 122.846 78.513 122.846 84.4936C122.846 90.4335 120.608 94.624 115.604 94.624C110.6 94.624 108.362 90.4335 108.362 84.4936C108.362 78.513 110.641 74.4853 115.604 74.4853ZM115.604 71.8814C109.095 71.8814 105.433 76.8856 105.433 84.4936C105.433 92.1016 108.973 97.1871 115.604 97.1871C122.236 97.1871 125.816 92.1016 125.816 84.4936C125.816 76.8856 122.195 71.8814 115.604 71.8814ZM138.89 74.4039C142.796 74.4039 144.464 76.2754 144.464 78.9605C144.464 81.9712 142.471 83.5985 136.816 85.3073C130.876 87.1381 128.272 89.335 128.272 94.8681C128.272 95.5191 128.272 96.1293 128.312 96.7396H147.76V94.1765H139.338C136.653 94.1765 133.154 94.3392 130.835 94.502C130.998 90.5556 132.544 89.1723 138.28 87.3415C143.813 85.7141 147.353 83.6392 147.353 79.0419C147.353 74.3632 144.342 71.8814 138.85 71.8814C132.91 71.8814 129.858 75.421 129.045 81.2389L131.811 81.6457C132.462 76.7229 134.7 74.4039 138.89 74.4039ZM160.678 97.1465C167.147 97.1465 169.913 94.3799 169.913 90.1894C169.913 86.7312 168.408 85.0225 163.648 84.575V84.1681C166.943 83.3544 168.733 81.5236 168.733 78.3503C168.733 73.9564 165.967 71.9221 160.556 71.9221C154.941 71.9221 152.175 74.9328 151.361 79.5708L154.128 79.937C154.819 76.3974 156.609 74.3632 160.596 74.3632C164.177 74.3632 165.926 75.6651 165.926 78.8792C165.926 82.0525 163.607 83.3138 160.8 83.3138H156.813V85.5921H160.963C165.723 85.5921 166.984 87.0567 166.984 89.986C166.984 92.9153 164.787 94.7054 160.678 94.7054C155.918 94.7054 153.761 92.5084 153.029 88.4807L150.181 88.8875C151.076 94.2985 154.494 97.1465 160.678 97.1465Z" fill="white"/>
<path d="M188.777 124.291C164.242 123.51 160.787 149.205 186.962 153.82L187.743 194.519L201.612 193.989V183.499L193.468 183.979L192.988 178.254L197.855 176.59L197.376 170.336L192.257 170.084L192.005 154.98C215.078 156.367 216.162 125.174 188.777 124.291ZM188.979 149.357C169.966 146.381 171.151 129.234 188.979 129.738C209.783 130.343 207.992 152.307 188.979 149.357Z" fill="black"/>
<path d="M162.331 173.726C160.314 175.39 158.296 177.054 156.254 178.719C155.245 179.551 156.682 180.988 157.691 180.156C159.709 178.492 161.726 176.827 163.768 175.163C164.802 174.331 163.34 172.893 162.331 173.726Z" fill="black"/>
<path d="M230.611 125.88C227.737 128.351 224.837 130.797 221.962 133.268C220.953 134.126 222.416 135.563 223.399 134.706C226.274 132.235 229.174 129.789 232.049 127.318C233.057 126.485 231.595 125.048 230.611 125.88Z" fill="black"/>
<path d="M154.462 143.97C150.752 143.192 147.047 142.379 143.337 141.601C142.043 141.322 141.792 143.357 143.07 143.616C146.781 144.394 150.486 145.208 154.196 145.985C155.47 146.28 155.721 144.245 154.462 143.97Z" fill="black"/>
<path d="M178.377 112.383C177.347 108.735 176.35 105.074 175.321 101.426C174.968 100.15 173.048 100.87 173.411 102.124C174.441 105.772 175.437 109.432 176.468 113.081C176.797 114.346 178.717 113.625 178.377 112.383Z" fill="black"/>
<path d="M234.385 174.689C228.138 169.969 221.892 165.25 215.671 160.534C214.62 159.754 213.326 161.31 214.372 162.115C220.619 166.835 226.865 171.554 233.086 176.27C234.137 177.05 235.435 175.469 234.385 174.689Z" fill="black"/>
<path d="M89.9483 197.319C89.5655 197.319 89.2258 197.064 89.1192 196.682C88.9918 196.214 89.2681 195.746 89.7144 195.619C91.3934 195.152 92.6473 194.323 93.0936 193.388C93.3487 192.856 93.3271 192.283 93.0297 191.666C92.3922 190.306 89.013 190.348 87.4828 190.604C87.0577 190.667 86.6329 190.412 86.5267 189.987L84.2952 181.847C84.1675 181.38 84.4437 180.913 84.89 180.785C85.3363 180.657 85.8253 180.934 85.9527 181.38L87.993 188.797C89.6932 188.627 93.4972 188.542 94.6022 190.944C95.0912 192.028 95.1124 193.111 94.6449 194.11C93.9862 195.534 92.3922 196.66 90.1607 197.277C90.0968 197.319 90.0118 197.319 89.9483 197.319Z" fill="black"/>
<path d="M90.4792 178.554L90.9683 180.339C91.5846 182.634 95.1551 181.656 94.5171 179.361L94.0285 177.576C93.4122 175.281 89.8417 176.258 90.4792 178.554Z" fill="black"/>
<path d="M69.0572 184.398L69.5458 186.183C70.1622 188.478 73.7326 187.5 73.0951 185.205L72.6061 183.42C71.9897 181.146 68.4408 182.124 69.0572 184.398Z" fill="black"/>
<path d="M67.3782 175.642C66.0393 176.343 64.7642 177.108 63.5742 178.043C62.6604 178.787 63.9778 180.063 64.8916 179.34C65.9331 178.511 67.1447 177.852 68.3135 177.215C69.3758 176.662 68.4409 175.089 67.3782 175.642Z" fill="black"/>
<path d="M92.0308 168.544C90.9681 168.182 89.8204 168.012 88.7789 167.566C87.6951 167.098 86.7813 168.714 87.8651 169.16C89.0552 169.67 90.3306 169.904 91.5629 170.308C92.6895 170.711 93.157 168.926 92.0308 168.544Z" fill="black"/>
<path d="M81.2771 208.434C79.8959 208.583 77.9617 208.477 77.4304 206.904C77.048 205.778 75.2627 206.266 75.6452 207.393C76.4528 209.773 78.9605 210.538 81.2771 210.262C82.446 210.135 82.446 208.286 81.2771 208.434Z" fill="black"/>
<path d="M99.5539 172.752C98.7463 170.01 97.8964 167.141 97.0465 164.166C96.4936 162.253 95.8138 160.532 95.0273 158.98C96.5786 156.876 96.5786 153.816 94.9423 151.393C91.2234 145.932 82.9775 145.209 77.0481 146.08C72.8613 146.697 68.8661 148.163 64.9766 149.778C63.6593 150.331 62.1503 150.841 60.7691 151.563C52.3954 154.369 46.7638 158.152 43.5972 163.082C40.3031 168.204 39.7505 174.516 41.897 182.379L45.7861 196.597C45.9137 197.064 46.3812 197.319 46.8487 197.192C47.2313 197.085 47.4651 196.745 47.4863 196.384C49.3351 195.683 50.6741 195.428 52.3104 195.067C52.6932 195.598 54.1172 195.3 54.2868 194.663C54.3295 194.046 53.777 188.988 53.5431 185.992C54.0533 183.208 55.1794 180.551 56.8373 177.597C58.4737 174.686 60.0677 171.413 59.4725 167.949C59.4513 167.864 59.4301 167.779 59.4086 167.694C70.0349 167.311 89.3104 162.912 93.8373 160.447C94.4537 161.722 94.985 163.124 95.4313 164.655C96.3024 167.63 97.1315 170.499 97.9603 173.241C105.611 199.211 110.244 214.873 102.976 222.227C96.7487 228.517 83.1898 231.365 83.0413 231.386C82.7651 231.45 82.51 231.641 82.4034 231.918C82.2972 232.194 82.3399 232.491 82.51 232.725C86.314 237.974 92.0733 239.547 92.3072 239.611C92.3707 239.632 92.4557 239.632 92.5196 239.632C92.7108 239.632 92.902 239.568 93.0509 239.462C93.2633 239.292 93.391 239.037 93.391 238.782V229.984C97.2162 228.453 101.361 226.286 104.187 223.417C112.114 215.362 107.396 199.317 99.5539 172.752Z" fill="black"/>
<path d="M91.7331 237.762L91.6269 244.308C87.4828 255.656 79.981 256.974 74.4129 256.06C64.2756 254.402 55.0732 244.69 54.9247 238.187L53.9682 208.349C53.9682 208.073 53.8193 207.839 53.6069 207.669C53.3946 207.52 53.0968 207.478 52.8417 207.542C49.7814 208.519 47.1888 208.477 45.2974 207.457C43.5972 206.521 42.9808 205.097 42.7683 204.311C42.4283 203.036 42.5983 201.825 43.2571 200.698C44.6598 198.382 48.2089 196.554 53.5646 195.364C54.0321 195.258 54.3295 194.812 54.2233 194.344C54.1171 193.876 53.6493 193.579 53.2029 193.685C47.3163 194.982 43.4697 197.043 41.7907 199.806C40.6219 201.74 40.7706 203.567 41.1107 204.758C41.5995 206.543 42.7896 208.052 44.4685 208.944C45.9349 209.752 48.4425 210.432 52.268 209.454L53.2029 238.187C53.3946 246.199 63.9566 256.06 74.1367 257.718C79.2369 258.547 88.5032 257.952 93.2848 244.711C93.3271 244.627 93.3271 244.52 93.3271 244.414V240.865C92.7958 239.951 92.3283 238.655 91.7331 237.762Z" fill="black"/>
<path d="M-1.37237 376.241C-5.43157 376.241 -10.0008 376.092 -15.1226 375.773C-40.944 374.158 -61.1336 363.702 -70.548 347.104C-78.73 332.674 -77.9863 315.247 -68.423 296.673C-44.2166 249.727 18.6896 239.356 54.0321 237.337C54.4995 237.294 54.9031 237.677 54.9458 238.144C54.967 238.612 54.6057 239.016 54.1383 239.058C19.1572 241.035 -43.0905 251.257 -66.8929 297.459C-76.1799 315.481 -76.9236 332.355 -69.0606 346.254C-59.9432 362.342 -40.2426 372.458 -15.0163 374.052C24.1302 376.517 28.8482 369.228 33.8212 361.534C34.6925 360.174 35.6064 358.771 36.6902 357.433C43.8734 348.613 45.9136 346.87 50.9929 348.698C52.6931 349.314 53.5858 349.187 53.7343 348.974C53.9259 348.698 53.8193 347.211 51.0353 343.98C49.8029 342.535 48.379 341.834 46.6999 341.813C46.6787 341.813 46.6575 341.813 46.6362 341.813C43.3634 341.813 39.1129 344.512 34.6712 349.442C34.3525 349.803 33.7999 349.825 33.4599 349.506C33.0986 349.187 33.0773 348.635 33.3961 348.294C36.7752 344.554 41.8332 340.091 46.6362 340.091C46.6787 340.091 46.7 340.091 46.7212 340.091C48.8888 340.112 50.7802 341.047 52.3319 342.854C55.1794 346.148 56.1147 348.528 55.1582 349.952C54.6484 350.717 53.3945 351.397 50.4189 350.335C46.4449 348.911 45.1698 349.761 38.0291 358.538C36.9877 359.813 36.1164 361.173 35.2663 362.491C30.8671 369.249 26.3404 376.241 -1.37237 376.241Z" fill="black"/>
<path d="M29.2096 345.574C28.9758 345.574 28.7421 345.489 28.572 345.298C28.2533 344.936 28.2745 344.405 28.6358 344.087C41.6634 332.185 45.3613 330.443 50.5467 333.715C53.4369 335.543 55.0309 337.541 55.286 339.687C55.4984 341.473 54.7547 343.258 53.0972 344.979C52.7571 345.319 52.2257 345.319 51.8856 345C51.5455 344.66 51.5455 344.129 51.8645 343.789C53.1607 342.471 53.7347 341.154 53.5858 339.9C53.3946 338.327 52.0345 336.691 49.6329 335.182C45.8288 332.78 43.2998 333.057 29.7834 345.362C29.6347 345.489 29.4221 345.574 29.2096 345.574Z" fill="black"/>
<path d="M24.5553 341.239C24.3215 341.239 24.0878 341.154 23.9178 340.963C23.599 340.601 23.6202 340.07 23.9815 339.752C33.2262 331.314 39.5381 326.617 44.3623 327.468C46.7213 327.892 48.6341 329.614 50.2065 332.738C50.4193 333.163 50.2493 333.673 49.8241 333.886C49.399 334.098 48.8892 333.928 48.6764 333.503C47.3589 330.889 45.8287 329.465 44.0435 329.146C39.9419 328.381 33.7575 333.121 25.1291 341.005C24.9591 341.154 24.7678 341.239 24.5553 341.239Z" fill="black"/>
<path d="M42.2794 326.724C36.01 323.153 32.2271 321.857 21.6223 333.716C19.5183 336.075 17.9244 337.626 16.9043 338.561L16.4155 329.168C15.8417 329.359 15.2891 329.55 14.7153 329.763L15.2679 340.41C15.2891 340.729 15.4804 341.005 15.7567 341.154C15.863 341.217 15.9905 341.239 16.118 341.239C16.3092 341.239 16.4792 341.175 16.628 341.069C16.713 341.005 18.902 339.326 22.8762 334.885C33.0559 323.493 36.01 325.172 41.408 328.232C41.8118 328.466 42.3431 328.317 42.5769 327.914C42.8319 327.488 42.6832 326.957 42.2794 326.724Z" fill="black"/>
<path d="M14.0354 313.441C14.3117 313.824 14.843 313.93 15.2255 313.654C26.7229 305.514 24.0239 296.312 23.9176 295.908C23.8114 295.568 23.4926 295.313 23.1313 295.313C-6.5367 294.314 -24.346 303.665 -28.2776 322.516C-29.149 326.723 -28.2776 330.379 -25.6636 333.397C-18.6929 341.473 -0.586081 342.79 5.49204 342.79C6.0871 342.79 6.5759 342.769 6.91593 342.748C9.12616 342.62 9.93374 340.899 11.5489 337.498C12.5477 335.373 13.9291 332.483 16.2244 328.658C16.4582 328.254 16.3306 327.723 15.9268 327.489C15.5231 327.234 14.9917 327.383 14.758 327.786C12.4202 331.676 11.0388 334.63 10.0187 336.776C8.50984 339.964 7.97854 340.984 6.83092 341.048C6.59715 341.069 -16.4189 341.451 -24.346 332.27C-26.5775 329.678 -27.3425 326.511 -26.5775 322.856C-22.5395 303.559 -3.85889 297.863 13.9929 297.056C13.9929 297.056 14.7155 311.932 14.2692 312.251C13.8441 312.506 13.7591 313.058 14.0354 313.441Z" fill="black"/>
<path d="M199.949 212.961C202.648 210.857 205.985 208.222 205.369 204.396C205.305 203.993 205.092 202.739 203.987 202.314C202.117 201.612 198.971 203.631 188.686 212.132C174.829 223.608 167.009 250.896 165.627 271.362C165.393 274.932 165.202 278.226 165.011 281.223C164.055 297.396 163.566 305.493 158.933 305.918C154.47 306.364 148.838 294.144 143.419 282.371C142.016 279.289 140.571 276.143 139.083 273.062C130.731 255.741 119.319 239.484 92.5407 237.89C92.3072 237.868 92.0733 237.953 91.9032 238.124C91.8397 238.187 91.7759 238.272 91.7332 238.336C92.2861 239.165 92.817 239.994 93.3483 240.844V239.675C118.596 241.524 129.52 257.165 137.532 273.806C139.019 276.888 140.465 280.033 141.867 283.093C148.158 296.779 153.152 307.639 158.699 307.639C158.826 307.639 158.954 307.639 159.081 307.618C165.202 307.087 165.67 299.011 166.732 281.329C166.902 278.333 167.115 275.06 167.348 271.489C168.709 251.363 176.296 224.629 189.769 213.471C194.02 209.943 201.926 203.376 203.371 203.929C203.456 203.95 203.583 204.163 203.668 204.672C204.115 207.499 201.458 209.582 198.886 211.601C196.804 213.237 194.827 214.789 194.679 216.744C194.572 218.147 195.401 219.316 196.294 220.548C198.249 223.268 200.672 226.626 195.104 234.935C194.849 235.339 194.955 235.871 195.338 236.126C195.741 236.402 196.272 236.274 196.528 235.892C202.755 226.605 199.694 222.354 197.675 219.549C196.91 218.508 196.315 217.658 196.379 216.893C196.485 215.681 198.164 214.363 199.949 212.961Z" fill="black"/>
<path d="M196.294 219.931C195.89 219.931 195.529 219.655 195.444 219.23C195.359 218.762 195.656 218.316 196.124 218.231C201.373 217.19 206.176 215.851 210.405 214.639C218.375 212.387 224.155 210.772 226.982 213.024C228.257 214.045 228.831 215.745 228.704 218.21C228.682 218.677 228.236 219.06 227.79 219.017C227.322 218.996 226.961 218.592 226.982 218.104C227.088 216.233 226.727 215.001 225.92 214.342C223.773 212.621 218.077 214.236 210.894 216.276C206.623 217.487 201.777 218.847 196.464 219.889C196.421 219.931 196.358 219.931 196.294 219.931Z" fill="black"/>
<path d="M207.324 225.393C206.984 225.393 206.665 225.181 206.516 224.841C206.346 224.395 206.559 223.905 207.005 223.735C223.114 217.466 229.596 216.042 231.763 218.337C232.741 219.379 232.699 220.973 231.657 223.247C231.466 223.672 230.935 223.863 230.51 223.672C230.085 223.481 229.894 222.971 230.085 222.524C230.765 221.036 230.914 219.953 230.488 219.506C228.342 217.254 213.827 222.907 207.6 225.329C207.536 225.372 207.43 225.393 207.324 225.393Z" fill="black"/>
<path d="M210.852 230.579C210.49 230.579 210.15 230.345 210.023 229.962C209.895 229.516 210.15 229.028 210.597 228.9C215.378 227.455 219.289 226.116 222.434 225.032C229.745 222.503 233.081 221.334 234.76 223.566C235.483 224.543 235.78 225.542 235.61 226.52C235.355 228.007 234.144 228.836 234.017 228.921C233.613 229.176 233.081 229.07 232.826 228.666C232.571 228.262 232.678 227.731 233.081 227.476C233.081 227.476 233.804 226.987 233.931 226.201C234.017 225.712 233.825 225.16 233.4 224.586C232.486 223.374 228.916 224.607 223.008 226.647C219.841 227.731 215.931 229.091 211.107 230.537C211.022 230.579 210.937 230.579 210.852 230.579Z" fill="black"/>
<path d="M162.609 358.325C160.271 358.325 157.87 358.134 155.468 357.752C139.997 355.308 126.459 345.383 119.255 331.229C119.042 330.804 119.212 330.294 119.637 330.081C120.062 329.869 120.572 330.039 120.785 330.464C127.755 344.129 140.826 353.714 155.745 356.073C168.156 358.028 180.163 354.627 187.857 346.934C204.965 329.826 202.924 282.37 202.159 264.497C201.607 251.363 207.345 247.878 213.444 244.159C214.23 243.691 215.017 243.203 215.824 242.692C218.332 241.077 221.839 239.568 225.218 238.081C229.83 236.083 235.058 233.809 235.674 231.96C235.759 231.705 235.738 231.492 235.589 231.216C234.399 229.155 234.038 229.197 227.662 231.79C224.687 233.001 220.606 234.659 214.783 236.635C214.337 236.784 213.848 236.551 213.699 236.104C213.551 235.658 213.784 235.169 214.23 235.02C220.011 233.065 224.049 231.407 227.003 230.196C233.209 227.667 235.079 226.902 237.055 230.366C237.438 231.046 237.523 231.769 237.289 232.491C236.439 235.063 231.551 237.188 225.898 239.632C222.582 241.077 219.14 242.565 216.738 244.095C215.931 244.605 215.123 245.115 214.315 245.583C208.174 249.323 203.349 252.256 203.86 264.369C204.624 282.434 206.686 330.443 189.047 348.082C182.501 354.734 172.937 358.325 162.609 358.325Z" fill="black"/>
<path d="M125.588 337.626C125.184 337.626 124.844 337.35 124.759 336.946C122.442 326.214 128.223 317.351 131.878 313.016C137.914 305.875 146.5 301.136 152.791 301.37C153.258 301.391 153.641 301.795 153.619 302.262C153.598 302.73 153.195 303.113 152.727 303.091C146.925 302.772 138.913 307.384 133.196 314.142C129.753 318.223 124.27 326.575 126.438 336.606C126.544 337.073 126.247 337.52 125.779 337.626C125.694 337.626 125.63 337.626 125.588 337.626Z" fill="black"/>
<path d="M135.279 347.551C129.519 341.579 127.437 332.802 124.802 321.666C122.974 313.972 120.912 305.259 117.193 295.887C117.044 295.504 116.662 295.292 116.258 295.355C115.854 295.419 115.557 295.759 115.535 296.163L114.771 313.59C114.771 313.696 114.771 313.781 114.813 313.866C114.813 313.866 115.068 314.695 115.514 316.034C115.599 316.31 115.875 316.544 116.173 316.608C116.45 316.671 116.726 316.735 117.002 316.777L117.363 316.82C117.788 316.82 118.256 316.692 118.702 316.565C118.83 316.523 119 316.48 119.17 316.438C119.467 320.348 119.722 327.361 119.531 330.846C119.531 330.995 119.552 331.144 119.616 331.272C122.719 337.456 128.627 345.617 134.238 348.847C134.365 348.932 134.514 348.953 134.662 348.953C134.917 348.953 135.173 348.847 135.343 348.613C135.598 348.337 135.576 347.848 135.279 347.551Z" fill="black"/>
<path d="M15.757 333.992C15.417 333.992 15.0769 333.779 14.9494 333.439C14.7794 332.993 15.0132 332.504 15.4594 332.334C24.6616 328.934 31.5261 317.394 32.4399 315.779C32.4399 311.55 32.2274 250.535 27.1056 241.418C26.8719 240.993 27.0206 240.482 27.4244 240.249C27.8282 240.015 28.3595 240.164 28.5933 240.567C34.0976 250.365 34.1401 313.314 34.1401 315.991C34.1401 316.14 34.0976 316.268 34.0339 316.395C33.7363 316.948 26.4681 330.082 16.0333 333.928C15.9483 333.971 15.8632 333.992 15.757 333.992Z" fill="black"/>
<path d="M107.396 316.841H41.8548C41.621 316.841 41.4084 316.756 41.2384 316.586C41.0684 316.416 40.9834 316.204 40.9834 315.97C41.2809 292.614 40.6646 246.709 36.2655 240.185C36.0104 239.781 36.0954 239.25 36.4992 238.995C36.8817 238.719 37.4343 238.825 37.6893 239.228C43.1724 247.389 42.7898 306.831 42.7049 315.12H106.567C106.823 307.681 108.565 252.681 104.549 241.247C104.4 240.801 104.634 240.312 105.08 240.164C105.526 240.015 106.015 240.249 106.185 240.695C110.563 253.212 108.353 313.462 108.268 316.012C108.247 316.48 107.864 316.841 107.396 316.841Z" fill="black"/>
<path d="M119.999 351.078C119.531 351.078 119.149 350.717 119.149 350.25L118.129 316.841H115.494C115.26 316.841 115.026 316.735 114.877 316.565C114.728 316.395 114.622 316.161 114.643 315.927C114.686 315.332 117.746 255.763 111.965 244.244C111.753 243.819 111.923 243.309 112.348 243.096C112.773 242.884 113.283 243.054 113.496 243.479C119.128 254.764 116.769 307.256 116.386 315.12H118.957C119.425 315.12 119.808 315.481 119.808 315.949L120.849 350.186C120.87 350.654 120.488 351.057 120.02 351.078H119.999Z" fill="black"/>
<path d="M41.706 316.841H33.1626C32.6951 316.841 32.3125 316.459 32.3125 315.991C32.3125 315.524 32.6951 315.141 33.1626 315.141H41.706C42.1735 315.141 42.556 315.524 42.556 315.991C42.5773 316.459 42.1947 316.841 41.706 316.841Z" fill="black"/>
<path d="M115.834 316.841H107.29C106.822 316.841 106.44 316.459 106.44 315.991C106.44 315.524 106.822 315.141 107.29 315.141H115.834C116.301 315.141 116.683 315.524 116.683 315.991C116.683 316.459 116.301 316.841 115.834 316.841Z" fill="black"/>
<path d="M59.0475 355.053C58.8986 355.053 58.7713 355.01 58.6439 354.947C58.2188 354.713 58.0699 354.202 58.3038 353.778L66.7198 338.497C66.9533 338.072 67.4635 337.923 67.8887 338.157C68.3134 338.391 68.4623 338.901 68.2284 339.326L59.8128 354.606C59.6427 354.904 59.3449 355.053 59.0475 355.053Z" fill="black"/>
<path d="M16.4158 329.189L14.7369 296.163C14.7156 295.695 14.2905 295.27 13.8442 295.355C13.3767 295.376 13.0154 295.78 13.0367 296.248L14.7581 329.783C15.2894 329.571 15.842 329.359 16.4158 329.189Z" fill="black"/>
<path d="M34.9116 120.938C33.1101 120.938 32.5682 119.928 32.5682 118.492V113.176H31.2207V118.639C31.2207 120.938 32.5682 122.125 34.9116 122.125C37.2257 122.125 38.4707 120.909 38.4707 118.639V113.176H37.1232V118.566C37.1232 120.001 36.6252 120.938 34.9116 120.938ZM41.6915 112.561H40.4172V121.964H41.6915V112.561ZM43.9727 119.928C43.9727 121.202 44.6024 122.139 46.0378 122.139C46.6676 122.139 47.0337 122.051 47.5024 121.905L47.3413 120.777C46.9752 120.88 46.6676 120.953 46.3014 120.953C45.5398 120.953 45.2469 120.557 45.2469 119.781V116.178H47.4292V115.124H45.2469V113.205H43.9727V115.124H42.9328V116.178H43.9727V119.928ZM50.2057 113.805V112.648H48.741V113.805H50.2057ZM50.1031 121.964V115.124H48.8289V121.964H50.1031ZM53.3038 118.053C53.3038 116.881 54.124 116.105 55.3396 116.105C56.4088 116.105 56.8189 116.808 56.8189 117.745V121.964H58.0931V118.053C58.0931 116.881 58.884 116.105 60.129 116.105C61.1982 116.105 61.6083 116.808 61.6083 117.745V121.964H62.8825V117.438C62.8825 115.944 62.1648 114.948 60.6416 114.948C59.2795 114.948 58.474 115.739 58.1517 116.998H58.0199C57.8881 115.753 57.229 114.948 55.8815 114.948C54.6659 114.948 53.7871 115.666 53.4063 116.896H53.2745V115.124H52.0295V121.964H53.3038V118.053ZM66.7695 121.085C65.7589 121.085 65.422 120.601 65.422 120.059C65.422 119.386 65.9347 119.034 66.8281 119.034H68.8346V119.415C68.8346 120.382 68.0291 121.085 66.7695 121.085ZM68.8932 121.964H70.1089V117.584C70.1089 115.885 69.274 114.963 67.37 114.963C65.7296 114.963 64.7483 115.768 64.47 117.086L65.671 117.379C65.8907 116.471 66.4033 116.017 67.3261 116.017C68.4392 116.017 68.8346 116.574 68.8346 117.599V118.155H66.6377C64.968 118.155 64.2064 119.02 64.2064 120.206C64.2064 121.524 65.0412 122.11 66.3301 122.11C67.5458 122.11 68.4245 121.466 68.7614 120.338H68.8932V121.964ZM72.2643 119.928C72.2643 121.202 72.8941 122.139 74.3295 122.139C74.9593 122.139 75.3254 122.051 75.7941 121.905L75.633 120.777C75.2668 120.88 74.9593 120.953 74.5931 120.953C73.8315 120.953 73.5386 120.557 73.5386 119.781V116.178H75.7209V115.124H73.5386V113.205H72.2643V115.124H71.2244V116.178H72.2643V119.928ZM79.9325 115.959C81.1921 115.959 81.7926 116.691 81.8512 117.994H77.8527C77.9992 116.632 78.7315 115.959 79.9325 115.959ZM79.9911 122.125C81.7633 122.125 82.6421 121.304 82.979 120.001L81.8658 119.693C81.6462 120.455 81.2214 121.07 79.9911 121.07C78.6729 121.07 77.9406 120.308 77.8381 118.917H82.9936C83.0229 118.609 83.0376 118.302 83.0376 118.097C83.0376 116.207 82.0123 114.948 79.9618 114.948C77.8967 114.948 76.5639 116.31 76.5639 118.595C76.5639 120.865 77.8674 122.125 79.9911 122.125ZM90.6561 122.11C92.3697 122.11 93.2778 121.158 93.6586 119.972H93.7904V121.964H95.0354V117.452H91.0516V118.595H93.7758V118.712L93.7611 118.653C93.7611 119.854 93.2046 120.968 91.0955 120.968C89.0157 120.968 88.1516 119.708 88.1516 117.687C88.1516 115.548 88.9425 114.186 91.0223 114.186C92.5162 114.186 93.3218 114.933 93.6586 116.456L94.9182 116.178C94.5667 114.186 93.3218 113.015 91.0369 113.015C88.2102 113.015 86.7895 114.86 86.7895 117.687C86.7895 120.616 88.342 122.11 90.6561 122.11ZM101.401 121.964H102.646V115.124H101.372V119.034C101.372 120.206 100.566 120.968 99.3508 120.968C98.2523 120.968 97.8568 120.279 97.8568 119.327V115.124H96.5826V119.635C96.5826 121.129 97.271 122.139 98.8089 122.139C99.9952 122.139 100.903 121.392 101.284 120.177H101.401V121.964ZM105.945 113.805V112.648H104.48V113.805H105.945ZM105.842 121.964V115.124H104.568V121.964H105.842ZM110.522 120.997C109.219 120.997 108.604 120.206 108.604 118.566C108.604 116.896 109.233 116.105 110.522 116.105C111.753 116.105 112.529 116.998 112.529 118.302V118.829C112.529 120.162 111.738 120.997 110.522 120.997ZM112.529 121.964H113.803V112.561H112.529V116.94H112.441C112.104 115.768 111.342 114.948 109.995 114.948C108.325 114.948 107.344 116.237 107.344 118.566C107.344 120.88 108.296 122.139 109.966 122.139C111.255 122.139 112.104 121.304 112.441 120.133H112.529V121.964ZM118.537 115.959C119.796 115.959 120.397 116.691 120.455 117.994H116.457C116.603 116.632 117.336 115.959 118.537 115.959ZM118.595 122.125C120.368 122.125 121.246 121.304 121.583 120.001L120.47 119.693C120.25 120.455 119.826 121.07 118.595 121.07C117.277 121.07 116.545 120.308 116.442 118.917H121.598C121.627 118.609 121.642 118.302 121.642 118.097C121.642 116.207 120.616 114.948 118.566 114.948C116.501 114.948 115.168 116.31 115.168 118.595C115.168 120.865 116.472 122.125 118.595 122.125Z" fill="white"/>
<path d="M31.8667 132.542C46.6758 130.415 85.2283 126.799 120.966 129.351" stroke="white" stroke-width="1.22053" stroke-linecap="round"/>
</g>
</g>
</g>
<defs>
<filter id="filter0_d_3_353" x="0.453125" y="0.640625" width="290.078" height="390.562" filterUnits="userSpaceOnUse" color-interpolation-filters="sRGB">
<feFlood flood-opacity="0" result="BackgroundImageFix"/>
<feColorMatrix in="SourceAlpha" type="matrix" values="0 0 0 0 0 0 0 0 0 0 0 0 0 0 0 0 0 0 127 0" result="hardAlpha"/>
<feOffset dx="17" dy="17"/>
<feGaussianBlur stdDeviation="12"/>
<feComposite in2="hardAlpha" operator="out"/>
<feColorMatrix type="matrix" values="0 0 0 0 0.384314 0 0 0 0 0.286275 0 0 0 0 0.764706 0 0 0 0.35 0"/>
<feBlend mode="normal" in2="BackgroundImageFix" result="effect1_dropShadow_3_353"/>
<feBlend mode="normal" in="SourceGraphic" in2="effect1_dropShadow_3_353" result="shape"/>
</filter>
<linearGradient id="paint0_linear_3_353" x1="16.7666" y1="33.9916" x2="306.525" y2="247.652" gradientUnits="userSpaceOnUse">
<stop offset="0.0572917" stop-color="#F8D2AA"/>
<stop offset="0.257355" stop-color="#F4B6D4"/>
<stop offset="0.455904" stop-color="#C8A2E5"/>
<stop offset="0.670741" stop-color="#B08CF7"/>
<stop offset="0.932292" stop-color="#8EC9F2"/>
</linearGradient>
<clipPath id="clip0_3_353">
<rect width="242.072" height="342.562" fill="white" transform="translate(7.45618 7.64062)"/>
</clipPath>
</defs>
</svg>
