<svg width="48" height="49" viewBox="0 0 48 49" fill="none" xmlns="http://www.w3.org/2000/svg">
<path d="M33.1304 9.81428H25.3695V4.27081C25.3695 3.71646 24.8151 3.16211 24.2608 3.16211C23.6371 3.16211 23.1521 3.71646 23.1521 4.27081V9.81428H15.3913C11.6495 9.81428 8.73909 12.7939 8.73909 16.4665V31.9882C8.73909 35.73 11.6495 38.6404 15.3913 38.6404H33.1304C36.8029 38.6404 39.7826 35.73 39.7826 31.9882V16.4665C39.7826 12.7939 36.8029 9.81428 33.1304 9.81428ZM37.5652 29.7708H36.4565C35.8328 29.7708 35.3478 30.3251 35.3478 30.8795C35.3478 31.5032 35.8328 31.9882 36.4565 31.9882H37.5652C37.5652 34.4827 35.5556 36.423 33.1304 36.423H15.3913C12.8967 36.423 10.9565 34.4827 10.9565 31.9882H12.0652C12.6196 31.9882 13.1739 31.5032 13.1739 30.8795C13.1739 30.3251 12.6196 29.7708 12.0652 29.7708H10.9565V16.4665C10.9565 14.0412 12.8967 12.0317 15.3913 12.0317H33.1304C35.5556 12.0317 37.5652 14.0412 37.5652 16.4665V29.7708ZM4.58147 19.0303C4.78936 18.8224 5.06653 18.6838 5.3437 18.6838C5.96735 18.6838 6.4524 18.1988 6.5217 17.5752C6.5217 17.0208 5.96735 16.4665 5.413 16.4665C4.51219 16.4665 3.68066 16.8129 3.05703 17.4366C2.43338 18.0602 2.08691 18.961 2.08691 19.7925V28.6621C2.08691 30.5331 3.54208 31.9882 5.3437 31.9882C5.96735 31.9882 6.4524 31.5032 6.4524 30.8795C6.4524 30.3251 5.96735 29.7708 5.3437 29.7708C4.78936 29.7708 4.30431 29.2858 4.30431 28.6621V19.7925C4.30431 19.5154 4.3736 19.2381 4.58147 19.0303ZM43.1087 16.4665C42.485 16.4665 42 17.0208 42 17.5752C42 18.1988 42.485 18.6838 43.1087 18.6838C43.6631 18.6838 44.2173 19.2381 44.2173 19.7925V28.6621C44.2173 28.9393 44.0788 29.2165 43.8709 29.4244C43.6631 29.7015 43.3858 29.7708 43.1087 29.7708C42.485 29.7708 42 30.3251 42 30.8795C41.9307 31.5032 42.485 31.9882 43.0394 31.9882C43.9402 31.9882 44.7716 31.711 45.3953 31.0874C46.019 30.3945 46.4347 29.5629 46.4347 28.6621V19.7925C46.4347 17.9909 44.9103 16.4665 43.1087 16.4665ZM18.7173 29.7708H16.5C15.8763 29.7708 15.3913 30.3251 15.3913 30.8795C15.3913 31.5032 15.8763 31.9882 16.5 31.9882H18.7173C19.2717 31.9882 19.826 31.5032 19.826 30.8795C19.826 30.3251 19.2717 29.7708 18.7173 29.7708ZM25.3695 29.7708H23.1521C22.5284 29.7708 22.0434 30.3251 22.0434 30.8795C22.0434 31.5032 22.5284 31.9882 23.1521 31.9882H25.3695C25.9239 31.9882 26.4782 31.5032 26.4782 30.8795C26.4782 30.3251 25.9239 29.7708 25.3695 29.7708ZM32.0217 29.7708H29.8043C29.1806 29.7708 28.6956 30.3251 28.6956 30.8795C28.6956 31.5032 29.1806 31.9882 29.8043 31.9882H32.0217C32.5761 31.9882 33.1304 31.5032 33.1304 30.8795C33.1304 30.3251 32.5761 29.7708 32.0217 29.7708ZM17.6087 16.4665C15.1141 16.4665 13.1739 18.476 13.1739 20.9012C13.1739 23.3958 15.1141 25.336 17.6087 25.336C20.0339 25.336 22.0434 23.3958 22.0434 20.9012C22.0434 18.476 20.0339 16.4665 17.6087 16.4665ZM17.6087 23.1186C16.3614 23.1186 15.3913 22.1485 15.3913 20.9012C15.3913 19.7233 16.3614 18.6838 17.6087 18.6838C18.7866 18.6838 19.826 19.7233 19.826 20.9012C19.826 22.1485 18.7866 23.1186 17.6087 23.1186ZM30.913 16.4665C28.4185 16.4665 26.4782 18.476 26.4782 20.9012C26.4782 23.3958 28.4185 25.336 30.913 25.336C33.3383 25.336 35.3478 23.3958 35.3478 20.9012C35.3478 18.476 33.3383 16.4665 30.913 16.4665ZM30.913 23.1186C29.6657 23.1186 28.6956 22.1485 28.6956 20.9012C28.6956 19.7233 29.6657 18.6838 30.913 18.6838C32.091 18.6838 33.1304 19.7233 33.1304 20.9012C33.1304 22.1485 32.091 23.1186 30.913 23.1186Z" fill="black"/>
</svg>
