<svg width="48" height="49" viewBox="0 0 48 49" fill="none" xmlns="http://www.w3.org/2000/svg">
<g opacity="0.75">
<path d="M33.1304 10.3763H25.3695V4.83282C25.3695 4.27847 24.8151 3.72412 24.2608 3.72412C23.6371 3.72412 23.1521 4.27847 23.1521 4.83282V10.3763H15.3913C11.6495 10.3763 8.73909 13.3559 8.73909 17.0285V32.5502C8.73909 36.292 11.6495 39.2024 15.3913 39.2024H33.1304C36.8029 39.2024 39.7826 36.292 39.7826 32.5502V17.0285C39.7826 13.3559 36.8029 10.3763 33.1304 10.3763ZM37.5652 30.3328H36.4565C35.8328 30.3328 35.3478 30.8871 35.3478 31.4415C35.3478 32.0652 35.8328 32.5502 36.4565 32.5502H37.5652C37.5652 35.0447 35.5556 36.985 33.1304 36.985H15.3913C12.8967 36.985 10.9565 35.0447 10.9565 32.5502H12.0652C12.6196 32.5502 13.1739 32.0652 13.1739 31.4415C13.1739 30.8871 12.6196 30.3328 12.0652 30.3328H10.9565V17.0285C10.9565 14.6032 12.8967 12.5937 15.3913 12.5937H33.1304C35.5556 12.5937 37.5652 14.6032 37.5652 17.0285V30.3328ZM4.58147 19.5923C4.78936 19.3844 5.06653 19.2459 5.3437 19.2459C5.96735 19.2459 6.4524 18.7609 6.5217 18.1372C6.5217 17.5828 5.96735 17.0285 5.413 17.0285C4.51219 17.0285 3.68066 17.3749 3.05703 17.9986C2.43338 18.6222 2.08691 19.523 2.08691 20.3546V29.2241C2.08691 31.0951 3.54208 32.5502 5.3437 32.5502C5.96735 32.5502 6.4524 32.0652 6.4524 31.4415C6.4524 30.8871 5.96735 30.3328 5.3437 30.3328C4.78936 30.3328 4.30431 29.8478 4.30431 29.2241V20.3546C4.30431 20.0774 4.3736 19.8002 4.58147 19.5923ZM43.1087 17.0285C42.485 17.0285 42 17.5828 42 18.1372C42 18.7609 42.485 19.2459 43.1087 19.2459C43.6631 19.2459 44.2173 19.8002 44.2173 20.3546V29.2241C44.2173 29.5013 44.0788 29.7785 43.8709 29.9864C43.6631 30.2635 43.3858 30.3328 43.1087 30.3328C42.485 30.3328 42 30.8871 42 31.4415C41.9307 32.0652 42.485 32.5502 43.0394 32.5502C43.9402 32.5502 44.7716 32.2731 45.3953 31.6494C46.019 30.9565 46.4347 30.125 46.4347 29.2241V20.3546C46.4347 18.5529 44.9103 17.0285 43.1087 17.0285ZM18.7173 30.3328H16.5C15.8763 30.3328 15.3913 30.8871 15.3913 31.4415C15.3913 32.0652 15.8763 32.5502 16.5 32.5502H18.7173C19.2717 32.5502 19.826 32.0652 19.826 31.4415C19.826 30.8871 19.2717 30.3328 18.7173 30.3328ZM25.3695 30.3328H23.1521C22.5284 30.3328 22.0434 30.8871 22.0434 31.4415C22.0434 32.0652 22.5284 32.5502 23.1521 32.5502H25.3695C25.9239 32.5502 26.4782 32.0652 26.4782 31.4415C26.4782 30.8871 25.9239 30.3328 25.3695 30.3328ZM32.0217 30.3328H29.8043C29.1806 30.3328 28.6956 30.8871 28.6956 31.4415C28.6956 32.0652 29.1806 32.5502 29.8043 32.5502H32.0217C32.5761 32.5502 33.1304 32.0652 33.1304 31.4415C33.1304 30.8871 32.5761 30.3328 32.0217 30.3328ZM17.6087 17.0285C15.1141 17.0285 13.1739 19.038 13.1739 21.4633C13.1739 23.9578 15.1141 25.898 17.6087 25.898C20.0339 25.898 22.0434 23.9578 22.0434 21.4633C22.0434 19.038 20.0339 17.0285 17.6087 17.0285ZM17.6087 23.6806C16.3614 23.6806 15.3913 22.7105 15.3913 21.4633C15.3913 20.2853 16.3614 19.2459 17.6087 19.2459C18.7866 19.2459 19.826 20.2853 19.826 21.4633C19.826 22.7105 18.7866 23.6806 17.6087 23.6806ZM30.913 17.0285C28.4185 17.0285 26.4782 19.038 26.4782 21.4633C26.4782 23.9578 28.4185 25.898 30.913 25.898C33.3383 25.898 35.3478 23.9578 35.3478 21.4633C35.3478 19.038 33.3383 17.0285 30.913 17.0285ZM30.913 23.6806C29.6657 23.6806 28.6956 22.7105 28.6956 21.4633C28.6956 20.2853 29.6657 19.2459 30.913 19.2459C32.091 19.2459 33.1304 20.2853 33.1304 21.4633C33.1304 22.7105 32.091 23.6806 30.913 23.6806Z" fill="black"/>
</g>
</svg>
