<svg width="48" height="48" viewBox="0 0 48 48" fill="none" xmlns="http://www.w3.org/2000/svg">
<g clip-path="url(#clip0_3_699)">
<path d="M27.9967 22.4615C27.9967 20.9792 27.4699 19.7111 26.4162 18.6575C25.3626 17.6038 24.0946 17.0769 22.6122 17.0769C21.1298 17.0769 19.8618 17.6038 18.8081 18.6575C17.7544 19.7111 17.2276 20.9792 17.2276 22.4615C17.2276 23.9439 17.7544 25.2119 18.8081 26.2657C19.8618 27.3193 21.1298 27.8462 22.6122 27.8462C24.0946 27.8462 25.3626 27.3193 26.4162 26.2657C27.4699 25.2119 27.9967 23.9439 27.9967 22.4615ZM34.1507 32.4615C34.1507 32.8782 33.9984 33.2387 33.6939 33.5432C33.3894 33.8477 33.0288 34 32.6122 34C32.1795 34 31.8189 33.8477 31.5304 33.5432L27.4078 29.4327C25.9736 30.4262 24.375 30.9231 22.6122 30.9231C21.4663 30.9231 20.3706 30.7007 19.3249 30.256C18.2792 29.8113 17.3778 29.2103 16.6206 28.4532C15.8634 27.6959 15.2624 26.7945 14.8177 25.7488C14.373 24.7032 14.1506 23.6073 14.1506 22.4615C14.1506 21.3157 14.373 20.2199 14.8177 19.1743C15.2624 18.1286 15.8634 17.2272 16.6206 16.4699C17.3778 15.7127 18.2792 15.1118 19.3249 14.6671C20.3706 14.2224 21.4663 14 22.6122 14C23.758 14 24.8537 14.2224 25.8994 14.6671C26.9451 15.1118 27.8466 15.7127 28.6037 16.4699C29.361 17.2272 29.9619 18.1286 30.4067 19.1743C30.8513 20.2199 31.0737 21.3157 31.0737 22.4615C31.0737 24.2243 30.5769 25.8229 29.5833 27.2572L33.7059 31.3798C34.0024 31.6763 34.1507 32.0368 34.1507 32.4615Z" fill="black"/>
</g>
<defs>
<clipPath id="clip0_3_699">
<rect width="20" height="20" fill="white" transform="translate(14 14)"/>
</clipPath>
</defs>
</svg>
