<svg width="16" height="17" viewBox="0 0 16 17" fill="none" xmlns="http://www.w3.org/2000/svg">
<g clip-path="url(#clip0_3_295)">
<path d="M15.5009 3.70008C14.8309 2.30276 12.9006 1.1595 10.6553 1.82513C9.58235 2.14002 8.64624 2.81534 7.99989 3.74073C7.35353 2.81534 6.41743 2.14002 5.34449 1.82513C3.09417 1.16966 1.16889 2.30276 0.498786 3.70008C-0.441352 5.65633 -0.0512948 7.85648 1.65896 10.2395C2.99916 12.1043 4.91444 13.9945 7.69484 16.1896C7.78272 16.2592 7.89096 16.297 8.00239 16.297C8.11383 16.297 8.22207 16.2592 8.30993 16.1896C11.0853 13.9996 13.0056 12.1247 14.3459 10.2395C16.0511 7.85648 16.4411 5.65633 15.5009 3.70008Z" fill="#F2A9DF"/>
</g>
<defs>
<clipPath id="clip0_3_295">
<rect width="16" height="16" fill="white" transform="translate(0 0.296875)"/>
</clipPath>
</defs>
</svg>
