<svg width="20" height="28" viewBox="0 0 20 28" fill="none" xmlns="http://www.w3.org/2000/svg">
<g clip-path="url(#clip0_3_495)">
<path d="M7.67742 17.1332C7.48862 16.9449 7.23256 16.8392 6.96557 16.8392C6.69857 16.8392 6.44251 16.9449 6.25372 17.1332C6.06493 17.3216 5.95886 17.5769 5.95886 17.8432C5.95886 18.1095 6.06493 18.3649 6.25372 18.5532L9.26153 21.5532C9.35522 21.6459 9.46632 21.7192 9.58847 21.769C9.71063 21.8187 9.84143 21.844 9.97338 21.8432C10.1106 21.8389 10.2455 21.8064 10.3697 21.748C10.4939 21.6895 10.6047 21.6062 10.6953 21.5032L17.7135 13.5032C17.8755 13.3026 17.9537 13.0473 17.9316 12.7905C17.9095 12.5338 17.7889 12.2955 17.595 12.1253C17.4011 11.955 17.1487 11.866 16.8906 11.8769C16.6325 11.8877 16.3885 11.9974 16.2096 12.1832L9.97338 19.3832L7.67742 17.1332Z" fill="white"/>
<path d="M18.9974 16.8438C18.7315 16.8438 18.4765 16.9491 18.2884 17.1366C18.1004 17.3242 17.9948 17.5785 17.9948 17.8438C17.9948 19.9655 17.1497 22.0004 15.6455 23.5007C14.1413 25.0009 12.1012 25.8438 9.97396 25.8438C8.38993 25.8431 6.84159 25.3745 5.52417 24.4972C4.20674 23.62 3.17924 22.3734 2.57121 20.9145C1.96319 19.4556 1.80188 17.8498 2.10762 16.2996C2.41336 14.7494 3.17246 13.3242 4.2892 12.2038C5.03183 11.4531 5.9171 10.8578 6.89322 10.4526C7.86933 10.0473 8.91667 9.84036 9.97396 9.84375C10.6151 9.84775 11.2538 9.92152 11.8789 10.0638C12.0097 10.1041 12.1474 10.1173 12.2835 10.1026C12.4197 10.0878 12.5513 10.0454 12.6704 9.97793C12.7894 9.91048 12.8934 9.81942 12.9758 9.71037C13.0582 9.60132 13.1174 9.47659 13.1496 9.34386C13.1818 9.21114 13.1865 9.07323 13.1632 8.93865C13.14 8.80407 13.0894 8.67566 13.0144 8.56134C12.9395 8.44702 12.842 8.34922 12.7277 8.27396C12.6134 8.1987 12.485 8.14758 12.3501 8.12375C11.5713 7.94099 10.7741 7.84706 9.97396 7.84375C7.99315 7.85401 6.05978 8.44927 4.41783 9.5544C2.77587 10.6595 1.49892 12.225 0.748117 14.0533C-0.00268441 15.8815 -0.193689 17.8907 0.199207 19.8272C0.592104 21.7636 1.55129 23.5406 2.95573 24.9338C4.81726 26.7913 7.34077 27.8377 9.97396 27.8438C12.633 27.8438 15.1832 26.7902 17.0634 24.9149C18.9437 23.0395 20 20.4959 20 17.8438C20 17.5785 19.8944 17.3242 19.7063 17.1366C19.5183 16.9491 19.2633 16.8438 18.9974 16.8438Z" fill="white"/>
</g>
<defs>
<clipPath id="clip0_3_495">
<rect width="20" height="20" fill="white" transform="translate(0 7.84375)"/>
</clipPath>
</defs>
</svg>
