<svg width="144" height="38" viewBox="0 0 144 38" fill="none" xmlns="http://www.w3.org/2000/svg">
<g clip-path="url(#clip0_3_674)">
<path d="M65.8198 23.3015C65.8198 16.4202 69.9418 12.8755 76.083 12.8755C82.2243 12.8755 86.3462 16.3782 86.3462 23.3015V34.0189H81.341V23.3017C81.341 19.3807 79.2377 17.5042 76.0835 17.5042C72.9294 17.5042 70.8261 19.3807 70.8261 23.3017V34.0189H65.8198V23.3015Z" fill="#333333"/>
<path d="M63.0493 24.1352C63.0493 31.0164 58.9273 34.5612 52.7861 34.5612C46.6449 34.5612 42.5229 31.0585 42.5229 24.1352V4.40918L47.528 7.76182V24.1351C47.528 28.056 49.6314 29.9323 52.7855 29.9323C55.9396 29.9323 58.0429 28.056 58.0429 24.1351V4.40918L63.0482 7.76182L63.0493 24.1352Z" fill="#333333"/>
<path d="M89.6812 4.40918L94.6864 7.76182V34.0189H89.6812V4.40918Z" fill="#333333"/>
<path d="M97.1006 23.7178C97.1006 17.463 101.727 12.8755 108.289 12.8755C114.851 12.8755 119.477 17.463 119.477 23.7178C119.477 29.9727 114.851 34.561 108.289 34.561C101.727 34.561 97.1006 29.9735 97.1006 23.7178ZM114.388 23.7178C114.388 20.09 111.948 17.504 108.289 17.504C104.63 17.504 102.149 20.09 102.149 23.7178C102.149 27.3457 104.63 29.9316 108.289 29.9316C111.947 29.9316 114.388 27.3466 114.388 23.7178Z" fill="#333333"/>
<path d="M121.514 23.7178C121.514 17.463 126.14 12.8755 132.702 12.8755C138.337 12.8755 142.459 16.2531 143.469 21.1327H138.422C137.539 18.9221 135.436 17.504 132.702 17.504C129.043 17.504 126.56 20.09 126.56 23.7178C126.56 27.3457 129.043 29.9316 132.702 29.9316C135.435 29.9316 137.539 28.5148 138.422 26.3037H143.469C142.459 31.1834 138.337 34.561 132.702 34.561C126.14 34.5609 121.514 29.9735 121.514 23.7178Z" fill="#333333"/>
<path d="M15.9926 0.994629V6.34028L7.99982 0.994629V6.34028L0.00683594 0.994629V23.5588C0.00683594 23.6093 0.00683714 23.6592 0.00807967 23.7091C0.0500554 27.5179 1.61064 31.1556 4.3489 33.8272C7.08716 36.4988 10.7805 37.9872 14.622 37.9674C18.4636 37.9475 22.1411 36.4209 24.8511 33.7212C27.5611 31.0214 29.0834 27.3679 29.0854 23.5588V9.75082L15.9926 0.994629ZM27.3731 16.7582V22.9863L27.3601 22.9779C27.3686 23.1705 27.3731 23.3649 27.3731 23.5593C27.3731 23.7717 27.368 23.9832 27.3576 24.1938C27.3472 24.4044 27.3318 24.6138 27.3111 24.8221C27.2602 25.3405 27.1772 25.8553 27.0626 26.3637C26.9486 26.868 26.8034 27.3649 26.6277 27.8515C26.5927 27.9486 26.5565 28.0452 26.5191 28.1413C26.4446 28.3337 26.365 28.5241 26.2805 28.7127C26.027 29.2794 25.7316 29.8268 25.3968 30.3504C25.2848 30.5254 25.1684 30.6978 25.0474 30.8678C24.9264 31.0377 24.8011 31.2051 24.6714 31.3699C23.8864 32.3653 22.9588 33.2415 21.9182 33.9707C20.9801 34.6271 19.9566 35.1541 18.8757 35.5376C18.6799 35.607 18.4823 35.6717 18.2828 35.7316C16.0065 36.4103 13.5858 36.4563 11.2849 35.8645C10.2347 35.5927 9.22413 35.1882 8.27801 34.6608C8.19187 34.6129 8.10634 34.5639 8.02143 34.514C7.24925 34.0595 6.52723 33.526 5.86716 32.9224C7.1158 33.5368 8.47497 33.8996 9.86594 33.9896C11.257 34.0796 12.6521 33.8951 13.9707 33.4467C15.2893 32.9983 16.5051 32.295 17.5477 31.3775C18.5902 30.46 19.4387 29.3465 20.0443 28.1015C20.0806 28.0277 20.116 27.9529 20.1506 27.8771C20.3949 27.3455 20.5934 26.7945 20.7441 26.2299C20.7874 26.0671 20.8269 25.9029 20.8625 25.7371C20.8981 25.5714 20.9296 25.4043 20.9571 25.2358C20.971 25.1518 20.9837 25.0671 20.9954 24.9822C21.0187 24.8125 21.038 24.6415 21.0531 24.4691C21.0682 24.2967 21.079 24.1233 21.0855 23.949H21.0929V18.7853V9.75033L17.7053 7.48469V4.18687L27.3736 10.6531L27.3731 16.7582ZM1.71902 23.5497V4.18687L7.99982 8.38798L8.85617 8.96037L9.71188 9.53289L10.1337 9.81509L11.0621 10.4358L11.3874 10.6535V23.3598C11.3874 23.3899 11.3874 23.4205 11.3885 23.4505C11.4037 24.2551 11.6222 25.043 12.024 25.7422C12.4257 26.4412 12.998 27.0293 13.6884 27.4524C14.3787 27.8755 15.165 28.1201 15.9753 28.1638C16.7857 28.2076 17.5942 28.0491 18.3267 27.7028C17.3756 29.4576 15.8497 30.8384 14.0006 31.6175C12.1514 32.3965 10.0897 32.5273 8.15563 31.9882C7.94805 31.93 7.74357 31.8647 7.54219 31.7921C6.8765 31.5524 6.24238 31.2338 5.65358 30.8435C5.47822 30.7274 5.30745 30.6053 5.14129 30.4771C5.08595 30.4345 5.03112 30.3912 4.97678 30.3472C4.26924 29.7751 3.65468 29.0985 3.15463 28.3412C3.07759 28.2245 3.00337 28.1059 2.93197 27.9856C2.89618 27.9252 2.86118 27.8646 2.82697 27.8035C2.75839 27.6813 2.6927 27.5573 2.62991 27.4316C2.40842 26.9884 2.22552 26.5274 2.0832 26.0532C2.04178 25.9167 2.0041 25.7789 1.97013 25.6398C1.95299 25.5702 1.93667 25.5004 1.92118 25.4303C1.79542 24.8587 1.72781 24.2759 1.7194 23.6908C1.7194 23.6473 1.71828 23.6037 1.71828 23.5599L1.71902 23.5497ZM9.71188 4.18724L15.9926 8.38836L16.8491 8.96074L17.5933 9.45847L17.7051 9.53325L19.3806 10.6544V23.3488L19.3778 23.347C19.3778 23.3544 19.3778 23.3618 19.3778 23.3699C19.3778 23.389 19.3789 23.4083 19.3789 23.4281C19.3792 23.4324 19.3792 23.4368 19.3789 23.4412C19.3725 23.698 19.3338 23.9533 19.264 24.2007C19.2503 24.2491 19.2354 24.2972 19.2193 24.3447C19.1873 24.4398 19.1508 24.5328 19.1101 24.6236C18.968 24.9394 18.774 25.2295 18.5361 25.4822C18.4685 25.5541 18.3976 25.6226 18.3236 25.6879C18.2496 25.7531 18.1726 25.8147 18.0926 25.8726C17.5547 26.2636 16.905 26.4741 16.2381 26.4738C15.5712 26.4736 14.9217 26.2623 14.3841 25.8709C14.0634 25.6373 13.79 25.3458 13.5783 25.0116C13.5254 24.9281 13.4764 24.8418 13.4315 24.7528C13.4089 24.7085 13.3875 24.6636 13.3673 24.6181C13.2002 24.2445 13.1094 23.8417 13.1004 23.433C13.0992 23.4084 13.0992 23.3844 13.0992 23.3599V9.75132L12.4178 9.29548L9.71163 7.48555L9.71188 4.18724Z" fill="#333333"/>
</g>
<defs>
<clipPath id="clip0_3_674">
<rect width="144" height="38" fill="white"/>
</clipPath>
</defs>
</svg>
