<svg width="186" height="49" viewBox="0 0 186 49" fill="none" xmlns="http://www.w3.org/2000/svg">
<g clip-path="url(#clip0_3_623)">
<path d="M85.2178 29.4797C85.2178 20.5688 90.5555 15.9785 98.5083 15.9785C106.461 15.9785 111.799 20.5144 111.799 29.4797V43.3584H105.317V29.48C105.317 24.4025 102.593 21.9726 98.5089 21.9726C94.4244 21.9726 91.7007 24.4025 91.7007 29.48V43.3584H85.2178V29.4797Z" fill="white"/>
<path d="M81.6318 30.5592C81.6318 39.4702 76.2939 44.0606 68.3413 44.0606C60.3887 44.0606 55.0508 39.5246 55.0508 30.5592V5.01465L61.5322 9.35622V30.5591C61.5322 35.6364 64.256 38.0664 68.3405 38.0664C72.425 38.0664 75.1487 35.6364 75.1487 30.5591V5.01465L81.6304 9.35622L81.6318 30.5592Z" fill="white"/>
<path d="M116.12 5.01465L122.602 9.35622V43.3583H116.12V5.01465Z" fill="white"/>
<path d="M125.724 30.019C125.724 21.9191 131.715 15.9785 140.212 15.9785C148.709 15.9785 154.7 21.9191 154.7 30.019C154.7 38.1188 148.709 44.0606 140.212 44.0606C131.715 44.0606 125.724 38.1199 125.724 30.019ZM148.11 30.019C148.11 25.321 144.951 21.9722 140.212 21.9722C135.473 21.9722 132.26 25.321 132.26 30.019C132.26 34.7169 135.474 38.0655 140.212 38.0655C144.95 38.0655 148.11 34.7181 148.11 30.019Z" fill="white"/>
<path d="M157.339 30.019C157.339 21.9191 163.33 15.9785 171.827 15.9785C179.126 15.9785 184.463 20.3523 185.771 26.6713H179.235C178.091 23.8087 175.368 21.9722 171.827 21.9722C167.089 21.9722 163.875 25.321 163.875 30.019C163.875 34.7169 167.089 38.0655 171.827 38.0655C175.367 38.0655 178.091 36.2308 179.235 33.3676H185.771C184.463 39.6866 179.125 44.0606 171.827 44.0606C163.33 44.0604 157.339 38.1199 157.339 30.019Z" fill="white"/>
<path d="M20.7012 0.59375V7.5162L10.3507 0.59375V7.5162L0 0.59375V29.8137C0 29.8791 1.57137e-06 29.9438 0.00161059 30.0084C0.0559679 34.9407 2.07688 39.6513 5.62284 43.111C9.16881 46.5706 13.9516 48.4982 18.9263 48.4724C23.901 48.4467 28.6632 46.4699 32.1726 42.9737C35.682 39.4776 37.6533 34.7463 37.6558 29.8137V11.9327L20.7012 0.59375ZM35.4385 21.007V29.0723L35.4216 29.0613C35.4327 29.3108 35.4385 29.5626 35.4385 29.8144C35.4385 30.0894 35.4318 30.3633 35.4184 30.636C35.405 30.9087 35.385 31.1799 35.3582 31.4496C35.2922 32.1209 35.1847 32.7876 35.0364 33.4459C34.8888 34.099 34.7007 34.7425 34.4733 35.3726C34.4279 35.4983 34.381 35.6235 34.3326 35.748C34.2361 35.997 34.1331 36.2436 34.0236 36.4878C33.6953 37.2217 33.3128 37.9306 32.8792 38.6086C32.7343 38.8352 32.5835 39.0585 32.4268 39.2785C32.27 39.4986 32.1078 39.7154 31.9399 39.9288C30.9233 41.2178 29.7221 42.3524 28.3744 43.2967C27.1598 44.1467 25.8344 44.8292 24.4346 45.3257C24.181 45.4157 23.9251 45.4995 23.6669 45.577C20.7191 46.456 17.5844 46.5155 14.6048 45.7492C13.2448 45.3973 11.9361 44.8735 10.7109 44.1906C10.5994 44.1284 10.4886 44.0651 10.3787 44.0004C9.37871 43.4118 8.44371 42.721 7.58895 41.9393C9.20589 42.735 10.966 43.2047 12.7673 43.3213C14.5686 43.4378 16.3753 43.1988 18.0828 42.6181C19.7904 42.0375 21.3647 41.1268 22.7148 39.9386C24.0649 38.7505 25.1638 37.3086 25.9479 35.6964C25.9949 35.6007 26.0408 35.5039 26.0856 35.4058C26.4018 34.7175 26.6589 34.0039 26.8541 33.2727C26.9102 33.0619 26.9613 32.8491 27.0074 32.6345C27.0535 32.4199 27.0944 32.2035 27.13 31.9853C27.1479 31.8764 27.1645 31.767 27.1796 31.6569C27.2098 31.4373 27.2347 31.2157 27.2542 30.9925C27.2738 30.7693 27.2878 30.5448 27.2962 30.319H27.3057V23.6322V11.9321L22.9189 8.99818V4.7276L35.4392 13.1012L35.4385 21.007ZM2.21723 29.8018V4.7276L10.3507 10.1679L11.4596 10.9092L12.5677 11.6505L13.114 12.0161L14.3163 12.8198L14.7375 13.1018V29.556C14.7375 29.5949 14.7375 29.6346 14.739 29.6735C14.7586 30.7154 15.0415 31.7356 15.5618 32.641C16.0821 33.5463 16.8232 34.3079 17.7171 34.8558C18.6111 35.4037 19.6294 35.7204 20.6788 35.7771C21.7281 35.8337 22.7751 35.6285 23.7237 35.18C22.4921 37.4524 20.516 39.2406 18.1215 40.2495C15.727 41.2583 13.0571 41.4277 10.5524 40.7295C10.2836 40.6542 10.0188 40.5696 9.75807 40.4757C8.896 40.1651 8.07485 39.7527 7.31236 39.2472C7.08527 39.0968 6.86414 38.9387 6.64896 38.7727C6.5773 38.7175 6.50629 38.6614 6.43592 38.6045C5.51969 37.8636 4.72384 36.9875 4.0763 36.0067C3.97654 35.8555 3.88042 35.7021 3.78796 35.5462C3.74162 35.4681 3.6963 35.3896 3.65199 35.3105C3.56318 35.1523 3.47811 34.9916 3.3968 34.8288C3.10998 34.2549 2.87313 33.6578 2.68884 33.0439C2.6352 32.8671 2.58639 32.6886 2.54241 32.5084C2.52021 32.4184 2.49908 32.328 2.47902 32.2372C2.31616 31.4969 2.22861 30.7424 2.21771 29.9848C2.21771 29.9283 2.21626 29.8717 2.21626 29.8151L2.21723 29.8018ZM12.5677 4.72809L20.7012 10.1684L21.8101 10.9096L22.7739 11.5541L22.9187 11.651L25.0885 13.1028V29.5417L25.0848 29.5394C25.0848 29.549 25.0848 29.5587 25.0848 29.569C25.0848 29.5939 25.0862 29.6187 25.0862 29.6444C25.0866 29.65 25.0866 29.6558 25.0862 29.6614C25.0779 29.9941 25.0279 30.3245 24.9374 30.645C24.9196 30.7077 24.9004 30.7698 24.8796 30.8314C24.8381 30.9545 24.7909 31.0749 24.7381 31.1926C24.5541 31.6014 24.303 31.9771 23.9949 32.3044C23.9073 32.3975 23.8156 32.4862 23.7197 32.5707C23.6238 32.6551 23.5241 32.735 23.4206 32.8101C22.724 33.3163 21.8827 33.589 21.019 33.5886C20.1553 33.5882 19.3143 33.3147 18.6181 32.8078C18.2028 32.5053 17.8488 32.1278 17.5747 31.695C17.5062 31.5869 17.4428 31.4751 17.3845 31.3599C17.3553 31.3025 17.3276 31.2443 17.3013 31.1854C17.085 30.7015 16.9675 30.18 16.9557 29.6509C16.9543 29.619 16.9543 29.5877 16.9543 29.5562V11.9333L16.0719 11.3432L12.5674 8.99929L12.5677 4.72809Z" fill="url(#paint0_linear_3_623)"/>
<path d="M20.7012 0.59375V7.5162L10.3507 0.59375V7.5162L0 0.59375V29.8137C0 29.8791 1.57137e-06 29.9438 0.00161059 30.0084C0.0559679 34.9407 2.07688 39.6513 5.62284 43.111C9.16881 46.5706 13.9516 48.4982 18.9263 48.4724C23.901 48.4467 28.6632 46.4699 32.1726 42.9737C35.682 39.4776 37.6533 34.7463 37.6558 29.8137V11.9327L20.7012 0.59375ZM35.4385 21.007V29.0723L35.4216 29.0613C35.4327 29.3108 35.4385 29.5626 35.4385 29.8144C35.4385 30.0894 35.4318 30.3633 35.4184 30.636C35.405 30.9087 35.385 31.1799 35.3582 31.4496C35.2922 32.1209 35.1847 32.7876 35.0364 33.4459C34.8888 34.099 34.7007 34.7425 34.4733 35.3726C34.4279 35.4983 34.381 35.6235 34.3326 35.748C34.2361 35.997 34.1331 36.2436 34.0236 36.4878C33.6953 37.2217 33.3128 37.9306 32.8792 38.6086C32.7343 38.8352 32.5835 39.0585 32.4268 39.2785C32.27 39.4986 32.1078 39.7154 31.9399 39.9288C30.9233 41.2178 29.7221 42.3524 28.3744 43.2967C27.1598 44.1467 25.8344 44.8292 24.4346 45.3257C24.181 45.4157 23.9251 45.4995 23.6669 45.577C20.7191 46.456 17.5844 46.5155 14.6048 45.7492C13.2448 45.3973 11.9361 44.8735 10.7109 44.1906C10.5994 44.1284 10.4886 44.0651 10.3787 44.0004C9.37871 43.4118 8.44371 42.721 7.58895 41.9393C9.20589 42.735 10.966 43.2047 12.7673 43.3213C14.5686 43.4378 16.3753 43.1988 18.0828 42.6181C19.7904 42.0375 21.3647 41.1268 22.7148 39.9386C24.0649 38.7505 25.1638 37.3086 25.9479 35.6964C25.9949 35.6007 26.0408 35.5039 26.0856 35.4058C26.4018 34.7175 26.6589 34.0039 26.8541 33.2727C26.9102 33.0619 26.9613 32.8491 27.0074 32.6345C27.0535 32.4199 27.0944 32.2035 27.13 31.9853C27.1479 31.8764 27.1645 31.767 27.1796 31.6569C27.2098 31.4373 27.2347 31.2157 27.2542 30.9925C27.2738 30.7693 27.2878 30.5448 27.2962 30.319H27.3057V23.6322V11.9321L22.9189 8.99818V4.7276L35.4392 13.1012L35.4385 21.007ZM2.21723 29.8018V4.7276L10.3507 10.1679L11.4596 10.9092L12.5677 11.6505L13.114 12.0161L14.3163 12.8198L14.7375 13.1018V29.556C14.7375 29.5949 14.7375 29.6346 14.739 29.6735C14.7586 30.7154 15.0415 31.7356 15.5618 32.641C16.0821 33.5463 16.8232 34.3079 17.7171 34.8558C18.6111 35.4037 19.6294 35.7204 20.6788 35.7771C21.7281 35.8337 22.7751 35.6285 23.7237 35.18C22.4921 37.4524 20.516 39.2406 18.1215 40.2495C15.727 41.2583 13.0571 41.4277 10.5524 40.7295C10.2836 40.6542 10.0188 40.5696 9.75807 40.4757C8.896 40.1651 8.07485 39.7527 7.31236 39.2472C7.08527 39.0968 6.86414 38.9387 6.64896 38.7727C6.5773 38.7175 6.50629 38.6614 6.43592 38.6045C5.51969 37.8636 4.72384 36.9875 4.0763 36.0067C3.97654 35.8555 3.88042 35.7021 3.78796 35.5462C3.74162 35.4681 3.6963 35.3896 3.65199 35.3105C3.56318 35.1523 3.47811 34.9916 3.3968 34.8288C3.10998 34.2549 2.87313 33.6578 2.68884 33.0439C2.6352 32.8671 2.58639 32.6886 2.54241 32.5084C2.52021 32.4184 2.49908 32.328 2.47902 32.2372C2.31616 31.4969 2.22861 30.7424 2.21771 29.9848C2.21771 29.9283 2.21626 29.8717 2.21626 29.8151L2.21723 29.8018ZM12.5677 4.72809L20.7012 10.1684L21.8101 10.9096L22.7739 11.5541L22.9187 11.651L25.0885 13.1028V29.5417L25.0848 29.5394C25.0848 29.549 25.0848 29.5587 25.0848 29.569C25.0848 29.5939 25.0862 29.6187 25.0862 29.6444C25.0866 29.65 25.0866 29.6558 25.0862 29.6614C25.0779 29.9941 25.0279 30.3245 24.9374 30.645C24.9196 30.7077 24.9004 30.7698 24.8796 30.8314C24.8381 30.9545 24.7909 31.0749 24.7381 31.1926C24.5541 31.6014 24.303 31.9771 23.9949 32.3044C23.9073 32.3975 23.8156 32.4862 23.7197 32.5707C23.6238 32.6551 23.5241 32.735 23.4206 32.8101C22.724 33.3163 21.8827 33.589 21.019 33.5886C20.1553 33.5882 19.3143 33.3147 18.6181 32.8078C18.2028 32.5053 17.8488 32.1278 17.5747 31.695C17.5062 31.5869 17.4428 31.4751 17.3845 31.3599C17.3553 31.3025 17.3276 31.2443 17.3013 31.1854C17.085 30.7015 16.9675 30.18 16.9557 29.6509C16.9543 29.619 16.9543 29.5877 16.9543 29.5562V11.9333L16.0719 11.3432L12.5674 8.99929L12.5677 4.72809Z" fill="url(#paint1_radial_3_623)" fill-opacity="0.2"/>
</g>
<defs>
<linearGradient id="paint0_linear_3_623" x1="0" y1="0.59375" x2="34.5" y2="47.0938" gradientUnits="userSpaceOnUse">
<stop stop-color="#F4B6D4"/>
<stop offset="1" stop-color="#A4ABED"/>
</linearGradient>
<radialGradient id="paint1_radial_3_623" cx="0" cy="0" r="1" gradientUnits="userSpaceOnUse" gradientTransform="translate(4.5 40.5938) rotate(-25.6768) scale(28.8487 22.6889)">
<stop offset="0.21875" stop-color="#B290F1"/>
<stop offset="1" stop-color="#A6AAED" stop-opacity="0"/>
</radialGradient>
<clipPath id="clip0_3_623">
<rect width="186" height="48" fill="white" transform="translate(0 0.59375)"/>
</clipPath>
</defs>
</svg>
