<svg width="224" height="225" viewBox="0 0 224 225" fill="none" xmlns="http://www.w3.org/2000/svg">
<path d="M177.166 109.485C180.133 108.676 182.888 106.973 185.556 105.341V93.9004H86.7089L92.2027 209.568L185.556 207.737V148.179C182.774 148.704 179.935 149.002 177.067 149.187C172.752 149.967 167.91 150.705 163.354 150.435C163.268 150.563 163.112 150.662 162.913 150.662C161.324 150.733 159.535 150.733 158.101 149.953C156.511 149.101 156.028 147.242 156.611 145.595C157.306 143.636 159.649 142.643 161.451 141.948C163.538 141.153 165.725 140.684 167.91 140.3C168.932 139.634 169.969 139.01 171.033 138.413C171.984 137.774 173.006 137.107 174.057 136.468C176.641 134.197 179.779 132.352 182.831 131.401C182.859 130.876 182.888 130.393 182.902 129.953C182.419 129.826 181.951 129.684 181.482 129.513C180.105 129.002 178.884 128.094 177.692 127.072C177.18 127.214 176.613 127.128 176.258 126.732C174.299 124.475 172.539 122.459 169.7 121.593C168.706 121.707 167.712 121.82 166.718 121.735C166.619 121.721 166.534 121.693 166.448 121.65C164.646 122.715 163.126 124.361 162.502 126.22C161.565 129.016 161.423 131.997 160.714 134.836C159.96 137.817 158.669 141.393 156.44 143.594C154.765 145.255 152.891 145.922 151.06 144.077C149.484 142.501 151.358 138.484 150.747 136.767C148.491 136.497 145.424 135.873 142.131 134.396C136.41 131.856 140.682 124.999 145.679 120.316C146.602 119.45 148.235 119.875 149.115 119.166C150.549 118.016 151.6 116.27 152.451 115.802C155.447 114.155 155.929 114.979 157.845 114.34C160.117 113.587 161.962 109.883 164.362 109.485C168.677 108.776 172.78 110.678 177.166 109.485Z" fill="url(#paint0_linear_3_93)"/>
<path d="M184.109 194.607L176.557 188.773L194.174 165.835V183.394L184.109 194.607Z" fill="url(#paint1_linear_3_93)"/>
<path d="M135.43 15.918L137.262 89.4858H204.622L208.285 15.918H135.43Z" fill="url(#paint2_linear_3_93)"/>
<path d="M0 36.854L114.221 37.223V132.394L2.92439 134.225L0 36.854Z" fill="url(#paint3_linear_3_93)"/>
<path d="M212.615 121.067C212.444 121.067 212.289 120.996 212.175 120.869L203.614 111.287C203.401 111.047 203.416 110.663 203.657 110.436C203.899 110.223 204.282 110.237 204.509 110.478L212.487 119.406L222.864 99.2222C223.021 98.9244 223.376 98.8106 223.673 98.9674C223.972 99.1232 224.085 99.4779 223.929 99.7766L213.155 120.726C213.069 120.897 212.899 121.025 212.7 121.053C212.657 121.067 212.643 121.067 212.615 121.067Z" fill="url(#paint4_linear_3_93)"/>
<path d="M67.9859 169.271C67.8439 169.271 67.702 169.228 67.5885 169.129L61.0015 163.437C60.7459 163.224 60.7175 162.841 60.9446 162.599C61.1576 162.344 61.5408 162.316 61.7822 162.543L68.3692 168.235C68.6247 168.448 68.6531 168.83 68.4259 169.072C68.3266 169.2 68.1563 169.271 67.9859 169.271Z" fill="url(#paint5_linear_3_93)"/>
<path d="M61.3993 169.271C61.2289 169.271 61.0585 169.2 60.9449 169.058C60.732 168.803 60.7604 168.433 61.0018 168.22L67.5888 162.529C67.8442 162.316 68.2134 162.344 68.4263 162.586C68.6392 162.84 68.6109 163.21 68.3695 163.423L61.7825 169.114C61.6832 169.228 61.5412 169.271 61.3993 169.271Z" fill="url(#paint6_linear_3_93)"/>
<path d="M76.5022 61.6371C78.6741 59.3377 80.832 57.0383 83.004 54.7388C83.5292 54.1852 82.7058 53.3194 82.1664 53.8871L75.6646 60.7855C75.1393 61.3391 75.9769 62.2049 76.5022 61.6371Z" fill="url(#paint7_linear_3_93)"/>
<path d="M151.388 35.8181C149.856 34.1857 148.309 32.5534 146.775 30.9211C146.25 30.3534 145.398 31.205 145.924 31.7728C147.456 33.4051 149.004 35.0374 150.537 36.6697C151.077 37.2233 151.928 36.3717 151.388 35.8181Z" fill="white"/>
<path d="M146.361 39.6076C145.396 39.5224 144.445 39.4373 143.479 39.3521C142.712 39.2811 142.712 40.4876 143.479 40.5444C144.445 40.6296 145.396 40.7147 146.361 40.7999C147.127 40.885 147.127 39.6785 146.361 39.6076Z" fill="white"/>
<path d="M161.923 95.5181L192.005 95.5751C191.707 91.5442 189.492 80.6431 189.265 80.4586C188.683 76.7823 181.883 46.9321 178.703 38.8274C177.241 35.1085 175.75 31.4039 173.38 28.1677C173.352 28.125 171.676 27.4863 170.753 27.4863C170.314 27.9973 169.674 31.5458 169.49 32.0568C168.468 29.9276 167.119 26.9753 164.947 28.3806C163.031 29.6154 163.726 32.0851 164.309 34.413C164.209 34.4414 164.11 34.484 163.996 34.5124C163.343 33.2917 162.222 32.0851 161.271 31.0207C160.334 29.9703 158.318 30.9071 157.934 32.1278C157.806 32.5394 161.1 45.5412 161.554 47.0741C161.157 47.6418 156.6 45.1295 155.847 44.945C153.832 44.434 151.929 45.0302 150.595 46.6341C149.246 48.2664 147.813 50.0691 147.472 52.1414C146.918 55.4486 149.034 56.8113 150.113 56.2861L149.658 57.8759C148.721 57.4358 147.075 59.4513 147.046 59.65C145.441 62.5882 145.882 66.9174 148.125 69.444C148.238 69.5717 153.576 75.9164 156.997 78.6133C158.119 80.4159 159.113 82.2612 160.035 84.1632C160.035 84.4329 161.271 92.9493 161.923 95.5181ZM159.879 63.156C159.609 64.3483 159.028 65.356 158.005 65.8245C156.33 66.5909 154.982 65.9948 154.102 64.8592C153.618 64.5754 153.222 64.178 152.966 63.5818C152.596 62.7017 152.44 61.7508 152.185 60.8424C151.944 59.9481 151.588 59.1248 151.092 58.3584C149.985 57.6345 150.198 55.6048 151.83 55.6473C152.44 55.7041 152.639 54.526 153.051 53.9156C153.519 53.2344 154.116 52.7092 154.925 52.4678C156.415 52.0279 157.934 52.624 158.857 53.8163C160.617 56.1158 160.617 59.9056 160.121 62.6308C160.078 62.8295 159.993 63.014 159.879 63.156Z" fill="white"/>
<path d="M162.023 96.2704C161.711 96.2704 161.455 96.0296 161.427 95.7169C160.76 86.8741 158.687 80.8275 155.422 78.2299C152.426 75.817 142.887 67.3999 146.194 60.0615C147.089 58.0886 147.998 57.2369 148.793 56.9388C147.671 56.4846 146.976 55.3775 146.99 54.029C147.018 52.1128 147.998 48.2521 150.467 46.0236C151.788 44.8313 153.321 44.2919 155.025 44.4338C160.461 44.8739 162.477 48.3372 162.548 48.4792C162.704 48.7631 162.605 49.1321 162.322 49.2883C162.038 49.4443 161.668 49.345 161.498 49.0611C161.427 48.9334 159.695 46.0094 154.925 45.612C153.562 45.5127 152.327 45.9384 151.262 46.9036C149.19 48.7773 148.21 52.2122 148.182 54.0432C148.168 55.0085 148.707 55.7466 149.53 55.9169C150.283 56.0729 151.39 55.6897 152.029 54.1284C152.782 52.3258 154.456 51.2471 156.146 51.4883C157.352 51.6728 160.206 52.8367 160.916 59.8487C161.3 63.6243 160.178 65.2282 159.184 65.9094C158.02 66.7044 156.344 66.6902 154.698 65.8669C153.222 65.1146 151.703 63.6385 151.646 62.0061C151.575 60.1041 150.638 58.2021 149.673 58.0175C148.949 57.8899 148.069 58.7983 147.287 60.5441C144.946 65.7534 150.339 72.6091 156.175 77.2789C159.752 80.1319 161.924 86.3063 162.619 95.618C162.648 95.9437 162.392 96.2424 162.066 96.2564C162.052 96.2704 162.038 96.2704 162.023 96.2704ZM150.524 57.0808C151.902 57.833 152.767 60.0047 152.838 61.9777C152.867 62.9429 153.875 64.1352 155.238 64.8165C156.486 65.4411 157.707 65.4978 158.516 64.9443C159.567 64.2204 159.979 62.5171 159.738 59.9905C159.312 55.7039 157.906 52.9787 155.99 52.6948C154.84 52.5245 153.69 53.3193 153.151 54.611C152.512 56.144 151.489 56.8679 150.524 57.0808Z" fill="black"/>
<path d="M163.543 53.3051C163.288 53.3051 163.061 53.149 162.975 52.8935C157.893 38.0181 156.559 33.3909 157.595 31.3043C157.879 30.7224 158.361 30.325 159.072 30.0836C162.095 29.0617 164.367 34.0864 165.701 37.0813L165.8 37.2942C165.942 37.5923 165.8 37.9471 165.502 38.0891C165.204 38.2169 164.849 38.0891 164.707 37.791L164.608 37.5781C163.586 35.2928 161.47 30.552 159.44 31.2192C159.043 31.3469 158.802 31.5314 158.66 31.8295C157.794 33.5896 159.753 39.7781 164.097 52.496C164.211 52.8083 164.04 53.149 163.728 53.2626C163.685 53.2909 163.614 53.3051 163.543 53.3051Z" fill="black"/>
<path d="M169.604 51.2329C169.349 51.2329 169.122 51.0767 169.037 50.8212C163.954 35.9458 162.62 31.3185 163.656 29.232C163.94 28.65 164.422 28.2526 165.133 28.0113C168 27.0604 169.732 31.0347 170.996 33.9302L171.351 34.7251C171.492 35.0232 171.351 35.378 171.052 35.52C170.754 35.662 170.4 35.52 170.258 35.2219L169.902 34.4129C168.88 32.0709 167.348 28.5365 165.516 29.1468C165.119 29.2746 164.877 29.4591 164.735 29.7572C163.869 31.5172 165.828 37.7059 170.172 50.4237C170.286 50.736 170.116 51.0767 169.803 51.1902C169.732 51.2186 169.661 51.2329 169.604 51.2329Z" fill="black"/>
<path d="M191.793 96.2702C191.494 96.2702 191.224 96.0434 191.196 95.7307C188.924 72.2399 179.456 42.3188 177.113 36.3857C174.018 28.5931 172.23 27.8693 171.435 28.1532C171.037 28.2809 170.796 28.4654 170.654 28.7635C169.788 30.5094 171.747 36.6979 176.091 49.4443C176.191 49.7565 176.034 50.0971 175.722 50.2107C175.41 50.31 175.069 50.1539 174.955 49.8417C169.873 34.9521 168.553 30.3249 169.575 28.2383C169.859 27.6564 170.342 27.2589 171.052 27.0318C173.919 26.0666 176.532 31.6591 178.235 35.9599C180.592 41.9213 190.117 72.0128 192.403 95.6318C192.431 95.9584 192.189 96.2562 191.863 96.2851C191.835 96.2702 191.821 96.2702 191.793 96.2702Z" fill="black"/>
<path d="M173.792 73.3189C172.642 68.0103 168.114 64.4476 162.69 64.5895C161.924 64.6037 161.924 65.8102 162.69 65.7818C167.602 65.6683 171.605 68.8336 172.642 73.6311C172.798 74.3835 173.962 74.0712 173.792 73.3189Z" fill="black"/>
<path d="M200.392 96.27H133.033C132.706 96.27 132.436 96.0152 132.436 95.6885L130.605 22.1064C130.605 21.9503 130.661 21.7941 130.775 21.6806C130.889 21.567 131.045 21.4961 131.201 21.4961H204.056C204.225 21.4961 204.381 21.567 204.495 21.6806C204.609 21.7941 204.666 21.9644 204.666 22.1206L201.003 95.7025C200.975 96.0152 200.705 96.27 200.392 96.27ZM133.614 95.0781H199.825L203.43 22.7025H131.826L133.614 95.0781Z" fill="black"/>
<path d="M194.063 97.8745C190.983 100.955 185.291 108.193 176.986 108.904C168.681 109.613 167.347 108.435 164.394 109.499C161.441 110.564 157.878 113.758 157.878 113.758C157.878 113.758 154.216 114.964 152.072 116.256C149.942 117.561 148.892 120.017 148.892 120.017C148.892 120.017 146.194 119.506 144.846 120.883C143.497 122.26 143.54 124.318 143.54 124.318C143.54 124.318 140.331 125.865 139.977 128.704C139.622 131.557 140.02 134.723 143.058 135.105C146.095 135.489 146.024 137.121 147.685 136.879C149.346 136.639 150.808 135.716 150.808 135.716C150.808 135.716 149.232 141.266 150.425 142.458C151.617 143.651 153.86 144.36 155.521 142.927C157.183 141.493 161.455 132.848 163.23 124.9C163.883 121.99 169.334 120.216 172.486 122.884C175.637 125.553 181.202 134.155 179.953 135.928C178.717 137.703 164.649 140.428 162.165 141.621C159.681 142.813 156.472 143.878 156.472 146.12C156.472 148.363 156.047 150.819 163.372 150.421C170.697 150.024 185.291 149.073 187.548 147.54C189.804 145.993 194.078 143.04 194.078 143.04V97.8745H194.063Z" fill="white"/>
<path d="M100.809 205.352C100.497 205.352 100.227 205.096 100.213 204.784L94.7333 89.1025C94.7193 88.9322 94.7903 88.776 94.9032 88.6625C95.0171 88.549 95.1729 88.478 95.3437 88.478H132.893C133.219 88.478 133.489 88.7477 133.489 89.0741C133.489 89.4006 133.219 89.6703 132.893 89.6703H95.9541L101.377 204.131L193.567 202.315V95.6748C193.567 95.3481 193.837 95.0784 194.162 95.0784C194.489 95.0784 194.759 95.3481 194.759 95.6748V202.925C194.759 203.251 194.504 203.521 194.177 203.521L100.809 205.352C100.823 205.352 100.823 205.352 100.809 205.352Z" fill="black"/>
<path d="M99.2049 171.3C99.0631 171.3 98.9212 171.243 98.7933 171.144C98.5525 170.917 98.5385 170.548 98.7653 170.293L125.34 141.393C125.568 141.152 125.951 141.138 126.192 141.351C126.433 141.578 126.448 141.947 126.22 142.202L99.6455 171.101C99.5176 171.229 99.3617 171.3 99.2049 171.3Z" fill="black"/>
<path d="M136.027 117.022C135.885 117.022 135.743 116.965 135.63 116.866C135.388 116.64 135.36 116.27 135.587 116.015L149.017 101.026C149.244 100.784 149.613 100.756 149.868 100.983C150.11 101.211 150.138 101.579 149.911 101.835L136.481 116.823C136.354 116.965 136.198 117.022 136.027 117.022Z" fill="black"/>
<path d="M98.6925 148.107C98.5366 148.107 98.3808 148.05 98.2669 147.937C98.0401 147.695 98.0401 147.326 98.2669 147.085L105.521 139.775C105.762 139.548 106.131 139.548 106.373 139.775C106.6 140.016 106.6 140.385 106.373 140.627L99.119 147.937C98.9912 148.05 98.8344 148.107 98.6925 148.107Z" fill="black"/>
<path d="M144.743 193.5C144.615 193.5 144.487 193.457 144.389 193.373C144.119 193.174 144.076 192.804 144.275 192.534L161.097 170.321C161.296 170.051 161.679 170.008 161.934 170.207C162.204 170.406 162.247 170.776 162.048 171.045L145.226 193.259C145.098 193.429 144.928 193.5 144.743 193.5Z" fill="black"/>
<path d="M102.568 205.324C102.412 205.324 102.27 205.267 102.142 205.153C101.9 204.926 101.9 204.543 102.142 204.302L112.051 194.196C112.278 193.954 112.662 193.954 112.903 194.182C113.144 194.409 113.144 194.791 112.903 195.033L102.994 205.139C102.88 205.253 102.725 205.324 102.568 205.324Z" fill="black"/>
<path d="M147.5 183.99C147.259 183.99 147.032 183.848 146.947 183.607L137.676 159.689C137.563 159.378 137.705 159.037 138.017 158.909C138.329 158.795 138.67 158.937 138.798 159.25L148.068 183.166C148.182 183.479 148.04 183.82 147.727 183.948C147.642 183.976 147.571 183.99 147.5 183.99Z" fill="white"/>
<path d="M127.481 174.466C127.183 174.466 126.913 174.238 126.885 173.927C126.856 173.6 127.084 173.302 127.424 173.273L157.803 170.094C158.116 170.051 158.429 170.292 158.457 170.633C158.486 170.96 158.258 171.258 157.917 171.286L127.538 174.466C127.523 174.466 127.509 174.466 127.481 174.466Z" fill="white"/>
<path d="M165.257 204.088C165.129 204.088 165.001 204.046 164.888 203.961C164.633 203.762 164.576 203.379 164.774 203.123L193.692 165.467C193.891 165.211 194.274 165.154 194.529 165.353C194.785 165.552 194.842 165.935 194.643 166.19L165.725 203.847C165.612 204.003 165.442 204.088 165.257 204.088Z" fill="black"/>
<path d="M186.723 117.036L158.388 138.227C158.572 138.44 158.643 138.767 158.416 139.037C156.968 140.854 154.271 145.197 151.559 143.337L145.285 148.022L151.318 156.482L160.12 150.208C155.165 149.824 155.605 147.156 157.507 143.877C160.886 141.307 168.779 139.377 177.793 137.617L193.452 126.475L186.723 117.036Z" fill="white"/>
<path d="M151.333 157.078C151.149 157.078 150.964 156.993 150.85 156.822L144.817 148.362C144.632 148.093 144.689 147.724 144.945 147.539L150.907 143.082C151.177 142.884 151.546 142.941 151.745 143.21C151.943 143.48 151.887 143.849 151.631 144.047L146.138 148.149L151.475 155.644L159.779 149.725C160.049 149.526 160.419 149.597 160.617 149.867C160.816 150.137 160.745 150.506 160.476 150.705L151.673 156.978C151.574 157.049 151.446 157.078 151.333 157.078Z" fill="black"/>
<path d="M159.167 138.256C158.982 138.256 158.812 138.171 158.684 138.016C158.486 137.746 158.543 137.376 158.797 137.177L186.352 116.568C186.48 116.469 186.651 116.426 186.807 116.455C186.963 116.483 187.104 116.568 187.204 116.695L193.933 126.135C194.033 126.262 194.061 126.419 194.033 126.575C194.004 126.731 193.919 126.873 193.791 126.958L178.701 137.717C178.431 137.902 178.061 137.845 177.863 137.575C177.665 137.305 177.736 136.937 178.005 136.738L192.613 126.333L186.594 117.888L159.522 138.129C159.423 138.214 159.295 138.256 159.167 138.256Z" fill="black"/>
<path d="M193.453 127.071C193.424 127.071 193.382 127.071 193.353 127.057C193.197 127.029 193.055 126.943 192.97 126.815L186.255 117.377C186.056 117.107 186.127 116.738 186.397 116.539L188.74 114.864C190.386 113.686 192.559 113.459 194.418 114.283C194.631 114.382 194.773 114.594 194.773 114.836V125.95C194.773 126.149 194.674 126.319 194.518 126.433L193.794 126.943C193.694 127.043 193.581 127.071 193.453 127.071ZM187.562 117.178L193.566 125.61V115.248C192.175 114.765 190.628 114.978 189.421 115.844L187.562 117.178Z" fill="black"/>
<path d="M151.815 156.141L145.781 147.681C145.668 147.511 145.454 147.411 145.271 147.425C145.072 147.425 144.887 147.539 144.788 147.709L142.502 151.428L137.832 159.036C137.803 159.093 137.775 159.136 137.761 159.193C137.718 159.362 137.746 159.547 137.846 159.689C137.931 159.803 138.059 159.888 138.187 159.931C138.229 159.945 138.285 159.945 138.328 159.945C138.371 159.945 138.413 159.945 138.456 159.931L146.533 158.142L147.159 158L151.431 157.064C151.63 157.021 151.786 156.879 151.857 156.694C151.957 156.509 151.942 156.296 151.815 156.141ZM147.315 156.751L143.723 151.712L145.327 149.1L150.31 156.084L147.315 156.751Z" fill="black"/>
<path d="M162.106 150.818C158.983 150.818 156.683 150.393 155.76 148.973C155.094 147.951 155.221 146.588 156.158 144.828C157.904 141.563 164.151 140.173 170.198 138.839C174.699 137.845 179.355 136.809 180.306 135.176C180.476 134.893 180.831 134.793 181.129 134.964C181.413 135.134 181.512 135.488 181.342 135.787C180.135 137.873 175.65 138.867 170.468 140.017C164.96 141.238 158.713 142.628 157.223 145.41C156.513 146.73 156.371 147.709 156.768 148.335C157.918 150.094 163.738 149.668 167.586 149.371C168.438 149.314 169.375 149.257 170.369 149.186C177.906 148.731 189.277 148.036 193.707 142.486C193.92 142.231 194.289 142.189 194.544 142.387C194.8 142.6 194.843 142.969 194.644 143.225C189.888 149.186 178.19 149.896 170.44 150.379C169.446 150.435 168.523 150.492 167.671 150.562C165.641 150.704 163.767 150.818 162.106 150.818Z" fill="black"/>
<path d="M152.425 144.501C151.885 144.501 151.389 144.359 150.948 144.062C148.79 142.642 149.727 138.526 151.019 132.806C151.558 130.435 152.169 127.767 152.566 125.084C153.447 119.293 156.683 113.643 160.8 110.705C163.512 108.775 166.507 108.051 169.488 108.59C177.481 110.053 186.254 105.894 192.983 97.4481C193.195 97.1924 193.565 97.1504 193.821 97.3492C194.075 97.562 194.118 97.9307 193.92 98.1864C186.907 106.987 177.694 111.302 169.261 109.754C166.621 109.272 163.937 109.925 161.496 111.671C157.62 114.425 154.582 119.761 153.744 125.254C153.333 127.965 152.722 130.677 152.183 133.061C151.133 137.703 150.139 142.089 151.601 143.054C152.041 143.337 152.594 143.366 153.248 143.139C155.661 142.287 158.713 138.242 160.048 134.111C160.629 132.309 160.999 130.677 161.326 129.229C162.049 126.035 162.617 123.523 164.931 121.89C166.308 120.911 168.466 120.755 170.708 121.465C173.122 122.217 175.01 123.792 175.635 125.553C175.748 125.864 175.579 126.205 175.28 126.319C174.968 126.433 174.627 126.262 174.514 125.964C174.002 124.545 172.413 123.253 170.354 122.615C168.495 122.032 166.677 122.132 165.627 122.87C163.696 124.247 163.199 126.447 162.504 129.499C162.177 130.96 161.794 132.636 161.198 134.481C159.721 139.065 156.471 143.266 153.659 144.26C153.22 144.43 152.808 144.501 152.425 144.501Z" fill="black"/>
<path d="M150.254 136.071C150.112 136.071 149.956 136.014 149.842 135.915C144.334 130.805 145.313 125.411 146.392 122.658C148.337 117.689 153.363 113.771 157.863 113.757C158.19 113.757 158.459 114.027 158.459 114.354C158.459 114.68 158.19 114.95 157.863 114.95C153.888 114.964 149.247 118.626 147.5 123.097C146.534 125.567 145.654 130.421 150.651 135.049C150.893 135.275 150.907 135.659 150.68 135.9C150.58 136.014 150.424 136.071 150.254 136.071Z" fill="black"/>
<path d="M148.082 137.121C146.903 137.121 145.825 136.667 144.916 135.759C142.177 133.005 141.466 126.447 143.482 122.26C144.675 119.79 146.634 118.57 149.019 118.825C149.345 118.867 149.586 119.151 149.544 119.478C149.515 119.804 149.218 120.045 148.891 120.003C146.534 119.747 145.243 121.366 144.561 122.771C142.772 126.49 143.368 132.508 145.768 134.907C146.918 136.057 148.337 136.227 150.013 135.432C150.311 135.29 150.665 135.418 150.807 135.716C150.949 136.014 150.821 136.369 150.523 136.511C149.671 136.923 148.862 137.121 148.082 137.121Z" fill="black"/>
<path d="M145.497 136.07H145.482C140.841 135.928 139.548 133.487 139.194 132.053C138.37 128.661 140.755 124.346 143.367 122.884C143.651 122.728 144.021 122.827 144.177 123.111C144.333 123.395 144.234 123.764 143.95 123.92C141.763 125.141 139.676 128.987 140.357 131.756C140.826 133.7 142.615 134.779 145.511 134.864C145.838 134.878 146.108 135.147 146.093 135.474C146.079 135.815 145.809 136.07 145.497 136.07Z" fill="black"/>
<path d="M169.503 134.097C169.319 134.097 169.134 134.013 169.006 133.842C168.821 133.572 168.878 133.203 169.148 133.005L184.025 122.529C184.295 122.345 184.665 122.402 184.863 122.672C185.047 122.941 184.991 123.31 184.722 123.509L169.843 133.984C169.73 134.055 169.616 134.097 169.503 134.097Z" fill="black"/>
<path d="M103.252 69.3446C103.408 68.2517 102.499 66.8607 101.023 67.0878C89.3392 68.8052 77.6133 69.1317 66.7249 72.9073C56.4185 66.08 39.2412 63.4399 8.84741 66.151C8.30797 66.1936 7.85369 66.3923 7.54138 66.7471C7.58397 67.5704 7.64075 68.3936 7.66915 69.2169C7.74013 71.0337 7.65495 72.8506 7.61236 74.6816C7.59817 75.3062 7.58397 75.9307 7.56977 76.5411C7.79691 80.5296 7.98146 84.5181 8.05244 88.535C8.09503 91.0758 8.13761 93.6165 8.22279 96.1575V96.1715C8.23699 96.5971 8.25118 97.0376 8.27957 97.4632C8.33636 97.9028 8.39314 98.3293 8.44993 98.7689C8.42153 98.8259 8.40734 98.8828 8.39314 98.9538C8.16601 99.9468 8.60609 100.912 9.52884 101.394C10.5509 101.934 11.6299 101.579 12.6236 101.182C12.7655 101.125 12.9217 101.069 13.0637 101.012C15.0653 100.983 17.0527 100.969 19.0544 100.941C19.0828 100.955 19.1254 100.955 19.1537 100.969C22.2059 101.494 25.2723 101.963 28.3387 102.374C28.5374 103.495 28.7929 104.617 29.3324 105.61C29.4033 106.15 31.7741 108.761 32.924 109.584C33.3498 110.99 35.3089 111.984 36.8421 112.594C36.8705 112.622 36.8988 112.636 36.9415 112.665C36.9841 112.75 37.0124 112.849 37.0693 112.934C37.4951 113.559 38.0203 114.212 38.6025 114.836C39.1845 115.575 39.8801 116.242 40.4905 116.752C40.8312 117.122 41.2287 117.42 41.6404 117.661C41.7256 118.357 41.9811 119.052 42.4212 119.705C44.6358 122.927 50.9956 119.691 51.4499 119.705C52.1313 120.301 52.7985 120.897 53.4799 121.494C58.1362 125.539 63.8431 124.659 65.8873 120.5C67.0514 120.529 71.2251 120.202 72.1478 119.436C72.9995 118.725 73.5106 117.689 73.468 116.653C73.7093 116.441 77.0738 116.667 78.1811 115.533C78.9051 114.794 79.3168 112.878 79.2459 111.927C79.3168 111.998 79.3878 112.069 79.4871 112.097C80.3105 112.353 84.1861 111.246 84.9952 110.238C86.4149 108.449 86.358 106.051 85.2934 104.177C85.8044 103.879 86.3439 103.637 86.8975 103.438C90.7588 102.558 103.109 102.133 105.395 101.878C105.409 101.878 105.424 101.878 105.438 101.878C105.75 101.565 106.076 101.267 106.389 100.955C107.425 99.8899 108.405 98.712 109.228 97.4632C107.454 88.0382 105.466 78.6702 103.252 69.3446Z" fill="white"/>
<path d="M83.9898 93.7018C78.9786 93.5882 65.0097 85.7105 62.6247 84.348C60.8928 85.4976 52.6732 90.7636 48.67 89.6565C46.9948 89.2023 46.0721 88.4074 45.9301 87.3145C45.7172 85.7247 46.8529 82.7866 59.0047 75.647C69.3537 69.5719 80.7531 66.8608 120.956 66.8608C121.283 66.8608 121.553 67.1305 121.553 67.457C121.553 67.7834 121.283 68.0531 120.956 68.0531C81.037 68.0531 69.7654 70.7074 59.6152 76.6831C48.4144 83.2692 46.9807 86.0796 47.1226 87.1725C47.1935 87.7403 47.8324 88.1945 48.9965 88.521C52.2048 89.401 59.6719 84.9583 62.2699 83.1698C62.4544 83.042 62.7099 83.0279 62.9086 83.1414C63.0648 83.2407 78.9644 92.4102 84.004 92.5237C84.3305 92.5379 84.6002 92.8076 84.5861 93.1341C84.5861 93.4463 84.3163 93.7018 83.9898 93.7018Z" fill="black"/>
<path d="M120.955 65.1855H100.74L104.46 105.894H120.955V65.1855Z" fill="black"/>
<path d="M120.953 106.49H104.458C104.146 106.49 103.89 106.248 103.861 105.951L100.142 65.2423C100.128 65.072 100.185 64.9016 100.299 64.7881C100.412 64.6603 100.569 64.5894 100.738 64.5894H120.953C121.28 64.5894 121.55 64.859 121.55 65.1855V105.894C121.55 106.221 121.28 106.49 120.953 106.49ZM105.011 105.283H120.357V65.7817H101.392L105.011 105.283Z" fill="black"/>
<path d="M66.1433 73.4182C66.0155 73.4182 65.8736 73.3756 65.76 73.2763C61.9128 70.0968 51.0386 64.8734 21.5108 65.7392L20.2757 65.7818C15.8749 65.9379 11.3322 66.2218 6.78944 66.6051C6.46293 66.6335 6.16482 66.3921 6.13642 66.0656C6.10803 65.7392 6.34936 65.4411 6.67587 65.4128C11.2328 65.0295 15.7898 64.7456 20.2331 64.5895L21.4682 64.5469C51.3936 63.6811 62.5375 69.0748 66.5265 72.3679C66.7821 72.5808 66.8247 72.9498 66.6118 73.2053C66.484 73.3472 66.3137 73.4182 66.1433 73.4182Z" fill="black"/>
<path d="M30.6821 104.418C30.5401 104.418 30.3981 104.361 30.2705 104.261C29.007 103.097 26.3949 102.345 22.5478 102.033C22.1361 101.991 21.7386 101.963 21.2985 101.934C17.9766 101.735 13.7887 101.821 8.46523 102.146C8.13872 102.161 7.85479 101.92 7.8264 101.593C7.8122 101.266 8.05354 100.983 8.38005 100.955C13.7462 100.614 17.9908 100.543 21.3553 100.742C21.8095 100.77 22.2354 100.799 22.6471 100.841C26.8066 101.181 29.5748 102.005 31.0654 103.381C31.3067 103.609 31.3209 103.978 31.0937 104.233C31.0086 104.347 30.8525 104.418 30.6821 104.418Z" fill="black"/>
<path d="M80.2538 112.935C80.197 112.935 80.4526 112.892 80.4526 112.892C80.1261 112.878 79.5866 112.636 79.6008 112.31C79.615 111.984 79.9131 111.728 80.2254 111.742C80.3674 111.742 84.1294 111.813 84.8534 108.052C85.7051 103.595 80.1403 96.3272 69.6068 88.1233C69.3512 87.9246 69.2945 87.5413 69.5074 87.2858C69.7061 87.0303 70.0894 86.9736 70.345 87.1865C81.4179 95.8026 86.9828 103.296 86.0316 108.279C85.1941 112.721 80.8785 112.935 80.2538 112.935Z" fill="black"/>
<path d="M74.2909 117.023C74.2199 117.023 74.149 117.023 74.0779 117.023C73.7514 117.023 73.4817 116.739 73.4817 116.412C73.4817 116.086 73.7798 115.816 74.0921 115.816C76.69 115.873 78.209 115.135 78.6207 113.644C79.9268 108.918 70.8839 97.8464 63.5444 93.6164C63.2605 93.446 63.1612 93.0912 63.3315 92.7931C63.5019 92.5092 63.8568 92.4098 64.1549 92.5802C71.1536 96.6116 81.3605 108.279 79.7848 113.971C79.3873 115.376 78.1238 117.023 74.2909 117.023Z" fill="black"/>
<path d="M67.7187 121.139C67.2076 121.139 66.6682 121.11 66.1004 121.068C65.7738 121.039 65.5325 120.755 65.5609 120.415C65.5893 120.088 65.8874 119.847 66.2139 119.875C69.6636 120.173 71.722 119.535 72.3041 117.973C73.9366 113.672 65.277 103.084 58.8603 98.3144C58.5906 98.1156 58.5339 97.7469 58.7326 97.4772C58.9314 97.2075 59.3146 97.1645 59.5701 97.3493C65.3479 101.65 75.4839 112.977 73.4256 118.4C72.7158 120.23 70.7993 121.139 67.7187 121.139Z" fill="black"/>
<path d="M60.0969 124.644C57.6126 124.644 54.7733 123.495 52.3742 120.585C52.1613 120.33 52.2038 119.946 52.4594 119.747C52.7149 119.534 53.084 119.577 53.297 119.833C56.4343 123.622 60.3524 124.077 62.8509 122.827C64.668 121.919 65.534 120.287 65.1223 118.555C64.2705 114.978 59.1173 108.875 52.0051 102.985C51.7496 102.772 51.7069 102.402 51.9199 102.146C52.1329 101.892 52.5019 101.863 52.7575 102.061C60.1679 108.193 65.3495 114.41 66.2722 118.286C66.8116 120.542 65.6759 122.756 63.3619 123.906C62.4251 124.375 61.3036 124.644 60.0969 124.644Z" fill="black"/>
<path d="M34.6979 109.088C33.7467 109.088 32.9517 108.903 32.3129 108.662C30.0416 107.782 28.3948 105.596 27.7986 102.658C27.7276 102.331 27.9405 102.02 28.267 101.948C28.5935 101.877 28.9059 102.091 28.9768 102.416C29.4879 104.943 30.8649 106.803 32.753 107.54C34.996 108.407 37.8068 107.668 40.8732 105.411C43.3574 103.58 44.4931 101.863 43.9111 100.799C43.3291 99.734 41.1855 99.3933 39.4251 100.075C35.7909 101.48 31.0353 104.305 30.9926 104.333C30.7087 104.503 30.3397 104.403 30.1693 104.12C29.9989 103.836 30.0983 103.467 30.3822 103.297C30.5809 103.184 35.2799 100.401 38.9992 98.9537C41.3558 98.0307 44.0957 98.6131 44.9758 100.217C45.5153 101.196 45.785 103.283 41.583 106.363C38.7722 108.435 36.4723 109.088 34.6979 109.088Z" fill="black"/>
<path d="M38.3323 113.644C37.7219 113.644 37.1257 113.559 36.572 113.389C34.5703 112.807 32.9378 111.189 31.8589 108.705C31.7311 108.406 31.8589 108.052 32.1712 107.91C32.4694 107.782 32.8242 107.91 32.9662 108.222C33.6193 109.712 34.8401 111.628 36.9269 112.239C38.8008 112.792 41.0437 112.211 43.5849 110.507C46.992 108.237 47.3043 106.831 47.1907 106.207C47.0203 105.326 45.7853 104.56 43.7836 104.135C43.4572 104.064 43.2584 103.751 43.3294 103.424C43.4003 103.098 43.7126 102.899 44.0392 102.971C46.5945 103.538 48.0993 104.574 48.3547 105.994C48.6671 107.64 47.2759 109.485 44.2379 111.515C42.1085 112.934 40.1352 113.644 38.3323 113.644Z" fill="black"/>
<path d="M42.5079 117.988C42.011 117.988 41.5567 117.931 41.1592 117.831C39.1292 117.362 37.4399 115.816 36.4036 113.459C36.2758 113.161 36.4036 112.807 36.7159 112.665C37.014 112.537 37.3688 112.665 37.5108 112.977C38.391 114.964 39.7822 116.284 41.4289 116.667C43.388 117.122 45.6878 116.298 48.0728 114.282C49.9892 112.665 50.912 111.061 50.628 109.883C50.3299 108.69 48.8535 108.122 47.6611 107.867C47.3345 107.796 47.1358 107.484 47.2067 107.157C47.2778 106.831 47.6042 106.632 47.9165 106.703C50.6706 107.313 51.5507 108.619 51.7921 109.599C52.2038 111.259 51.1532 113.246 48.8535 115.205C46.2698 117.391 44.112 117.988 42.5079 117.988Z" fill="black"/>
<path d="M46.1828 122.075C45.6859 122.075 45.2316 122.019 44.8341 121.919C42.8041 121.451 41.1148 119.904 40.0785 117.548C39.9507 117.25 40.0785 116.895 40.3908 116.752C40.6889 116.625 41.0438 116.752 41.1857 117.065C42.0659 119.052 43.4572 120.372 45.118 120.755C47.0771 121.21 49.3769 120.387 51.7619 118.371C53.6783 116.752 54.6011 115.149 54.3172 113.971C54.0191 112.778 52.5426 112.211 51.3502 111.955C51.0236 111.884 50.8249 111.572 50.8958 111.246C50.9669 110.919 51.2792 110.72 51.6056 110.791C54.3597 111.402 55.2257 112.707 55.4812 113.687C55.8929 115.348 54.8566 117.335 52.5426 119.294C49.9448 121.48 47.7869 122.075 46.1828 122.075Z" fill="black"/>
<path d="M54.9423 116.426L54.9139 116.44C53.2813 117.888 51.6487 119.307 49.8458 120.486L57.1001 118.938L54.9423 116.426Z" fill="black"/>
<path d="M49.8612 121.096C49.6198 121.096 49.4069 120.954 49.3075 120.727C49.1939 120.457 49.2933 120.159 49.5347 119.989C51.3518 118.782 53.0411 117.305 54.5316 115.986C54.6452 115.887 54.8298 115.816 54.986 115.83C55.1421 115.844 55.3125 115.901 55.4119 116.029L57.5696 118.555C57.7116 118.711 57.7542 118.938 57.6832 119.137C57.6122 119.335 57.4419 119.491 57.2432 119.534L49.9889 121.082C49.9464 121.096 49.9037 121.096 49.8612 121.096ZM54.8866 117.277C54.1341 117.945 53.325 118.64 52.4591 119.335L55.9939 118.583L54.8866 117.277Z" fill="black"/>
<path d="M85.5328 104.418C85.2915 104.418 85.0502 104.261 84.965 104.02C84.8514 103.708 85.0218 103.367 85.3341 103.254C89.1103 101.948 97.4718 101.849 105.946 101.934C106.273 101.934 106.543 102.203 106.543 102.544C106.543 102.871 106.273 103.14 105.946 103.14C97.5856 103.055 89.3516 103.154 85.7458 104.404C85.6748 104.404 85.6039 104.418 85.5328 104.418Z" fill="black"/>
<path d="M22.6028 101.437C22.1912 101.395 21.7937 101.366 21.3395 101.338C18.0885 89.5285 17.7336 77.1796 20.2464 65.1856C20.6722 65.1714 21.0697 65.1573 21.4814 65.1431C18.8977 77.1938 19.2952 89.5852 22.6028 101.437Z" fill="black"/>
<path d="M12.7399 90.2384C12.6831 92.2398 12.6263 94.2411 12.5837 96.2425C12.5695 97.0087 13.762 97.0087 13.7762 96.2425C13.8329 94.2411 13.8898 92.2398 13.9323 90.2384C13.9607 89.472 12.7683 89.472 12.7399 90.2384Z" fill="black"/>
<path d="M9.65659 142.387C9.3301 142.387 9.07458 142.131 9.06038 141.805L6.13599 44.4336C6.13599 44.2775 6.19277 44.1214 6.30634 43.9936C6.41991 43.88 6.57606 43.8091 6.73222 43.8091L120.954 44.1781C121.28 44.1781 121.55 44.4478 121.55 44.7742V139.945C121.55 140.272 121.294 140.542 120.954 140.542L9.65659 142.387ZM7.34266 45.0298L10.2386 141.194L120.358 139.378V45.3846L7.34266 45.0298Z" fill="black"/>
<defs>
<linearGradient id="paint0_linear_3_93" x1="90.5107" y1="102.798" x2="192.256" y2="193.528" gradientUnits="userSpaceOnUse">
<stop offset="0.0572917" stop-color="#F8D2AA"/>
<stop offset="0.257355" stop-color="#F4B6D4"/>
<stop offset="0.455904" stop-color="#C8A2E5"/>
<stop offset="0.670741" stop-color="#B08CF7"/>
<stop offset="0.932292" stop-color="#8EC9F2"/>
</linearGradient>
<linearGradient id="paint1_linear_3_93" x1="177.234" y1="168.049" x2="200.351" y2="182.819" gradientUnits="userSpaceOnUse">
<stop offset="0.0572917" stop-color="#F8D2AA"/>
<stop offset="0.257355" stop-color="#F4B6D4"/>
<stop offset="0.455904" stop-color="#C8A2E5"/>
<stop offset="0.670741" stop-color="#B08CF7"/>
<stop offset="0.932292" stop-color="#8EC9F2"/>
</linearGradient>
<linearGradient id="paint2_linear_3_93" x1="138.232" y1="21.577" x2="203.335" y2="88.8519" gradientUnits="userSpaceOnUse">
<stop offset="0.0572917" stop-color="#F8D2AA"/>
<stop offset="0.257355" stop-color="#F4B6D4"/>
<stop offset="0.455904" stop-color="#C8A2E5"/>
<stop offset="0.670741" stop-color="#B08CF7"/>
<stop offset="0.932292" stop-color="#8EC9F2"/>
</linearGradient>
<linearGradient id="paint3_linear_3_93" x1="4.39314" y1="44.3441" x2="88.8749" y2="147.755" gradientUnits="userSpaceOnUse">
<stop offset="0.0572917" stop-color="#F8D2AA"/>
<stop offset="0.257355" stop-color="#F4B6D4"/>
<stop offset="0.455904" stop-color="#C8A2E5"/>
<stop offset="0.670741" stop-color="#B08CF7"/>
<stop offset="0.932292" stop-color="#8EC9F2"/>
</linearGradient>
<linearGradient id="paint4_linear_3_93" x1="204.254" y1="100.603" x2="223.873" y2="119.563" gradientUnits="userSpaceOnUse">
<stop offset="0.0572917" stop-color="#F8D2AA"/>
<stop offset="0.257355" stop-color="#F4B6D4"/>
<stop offset="0.455904" stop-color="#C8A2E5"/>
<stop offset="0.670741" stop-color="#B08CF7"/>
<stop offset="0.932292" stop-color="#8EC9F2"/>
</linearGradient>
<linearGradient id="paint5_linear_3_93" x1="61.0902" y1="162.919" x2="67.1002" y2="170.017" gradientUnits="userSpaceOnUse">
<stop offset="0.0572917" stop-color="#F8D2AA"/>
<stop offset="0.257355" stop-color="#F4B6D4"/>
<stop offset="0.455904" stop-color="#C8A2E5"/>
<stop offset="0.670741" stop-color="#B08CF7"/>
<stop offset="0.932292" stop-color="#8EC9F2"/>
</linearGradient>
<linearGradient id="paint6_linear_3_93" x1="61.1003" y1="162.915" x2="67.1167" y2="169.997" gradientUnits="userSpaceOnUse">
<stop offset="0.0572917" stop-color="#F8D2AA"/>
<stop offset="0.257355" stop-color="#F4B6D4"/>
<stop offset="0.455904" stop-color="#C8A2E5"/>
<stop offset="0.670741" stop-color="#B08CF7"/>
<stop offset="0.932292" stop-color="#8EC9F2"/>
</linearGradient>
<linearGradient id="paint7_linear_3_93" x1="75.7931" y1="54.3264" x2="82.9828" y2="61.4161" gradientUnits="userSpaceOnUse">
<stop offset="0.0572917" stop-color="#F8D2AA"/>
<stop offset="0.257355" stop-color="#F4B6D4"/>
<stop offset="0.455904" stop-color="#C8A2E5"/>
<stop offset="0.670741" stop-color="#B08CF7"/>
<stop offset="0.932292" stop-color="#8EC9F2"/>
</linearGradient>
</defs>
</svg>
